<svg width="1028" height="1886" viewBox="0 0 1028 1886" fill="none" xmlns="http://www.w3.org/2000/svg">
<path d="M252 721C252 714.373 257.373 709 264 709H860C866.627 709 872 714.373 872 721V753C872 759.627 866.627 765 860 765H264C257.373 765 252 759.627 252 753V721Z" fill="#473B2F"/>
<line x1="281.231" y1="759.627" x2="556.627" y2="213.769" stroke="#473B2F" stroke-width="8" stroke-linecap="round"/>
<line x1="4" y1="-4" x2="615.395" y2="-4" transform="matrix(0.45044 0.892807 0.892807 -0.45044 559 209)" stroke="#473B2F" stroke-width="8" stroke-linecap="round"/>
<ellipse cx="556" cy="212.5" rx="13" ry="20.5" fill="#473B2F"/>
<path d="M811.077 704.002C808.508 702.375 804.447 699.415 802.131 696.004C799.815 692.593 796.438 682.867 794.749 678.004C793.06 673.141 787.938 663.867 788.288 657.473C788.638 651.08 788.751 640.45 792.377 635.644C796.003 630.837 798.63 627.149 802.786 625.5C806.943 623.851 811.513 623.241 815.534 625.494C819.555 627.748 822.323 632.905 824.345 637.395C825.153 645.494 826.056 648.984 824.881 653.299C823.707 657.615 824.317 662.184 822.063 666.205C819.809 670.227 818.849 672.051 815.929 676.818C813.009 681.585 812.247 686.939 812.151 691.548C812.074 695.235 811.403 701.387 811.077 704.002Z" fill="#012627" stroke="#012627" stroke-linecap="round"/>
<path d="M874.577 782.947C874.077 779.947 873.577 774.947 874.577 770.947C875.577 766.947 880.577 757.947 883.077 753.447C885.577 748.947 889.077 738.947 894.077 734.947C899.077 730.947 907.077 723.947 913.077 723.447C919.077 722.947 923.577 722.447 927.577 724.447C931.577 726.447 935.077 729.447 936.077 733.947C937.077 738.447 935.077 743.947 933.077 748.447C927.577 754.447 925.577 757.447 921.577 759.447C917.577 761.447 914.577 764.947 910.077 765.947C905.577 766.947 903.577 767.447 898.077 768.447C892.577 769.447 888.077 772.447 884.577 775.447C881.777 777.847 876.744 781.447 874.577 782.947Z" fill="#012627" stroke="#012627" stroke-linecap="round"/>
<path d="M915.838 959.527C917.744 957.157 920.631 953.044 921.72 949.067C922.808 945.09 922.862 934.795 922.888 929.647C922.915 924.499 924.765 914.067 922.368 908.13C919.97 902.193 916.428 892.17 911.443 888.793C906.458 885.417 902.781 882.775 898.314 882.558C893.847 882.341 889.326 883.24 886.249 886.672C883.171 890.105 882.219 895.879 881.757 900.782C883.61 908.707 883.883 912.303 886.389 916.006C888.895 919.71 889.795 924.231 893.227 927.309C896.659 930.386 898.157 931.802 902.461 935.369C906.765 938.937 909.217 943.757 910.798 948.088C912.062 951.552 914.685 957.157 915.838 959.527Z" fill="#012627" stroke="#012627" stroke-linecap="round"/>
<path d="M735.577 1115.95C735.077 1112.95 734.577 1107.95 735.577 1103.95C736.577 1099.95 741.577 1090.95 744.077 1086.45C746.577 1081.95 750.077 1071.95 755.077 1067.95C760.077 1063.95 768.077 1056.95 774.077 1056.45C780.077 1055.95 784.577 1055.45 788.577 1057.45C792.577 1059.45 796.077 1062.45 797.077 1066.95C798.077 1071.45 796.077 1076.95 794.077 1081.45C788.577 1087.45 786.577 1090.45 782.577 1092.45C778.577 1094.45 775.577 1097.95 771.077 1098.95C766.577 1099.95 764.577 1100.45 759.077 1101.45C753.577 1102.45 749.077 1105.45 745.577 1108.45C742.777 1110.85 737.744 1114.45 735.577 1115.95Z" fill="#012627" stroke="#012627" stroke-linecap="round"/>
<path d="M764.229 1007.78C765.821 1005.19 768.165 1000.74 768.743 996.661C769.321 992.579 768.074 982.359 767.451 977.249C766.828 972.139 767.347 961.557 764.219 955.97C761.091 950.383 756.312 940.887 750.941 938.167C745.57 935.447 741.588 933.29 737.13 933.639C732.671 933.987 728.3 935.45 725.68 939.243C723.061 943.036 722.845 948.885 723.005 953.806C725.844 961.435 726.568 964.967 729.522 968.325C732.476 971.683 733.939 976.054 737.732 978.673C741.525 981.293 743.19 982.509 747.91 985.504C752.63 988.5 755.67 992.972 757.785 997.069C759.476 1000.35 762.785 1005.57 764.229 1007.78Z" fill="#012627" stroke="#012627" stroke-linecap="round"/>
<path d="M591.57 1119.31C591.542 1116.27 591.823 1111.25 593.431 1107.46C595.039 1103.66 601.374 1095.54 604.542 1091.49C607.709 1087.43 612.718 1078.09 618.278 1074.92C623.837 1071.74 632.826 1066.06 638.831 1066.5C644.836 1066.94 649.359 1067.14 653.001 1069.74C656.642 1072.33 659.634 1075.84 659.925 1080.44C660.215 1085.04 657.386 1090.16 654.712 1094.3C648.349 1099.37 645.908 1102.03 641.646 1103.38C637.384 1104.74 633.878 1107.73 629.277 1108.02C624.676 1108.31 622.623 1108.5 617.035 1108.63C611.446 1108.77 606.535 1111.03 602.612 1113.45C599.474 1115.39 593.943 1118.17 591.57 1119.31Z" fill="#012627" stroke="#012627" stroke-linecap="round"/>
<path d="M605.577 1350.95C605.077 1347.95 604.577 1342.95 605.577 1338.95C606.577 1334.95 611.577 1325.95 614.077 1321.45C616.577 1316.95 620.077 1306.95 625.077 1302.95C630.077 1298.95 638.077 1291.95 644.077 1291.45C650.077 1290.95 654.577 1290.45 658.577 1292.45C662.577 1294.45 666.077 1297.45 667.077 1301.95C668.077 1306.45 666.077 1311.95 664.077 1316.45C658.577 1322.45 656.577 1325.45 652.577 1327.45C648.577 1329.45 645.577 1332.95 641.077 1333.95C636.577 1334.95 634.577 1335.45 629.077 1336.45C623.577 1337.45 619.077 1340.45 615.577 1343.45C612.777 1345.85 607.744 1349.45 605.577 1350.95Z" fill="#012627" stroke="#012627" stroke-linecap="round"/>
<path d="M384.577 977.947C384.077 974.947 383.577 969.947 384.577 965.947C385.577 961.947 390.577 952.947 393.077 948.447C395.577 943.947 399.077 933.947 404.077 929.947C409.077 925.947 417.077 918.947 423.077 918.447C429.077 917.947 433.577 917.447 437.577 919.447C441.577 921.447 445.077 924.447 446.077 928.947C447.077 933.447 445.077 938.947 443.077 943.447C437.577 949.447 435.577 952.447 431.577 954.447C427.577 956.447 424.577 959.947 420.077 960.947C415.577 961.947 413.577 962.447 408.077 963.447C402.577 964.447 398.077 967.447 394.577 970.447C391.777 972.847 386.744 976.447 384.577 977.947Z" fill="#012627" stroke="#012627" stroke-linecap="round"/>
<path d="M541.672 980.21C540.706 977.327 538.801 972.676 536.041 969.613C533.282 966.55 524.643 960.948 520.324 958.147C516.005 955.346 508.223 948.157 501.93 946.97C495.638 945.784 485.289 943.356 479.756 945.729C474.223 948.103 470.014 949.772 467.42 953.415C464.826 957.058 463.143 961.35 464.371 965.793C465.599 970.236 469.946 974.155 473.823 977.19C481.495 979.908 484.669 981.619 489.14 981.509C493.611 981.398 497.902 983.082 502.345 981.854C506.788 980.625 508.789 980.129 514.116 978.431C519.442 976.734 524.823 977.272 529.322 978.279C532.92 979.085 539.054 979.902 541.672 980.21Z" fill="#012627" stroke="#012627" stroke-linecap="round"/>
<path d="M434.551 1135.43C434.963 1132.41 435.966 1127.49 438.107 1123.97C440.247 1120.44 447.689 1113.33 451.41 1109.77C455.131 1106.21 461.437 1097.7 467.397 1095.36C473.358 1093.02 483.073 1088.7 488.951 1090C494.83 1091.31 499.276 1092.16 502.504 1095.26C505.732 1098.35 508.186 1102.25 507.808 1106.85C507.43 1111.44 503.89 1116.1 500.646 1119.81C493.616 1123.91 490.817 1126.18 486.404 1126.91C481.991 1127.63 478.088 1130.09 473.494 1129.71C468.9 1129.33 466.842 1129.21 461.292 1128.54C455.743 1127.87 450.556 1129.4 446.324 1131.23C442.939 1132.69 437.065 1134.64 434.551 1135.43Z" fill="#012627" stroke="#012627" stroke-linecap="round"/>
<path d="M405.315 616.576C408.343 616.287 413.366 616.137 417.286 617.414C421.206 618.691 429.835 624.308 434.149 627.116C438.464 629.924 448.195 634.115 451.836 639.382C455.476 644.649 461.9 653.119 461.98 659.139C462.06 665.159 462.244 669.683 459.969 673.534C457.695 677.384 454.458 680.666 449.899 681.349C445.34 682.032 439.993 679.653 435.644 677.343C430.043 671.438 427.19 669.233 425.474 665.103C423.758 660.973 420.477 657.736 419.793 653.177C419.11 648.618 418.751 646.588 418.138 641.032C417.525 635.475 414.846 630.776 412.098 627.075C409.9 624.115 406.66 618.842 405.315 616.576Z" fill="#012627" stroke="#012627" stroke-linecap="round"/>
<path d="M194.569 813.153C194.592 810.112 194.96 805.1 196.633 801.332C198.306 797.564 204.779 789.558 208.016 785.555C211.253 781.552 216.421 772.303 222.034 769.223C227.648 766.142 236.733 760.623 242.729 761.162C248.726 761.702 253.245 761.983 256.841 764.641C260.438 767.3 263.369 770.857 263.58 775.462C263.791 780.067 260.875 785.141 258.131 789.23C251.681 794.194 249.195 796.805 244.91 798.088C240.626 799.37 237.069 802.302 232.464 802.513C227.859 802.724 225.803 802.872 220.213 802.911C214.623 802.95 209.674 805.132 205.71 807.485C202.539 809.368 196.961 812.048 194.569 813.153Z" fill="#012627" stroke="#012627" stroke-linecap="round"/>
<path d="M201.577 1079.95C201.077 1076.95 200.577 1071.95 201.577 1067.95C202.577 1063.95 207.577 1054.95 210.077 1050.45C212.577 1045.95 216.077 1035.95 221.077 1031.95C226.077 1027.95 234.077 1020.95 240.077 1020.45C246.077 1019.95 250.577 1019.45 254.577 1021.45C258.577 1023.45 262.077 1026.45 263.077 1030.95C264.077 1035.45 262.077 1040.95 260.077 1045.45C254.577 1051.45 252.577 1054.45 248.577 1056.45C244.577 1058.45 241.577 1061.95 237.077 1062.95C232.577 1063.95 230.577 1064.45 225.077 1065.45C219.577 1066.45 215.077 1069.45 211.577 1072.45C208.777 1074.85 203.744 1078.45 201.577 1079.95Z" fill="#012627" stroke="#012627" stroke-linecap="round"/>
<path d="M355.283 1113.09C354.663 1110.11 353.318 1105.27 350.937 1101.9C348.557 1098.54 340.637 1091.96 336.677 1088.67C332.717 1085.38 325.833 1077.32 319.724 1075.41C313.614 1073.49 303.622 1069.86 297.849 1071.57C292.075 1073.28 287.699 1074.44 284.695 1077.75C281.691 1081.06 279.515 1085.13 280.212 1089.69C280.91 1094.24 284.766 1098.64 288.26 1102.11C295.559 1105.72 298.51 1107.79 302.963 1108.2C307.416 1108.62 311.48 1110.79 316.036 1110.1C320.593 1109.4 322.638 1109.14 328.127 1108.08C333.616 1107.02 338.897 1108.19 343.246 1109.72C346.725 1110.94 352.72 1112.47 355.283 1113.09Z" fill="#012627" stroke="#012627" stroke-linecap="round"/>
<path d="M303.821 1297.31C302.336 1294.65 300.174 1290.12 299.762 1286.01C299.35 1281.91 301.011 1271.75 301.841 1266.67C302.672 1261.59 302.583 1251 305.935 1245.54C309.287 1240.08 314.448 1230.79 319.925 1228.29C325.402 1225.79 329.468 1223.8 333.909 1224.33C338.349 1224.86 342.658 1226.5 345.121 1230.39C347.584 1234.29 347.563 1240.14 347.203 1245.05C344.057 1252.56 343.189 1256.06 340.102 1259.29C337.014 1262.53 335.375 1266.84 331.478 1269.3C327.582 1271.76 325.869 1272.91 321.031 1275.71C316.194 1278.51 312.974 1282.86 310.695 1286.87C308.872 1290.07 305.353 1295.16 303.821 1297.31Z" fill="#012627" stroke="#012627" stroke-linecap="round"/>
<path d="M488.433 1429.47C487.606 1426.54 485.926 1421.81 483.316 1418.61C480.705 1415.42 472.344 1409.41 468.164 1406.41C463.984 1403.41 456.553 1395.85 450.325 1394.37C444.096 1392.88 433.875 1389.96 428.235 1392.07C422.594 1394.18 418.311 1395.64 415.546 1399.16C412.781 1402.67 410.895 1406.88 411.909 1411.38C412.924 1415.87 417.079 1419.99 420.807 1423.21C428.34 1426.29 431.429 1428.15 435.9 1428.26C440.371 1428.36 444.577 1430.25 449.073 1429.23C453.57 1428.22 455.592 1427.82 460.994 1426.38C466.395 1424.93 471.745 1425.73 476.19 1426.95C479.746 1427.93 485.834 1429.04 488.433 1429.47Z" fill="#012627" stroke="#012627" stroke-linecap="round"/>
<path d="M394.577 1645.95C394.077 1642.95 393.577 1637.95 394.577 1633.95C395.577 1629.95 400.577 1620.95 403.077 1616.45C405.577 1611.95 409.077 1601.95 414.077 1597.95C419.077 1593.95 427.077 1586.95 433.077 1586.45C439.077 1585.95 443.577 1585.45 447.577 1587.45C451.577 1589.45 455.077 1592.45 456.077 1596.95C457.077 1601.45 455.077 1606.95 453.077 1611.45C447.577 1617.45 445.577 1620.45 441.577 1622.45C437.577 1624.45 434.577 1627.95 430.077 1628.95C425.577 1629.95 423.577 1630.45 418.077 1631.45C412.577 1632.45 408.077 1635.45 404.577 1638.45C401.777 1640.85 396.744 1644.45 394.577 1645.95Z" fill="#012627" stroke="#012627" stroke-linecap="round"/>
<path d="M287.577 1884.95C287.077 1881.95 286.577 1876.95 287.577 1872.95C288.577 1868.95 293.577 1859.95 296.077 1855.45C298.577 1850.95 302.077 1840.95 307.077 1836.95C312.077 1832.95 320.077 1825.95 326.077 1825.45C332.077 1824.95 336.577 1824.45 340.577 1826.45C344.577 1828.45 348.077 1831.45 349.077 1835.95C350.077 1840.45 348.077 1845.95 346.077 1850.45C340.577 1856.45 338.577 1859.45 334.577 1861.45C330.577 1863.45 327.577 1866.95 323.077 1867.95C318.577 1868.95 316.577 1869.45 311.077 1870.45C305.577 1871.45 301.077 1874.45 297.577 1877.45C294.777 1879.85 289.744 1883.45 287.577 1884.95Z" fill="#012627" stroke="#012627" stroke-linecap="round"/>
<path d="M266.968 713.81C265.714 711.04 263.945 706.336 263.883 702.214C263.821 698.091 266.34 688.108 267.599 683.117C268.858 678.125 269.67 667.562 273.474 662.411C277.278 657.26 283.209 648.439 288.879 646.413C294.549 644.387 298.769 642.747 303.149 643.652C307.529 644.557 311.682 646.556 313.805 650.648C315.929 654.739 315.41 660.569 314.634 665.432C310.861 672.644 309.699 676.057 306.348 679.018C302.996 681.979 300.997 686.133 296.905 688.256C292.813 690.379 291.009 691.376 285.951 693.757C280.893 696.137 277.315 700.193 274.704 703.992C272.615 707.031 268.676 711.804 266.968 713.81Z" fill="#012627" stroke="#012627" stroke-linecap="round"/>
<path d="M321.811 579.56C324.843 579.794 329.818 580.508 333.461 582.438C337.104 584.368 344.643 591.38 348.412 594.886C352.181 598.393 361.05 604.188 363.735 610.002C366.419 615.815 371.296 625.26 370.343 631.205C369.39 637.15 368.796 641.638 365.895 645.042C362.994 648.446 359.242 651.124 354.634 651.016C350.025 650.908 345.166 647.647 341.276 644.627C336.77 637.848 334.337 635.187 333.355 630.824C332.373 626.461 329.694 622.71 329.802 618.101C329.911 613.493 329.905 611.431 330.253 605.852C330.601 600.273 328.768 595.184 326.694 591.067C325.036 587.773 322.748 582.024 321.811 579.56Z" fill="#012627" stroke="#012627" stroke-linecap="round"/>
<path d="M68.5445 754.726C69.0708 751.731 70.2623 746.849 72.5358 743.409C74.8093 739.97 82.5181 733.145 86.3724 729.733C90.2268 726.321 96.8536 718.054 102.899 715.945C108.945 713.836 118.818 709.895 124.643 711.419C130.467 712.943 134.877 713.968 137.984 717.185C141.091 720.402 143.394 724.395 142.841 728.971C142.287 733.548 138.572 738.069 135.189 741.648C128.006 745.477 125.122 747.641 120.685 748.197C116.247 748.752 112.254 751.055 107.678 750.502C103.101 749.948 101.049 749.754 95.5293 748.868C90.0099 747.982 84.7683 749.314 80.4697 750.979C77.0309 752.311 71.0867 754.032 68.5445 754.726Z" fill="#012627" stroke="#012627" stroke-linecap="round"/>
<path d="M68.5774 1107.95C68.0774 1104.95 67.5774 1099.95 68.5774 1095.95C69.5774 1091.95 74.5773 1082.95 77.0773 1078.45C79.5773 1073.95 83.0773 1063.95 88.0773 1059.95C93.0773 1055.95 101.077 1048.95 107.077 1048.45C113.077 1047.95 117.577 1047.45 121.577 1049.45C125.577 1051.45 129.077 1054.45 130.077 1058.95C131.077 1063.45 129.077 1068.95 127.077 1073.45C121.577 1079.45 119.577 1082.45 115.577 1084.45C111.577 1086.45 108.577 1089.95 104.077 1090.95C99.5773 1091.95 97.5773 1092.45 92.0773 1093.45C86.5773 1094.45 82.0773 1097.45 78.5773 1100.45C75.7773 1102.85 70.744 1106.45 68.5774 1107.95Z" fill="#012627" stroke="#012627" stroke-linecap="round"/>
<path d="M233.766 1235.95C234.266 1232.95 234.766 1227.95 233.766 1223.95C232.766 1219.95 227.766 1210.95 225.266 1206.45C222.766 1201.95 219.266 1191.95 214.266 1187.95C209.266 1183.95 201.266 1176.95 195.266 1176.45C189.266 1175.95 184.766 1175.45 180.766 1177.45C176.766 1179.45 173.266 1182.45 172.266 1186.95C171.266 1191.45 173.266 1196.95 175.266 1201.45C180.766 1207.45 182.766 1210.45 186.766 1212.45C190.766 1214.45 193.766 1217.95 198.266 1218.95C202.766 1219.95 204.766 1220.45 210.266 1221.45C215.766 1222.45 220.266 1225.45 223.766 1228.45C226.566 1230.85 231.599 1234.45 233.766 1235.95Z" fill="#012627" stroke="#012627" stroke-linecap="round"/>
<path d="M557.694 488.408C560.168 490.177 564.056 493.361 566.176 496.897C568.296 500.434 571.12 510.334 572.532 515.285C573.944 520.235 578.536 529.783 577.826 536.147C577.116 542.51 576.404 553.117 572.513 557.711C568.622 562.306 565.792 565.84 561.549 567.252C557.305 568.665 552.709 569.016 548.821 566.54C544.933 564.063 542.461 558.759 540.695 554.162C540.345 546.03 539.639 542.494 541.055 538.252C542.471 534.01 542.12 529.413 544.596 525.525C547.073 521.637 548.135 519.87 551.319 515.275C554.503 510.681 555.565 505.378 555.921 500.782C556.206 497.105 557.222 491.001 557.694 488.408Z" fill="#012627" stroke="#012627" stroke-linecap="round"/>
<path d="M155.509 677C155.068 673.997 154.627 668.993 155.509 664.989C156.392 660.986 160.803 651.978 163.008 647.474C165.214 642.97 168.301 632.961 172.712 628.958C177.124 624.954 184.181 617.948 189.474 617.448C194.768 616.947 198.738 616.447 202.267 618.448C205.795 620.45 208.883 623.453 209.765 627.957C210.648 632.461 208.883 637.966 207.119 642.47C202.267 648.475 200.502 651.478 196.973 653.479C193.444 655.481 190.798 658.984 186.828 659.985C182.858 660.986 181.093 661.486 176.241 662.487C171.389 663.488 167.419 666.491 164.331 669.493C161.861 671.896 157.421 675.499 155.509 677Z" fill="#012627" stroke="#012627" stroke-linecap="round"/>
<path d="M272.202 467.542C274.837 466.022 279.345 463.803 283.442 463.338C287.539 462.873 297.72 464.403 302.81 465.168C307.901 465.934 318.494 465.709 323.992 468.99C329.49 472.272 338.849 477.313 341.419 482.758C343.989 488.202 346.034 492.242 345.562 496.689C345.09 501.136 343.506 505.465 339.642 507.978C335.777 510.492 329.925 510.545 325.01 510.248C317.463 507.199 313.953 506.376 310.678 503.331C307.404 500.285 303.074 498.701 300.561 494.837C298.048 490.972 296.879 489.274 294.016 484.473C291.153 479.672 286.766 476.508 282.73 474.281C279.501 472.499 274.366 469.046 272.202 467.542Z" fill="#012627" stroke="#012627" stroke-linecap="round"/>
<mask id="mask0_103_1040" style="mask-type:alpha" maskUnits="userSpaceOnUse" x="283" y="547" width="580" height="360">
<ellipse cx="573" cy="727" rx="290" ry="180" fill="#473B2F"/>
</mask>
<g mask="url(#mask0_103_1040)">
<rect x="283" y="722" width="580" height="241" fill="#473B2F"/>
<path d="M670.011 737.68C668.844 736.513 666.311 733.58 665.511 731.18C664.511 728.18 661.511 724.18 661.511 720.68C661.511 717.18 659.011 707.68 658.011 706.68C657.011 705.68 651.511 695.68 648.011 693.18C644.511 690.68 636.511 684.68 634.511 684.68C632.511 684.68 625.511 681.18 622.011 682.18C618.511 683.18 613.511 685.18 613.011 687.68C612.611 689.68 612.511 691.013 613.011 691.68C611.344 691.346 609.039 691.161 606.011 693.18C603.011 695.18 602.511 697.68 602.011 699.68C601.511 701.68 600.011 707.68 602.011 711.68C604.011 715.68 606.937 719.606 609.511 722.18C612.011 724.68 616.011 727.18 620.011 728.68C624.011 730.18 637.511 734.68 641.011 734.68C644.511 734.68 651.011 735.18 655.511 735.68C659.111 736.08 666.677 737.18 670.011 737.68Z" fill="#012627" stroke="#012627" stroke-linecap="round"/>
</g>
<path d="M401.5 680.5C376 662 361 642 304.5 642C264.5 642 195.136 650.763 157 706.5C111.5 773 99.4998 872.808 99.4999 914.5C99.5 1006 159.045 1107.99 167.5 1158.5C186.5 1272 156 1311.5 145.5 1340" stroke="#012627" stroke-width="6" stroke-linecap="round"/>
<path d="M567.5 731C581.833 709.334 597.5 698.5 615.5 688C641.844 672.633 655.828 669 682.5 669C709.172 669 731 672.5 755.5 702.5C787.158 741.265 795 783.5 785.5 839.5C782.283 858.465 701 973 682.5 1015C664 1057 640.5 1142 645.5 1190.5C650.5 1239 667 1313.5 682.5 1356.5" stroke="#012627" stroke-width="6" stroke-linecap="round"/>
<path d="M634.5 677C624.5 638.333 578.487 589.463 545.5 564.5C508.5 536.5 456 504 376.5 504C297 504 226.5 572 202.5 623" stroke="#012627" stroke-width="6" stroke-linecap="round"/>
<path d="M707 713C755.5 633 771 636.5 801 626C856.5 606.575 913.5 669.5 926 699C938.5 728.5 961 798 914 855.5C867 913 829.5 968 818 996.5C806.494 1025.02 787.604 1087.04 801 1115C824 1163 887 1138 902.5 1130.5" stroke="#012627" stroke-width="6" stroke-linecap="round"/>
<path d="M486 691.5C444 703.5 401.352 769.139 395.5 794.5C383.5 846.5 445.5 917 466 971.5C486.5 1026 509 1070.52 509 1121.5C509 1174.5 461 1221 454 1243" stroke="#012627" stroke-width="6" stroke-linecap="round"/>
<path d="M1025.53 700.616C1021.7 698.867 1013.19 694.676 1009.87 691.908C1005.71 688.448 997.68 683.571 993.862 681.656C990.043 679.74 970.473 674.639 963.513 673.898C956.552 673.157 950.639 672.024 945.508 672.986C940.377 673.948 931.237 679.511 930.031 681.394C928.824 683.277 925.153 689.423 925.438 691.465C925.724 693.506 927.077 699.684 927.965 700.785C928.854 701.885 926.939 705.704 928.271 707.354C929.604 709.004 932.714 712.855 937.58 714.379C942.446 715.903 950.401 716.75 954.378 717.174C958.356 717.598 966.523 716.456 970.606 715.885C974.689 715.314 982.412 713.623 986.601 712.058C990.791 710.492 999.719 706.918 1002.86 705.744C1005.37 704.805 1019.02 701.934 1025.53 700.616Z" fill="#012627" stroke="#012627" stroke-linecap="round"/>
<path d="M993.237 818.29C992.036 815.552 989.511 809.336 989.015 806.376C988.395 802.677 986.412 796.377 985.292 793.57C984.173 790.764 976.38 778.586 973.141 774.756C969.901 770.927 967.368 767.439 964.323 765.322C961.278 763.206 954.175 761.238 952.737 761.516C951.299 761.794 946.741 762.834 945.997 763.932C945.253 765.031 943.253 768.6 943.228 769.56C943.203 770.519 940.559 771.349 940.522 772.788C940.484 774.227 940.397 777.586 942.224 780.733C944.05 783.881 947.752 788.257 949.603 790.445C951.454 792.633 956.132 796.184 958.47 797.96C960.809 799.736 965.499 802.807 968.325 804.17C971.152 805.533 977.279 808.327 979.399 809.349C981.095 810.167 989.331 815.65 993.237 818.29Z" fill="#012627" stroke="#012627" stroke-linecap="round"/>
<path d="M752.355 964.874C755.698 962.576 763.055 957.221 765.744 954.181C769.104 950.381 775.896 944.554 779.195 942.121C782.493 939.689 800.184 931.171 806.656 929.04C813.128 926.909 818.542 924.678 823.565 924.371C828.588 924.064 838.18 926.742 839.638 928.057C841.096 929.373 845.603 933.725 845.674 935.497C845.745 937.27 845.496 942.739 844.839 943.853C844.181 944.967 846.634 947.751 845.647 949.423C844.661 951.094 842.358 954.995 838.002 957.327C833.646 959.659 826.249 962.094 822.551 963.311C818.852 964.529 810.923 965.344 806.958 965.752C802.993 966.159 795.392 966.417 791.16 966.015C786.928 965.612 777.869 964.554 774.696 964.252C772.157 964.011 758.744 964.566 752.355 964.874Z" fill="#012627" stroke="#012627" stroke-linecap="round"/>
<path d="M889.234 1067.65C886.966 1071.2 882.108 1079.34 880.822 1083.47C879.215 1088.64 875.129 1097.1 872.966 1100.78C870.803 1104.46 857.153 1119.39 851.715 1123.79C846.277 1128.2 841.93 1132.37 837.101 1134.35C832.272 1136.33 821.576 1136.63 819.54 1135.71C817.503 1134.79 811.08 1131.62 810.209 1129.76C809.339 1127.89 807.115 1121.97 807.262 1120.56C807.41 1119.15 803.726 1116.99 803.947 1114.88C804.168 1112.77 804.683 1107.85 807.938 1103.92C811.193 1100 817.408 1094.96 820.516 1092.44C823.624 1089.92 831.098 1086.44 834.836 1084.7C838.573 1082.96 845.974 1080.18 850.341 1079.21C854.707 1078.25 864.144 1076.39 867.42 1075.67C870.04 1075.09 883.054 1070.08 889.234 1067.65Z" fill="#012627" stroke="#012627" stroke-linecap="round"/>
<path d="M853.893 747.19C851.09 745.836 844.881 742.605 842.472 740.508C839.46 737.887 833.614 734.156 830.826 732.68C828.039 731.204 813.678 727.121 808.552 726.46C803.426 725.8 799.08 724.868 795.278 725.494C791.475 726.121 784.638 730.078 783.717 731.449C782.796 732.819 779.986 737.295 780.164 738.807C780.341 740.318 781.239 744.9 781.877 745.727C782.515 746.553 781.039 749.341 781.996 750.581C782.953 751.82 785.186 754.713 788.752 755.917C792.319 757.121 798.177 757.876 801.106 758.253C804.035 758.631 810.081 757.921 813.104 757.566C816.127 757.212 821.855 756.089 824.973 755.002C828.09 753.914 834.739 751.421 837.077 750.606C838.947 749.954 849.067 748.057 853.893 747.19Z" fill="#012627" stroke="#012627" stroke-linecap="round"/>
<path d="M664.98 879.9C668.829 878.179 677.364 874.05 680.71 871.307C684.892 867.878 692.956 863.059 696.788 861.172C700.621 859.284 720.227 854.326 727.193 853.636C734.159 852.946 740.081 851.856 745.204 852.856C750.328 853.855 759.427 859.485 760.62 861.377C761.812 863.268 765.439 869.441 765.138 871.48C764.838 873.52 763.44 879.688 762.543 880.782C761.647 881.875 763.534 885.708 762.189 887.349C760.844 888.989 757.707 892.817 752.83 894.306C747.953 895.794 739.992 896.583 736.011 896.978C732.031 897.372 723.872 896.171 719.793 895.57C715.714 894.97 708.004 893.222 703.826 891.626C699.649 890.03 690.746 886.391 687.613 885.194C685.106 884.236 671.48 881.266 664.98 879.9Z" fill="#012627" stroke="#012627" stroke-linecap="round"/>
<path d="M741.998 1164.65C737.782 1164.74 728.314 1165.23 724.166 1166.46C718.98 1168 709.678 1169.31 705.413 1169.56C701.148 1169.81 681.155 1166.76 674.468 1164.69C667.781 1162.62 661.901 1161.33 657.568 1158.42C653.235 1155.5 647.036 1146.78 646.672 1144.58C646.308 1142.37 645.364 1135.27 646.433 1133.51C647.501 1131.75 651.186 1126.61 652.437 1125.95C653.688 1125.29 653.437 1121.02 655.313 1120.03C657.19 1119.04 661.568 1116.74 666.64 1117.26C671.712 1117.78 679.355 1120.15 683.176 1121.33C686.997 1122.51 694.049 1126.79 697.574 1128.92C701.1 1131.06 707.526 1135.67 710.756 1138.76C713.986 1141.85 720.776 1148.66 723.198 1150.98C725.136 1152.84 736.539 1160.87 741.998 1164.65Z" fill="#012627" stroke="#012627" stroke-linecap="round"/>
<path d="M751.309 1268.31C747.813 1265.96 740.115 1260.42 737.29 1257.14C733.76 1253.05 726.644 1246.91 723.193 1244.4C719.742 1241.88 701.279 1233.62 694.535 1231.75C687.792 1229.87 682.146 1227.78 676.927 1227.88C671.707 1227.99 661.776 1231.97 660.276 1233.63C658.776 1235.29 654.143 1240.74 654.088 1242.8C654.033 1244.87 654.351 1251.18 655.046 1252.41C655.741 1253.64 653.223 1257.1 654.266 1258.94C655.309 1260.79 657.742 1265.1 662.291 1267.41C666.839 1269.71 674.546 1271.86 678.4 1272.93C682.253 1274 690.497 1274.22 694.618 1274.33C698.74 1274.44 706.636 1274.04 711.025 1273.19C715.415 1272.33 724.811 1270.28 728.103 1269.64C730.737 1269.13 744.671 1268.54 751.309 1268.31Z" fill="#012627" stroke="#012627" stroke-linecap="round"/>
<path d="M498.585 802.616C494.369 802.565 484.89 802.736 480.703 803.825C475.468 805.185 466.127 806.18 461.856 806.287C457.585 806.394 437.706 802.676 431.092 800.383C424.479 798.09 418.646 796.597 414.413 793.542C410.18 790.487 404.279 781.561 403.989 779.344C403.699 777.127 402.994 770.003 404.122 768.277C405.249 766.551 409.105 761.537 410.377 760.92C411.649 760.303 411.542 756.032 413.451 755.106C415.36 754.18 419.813 752.02 424.865 752.713C429.916 753.406 437.475 756.027 441.254 757.337C445.034 758.647 451.937 763.158 455.389 765.413C458.84 767.668 465.108 772.487 468.232 775.687C471.356 778.887 477.913 785.923 480.256 788.323C482.13 790.243 493.256 798.652 498.585 802.616Z" fill="#012627" stroke="#012627" stroke-linecap="round"/>
<path d="M311.452 872.109C313.763 868.583 318.719 860.501 320.055 856.386C321.725 851.242 325.913 842.833 328.121 839.175C330.329 835.518 344.159 820.762 349.65 816.422C355.142 812.081 359.539 807.968 364.392 806.044C369.245 804.12 379.944 803.949 381.968 804.897C383.993 805.846 390.377 809.085 391.225 810.964C392.073 812.843 394.225 818.791 394.061 820.195C393.896 821.6 397.553 823.808 397.307 825.915C397.06 828.022 396.485 832.938 393.182 836.823C389.88 840.708 383.604 845.669 380.466 848.15C377.328 850.63 369.811 854.022 366.053 855.718C362.295 857.414 354.861 860.103 350.483 861.015C346.104 861.926 336.646 863.667 333.362 864.35C330.735 864.897 317.661 869.751 311.452 872.109Z" fill="#012627" stroke="#012627" stroke-linecap="round"/>
<path d="M417.975 1084.73C418.984 1080.64 420.977 1071.37 420.871 1067.04C420.739 1061.64 421.898 1052.32 422.767 1048.13C423.636 1043.95 431.783 1025.44 435.523 1019.52C439.262 1013.61 442.045 1008.27 445.984 1004.84C449.923 1001.42 459.958 997.702 462.183 997.925C464.408 998.148 471.505 999.084 472.929 1000.57C474.353 1002.07 478.356 1006.96 478.668 1008.34C478.979 1009.72 483.162 1010.59 483.628 1012.66C484.095 1014.73 485.184 1019.56 483.359 1024.32C481.533 1029.08 477.259 1035.84 475.123 1039.22C472.986 1042.6 467.022 1048.3 464.04 1051.15C461.057 1053.99 454.938 1059 451.11 1061.31C447.283 1063.62 438.938 1068.41 436.067 1070.14C433.771 1071.53 423.049 1080.45 417.975 1084.73Z" fill="#012627" stroke="#012627" stroke-linecap="round"/>
<path d="M434.026 1269.76C434.663 1265.59 435.813 1256.18 435.318 1251.88C434.699 1246.51 435.014 1237.12 435.503 1232.87C435.991 1228.63 442.439 1209.46 445.63 1203.23C448.821 1197 451.112 1191.43 454.726 1187.67C458.34 1183.9 468.001 1179.3 470.237 1179.32C472.473 1179.34 479.626 1179.63 481.178 1180.99C482.73 1182.35 487.158 1186.86 487.592 1188.21C488.027 1189.56 492.271 1190.04 492.922 1192.06C493.573 1194.08 495.093 1198.79 493.703 1203.7C492.314 1208.6 488.667 1215.73 486.843 1219.29C485.02 1222.85 479.592 1229.05 476.879 1232.16C474.165 1235.26 468.521 1240.8 464.917 1243.45C461.314 1246.09 453.433 1251.61 450.731 1253.59C448.569 1255.18 438.693 1265.03 434.026 1269.76Z" fill="#012627" stroke="#012627" stroke-linecap="round"/>
<path d="M382.873 748.379C384.567 746.005 388.535 740.782 390.854 738.888C393.752 736.521 398.123 731.712 399.928 729.371C401.732 727.03 407.778 714.412 409.199 709.782C410.621 705.152 412.17 701.286 412.193 697.674C412.217 694.063 409.644 687.121 408.524 686.053C407.404 684.986 403.715 681.682 402.29 681.606C400.866 681.531 396.492 681.635 395.627 682.093C394.763 682.552 392.422 680.747 391.125 681.435C389.828 682.122 386.803 683.726 385.126 686.83C383.449 689.934 381.825 695.225 381.012 697.87C380.2 700.516 379.898 706.213 379.747 709.062C379.596 711.91 379.727 717.378 380.237 720.43C380.748 723.482 381.998 730.017 382.38 732.306C382.687 734.137 382.837 743.784 382.873 748.379Z" fill="#012627" stroke="#012627" stroke-linecap="round"/>
<path d="M339.444 890.702C336.607 887.583 330.443 880.38 328.477 876.526C326.019 871.708 320.562 864.061 317.807 860.796C315.052 857.531 299.076 845.131 292.971 841.707C286.866 838.283 281.877 834.912 276.782 833.774C271.688 832.637 261.094 834.148 259.244 835.403C257.393 836.658 251.597 840.86 251.055 842.849C250.513 844.838 249.322 851.05 249.705 852.411C250.088 853.772 246.823 856.527 247.398 858.569C247.972 860.611 249.313 865.376 253.185 868.694C257.056 872.012 264.034 875.926 267.523 877.882C271.011 879.839 278.967 882.008 282.945 883.092C286.923 884.177 294.687 885.665 299.154 885.877C303.622 886.09 313.236 886.323 316.587 886.482C319.267 886.609 332.941 889.349 339.444 890.702Z" fill="#012627" stroke="#012627" stroke-linecap="round"/>
<path d="M231 1205.26C232.355 1201.27 235.129 1192.2 235.392 1187.88C235.72 1182.48 237.669 1173.29 238.89 1169.2C240.112 1165.11 249.805 1147.36 254.035 1141.78C258.264 1136.2 261.491 1131.12 265.707 1128.04C269.923 1124.96 280.238 1122.12 282.436 1122.53C284.634 1122.94 291.626 1124.48 292.918 1126.08C294.209 1127.69 297.782 1132.91 297.974 1134.31C298.167 1135.71 302.261 1136.93 302.55 1139.03C302.839 1141.14 303.513 1146.04 301.289 1150.63C299.065 1155.22 294.231 1161.59 291.814 1164.78C289.397 1167.97 282.97 1173.13 279.756 1175.71C276.543 1178.3 270.019 1182.76 266.009 1184.74C261.998 1186.72 253.277 1190.78 250.269 1192.26C247.863 1193.45 236.421 1201.42 231 1205.26Z" fill="#012627" stroke="#012627" stroke-linecap="round"/>
<path d="M471.111 1292.22C467.236 1290.65 458.639 1286.9 455.25 1284.4C451.014 1281.29 442.876 1276.9 439.015 1275.18C435.154 1273.47 415.481 1268.95 408.51 1268.32C401.538 1267.69 395.603 1266.7 390.501 1267.6C385.399 1268.51 376.401 1273.62 375.242 1275.34C374.082 1277.06 370.562 1282.67 370.897 1284.52C371.231 1286.37 372.732 1291.98 373.646 1292.97C374.56 1293.97 372.739 1297.45 374.11 1298.94C375.481 1300.43 378.681 1303.92 383.578 1305.27C388.476 1306.63 396.444 1307.35 400.427 1307.71C404.411 1308.07 412.542 1306.98 416.608 1306.44C420.673 1305.89 428.347 1304.31 432.495 1302.86C436.642 1301.41 445.476 1298.11 448.586 1297.02C451.075 1296.15 464.639 1293.46 471.111 1292.22Z" fill="#012627" stroke="#012627" stroke-linecap="round"/>
<path d="M543.567 1586.97C540.689 1583.69 534.441 1576.13 532.469 1572.15C530.004 1567.17 524.49 1559.19 521.698 1555.77C518.906 1552.34 502.631 1539.07 496.395 1535.33C490.158 1531.58 485.07 1527.95 479.843 1526.56C474.617 1525.17 463.698 1526.2 461.778 1527.38C459.857 1528.56 453.839 1532.52 453.255 1534.51C452.671 1536.49 451.365 1542.7 451.741 1544.09C452.118 1545.49 448.722 1548.11 449.287 1550.2C449.851 1552.29 451.168 1557.16 455.108 1560.69C459.048 1564.23 466.175 1568.51 469.739 1570.64C473.303 1572.78 481.46 1575.35 485.538 1576.63C489.617 1577.91 497.586 1579.78 502.179 1580.2C506.772 1580.63 516.661 1581.32 520.106 1581.64C522.862 1581.89 536.895 1585.3 543.567 1586.97Z" fill="#012627" stroke="#012627" stroke-linecap="round"/>
<path d="M310.234 1759.11C314.038 1757.29 322.466 1752.95 325.741 1750.12C329.836 1746.59 337.775 1741.57 341.559 1739.58C345.343 1737.6 364.818 1732.15 371.764 1731.28C378.71 1730.42 384.603 1729.18 389.75 1730.05C394.897 1730.92 404.136 1736.32 405.375 1738.18C406.615 1740.04 410.396 1746.12 410.147 1748.17C409.899 1750.21 408.656 1756.41 407.788 1757.53C406.919 1758.64 408.902 1762.43 407.6 1764.1C406.297 1765.78 403.257 1769.68 398.419 1771.29C393.581 1772.9 385.642 1773.89 381.673 1774.39C377.704 1774.88 369.518 1773.89 365.425 1773.39C361.332 1772.89 353.58 1771.34 349.363 1769.85C345.147 1768.36 336.155 1764.95 332.993 1763.83C330.463 1762.94 316.766 1760.31 310.234 1759.11Z" fill="#012627" stroke="#012627" stroke-linecap="round"/>
<path d="M6.8772 884.305C10.1786 881.682 17.4216 875.565 19.9819 872.077C23.1823 867.717 29.7983 861.048 33.0426 858.269C36.287 855.49 54.05 845.821 60.6266 843.424C67.2033 841.026 72.6692 838.502 77.8805 838.199C83.0919 837.895 93.304 841.091 94.9285 842.628C96.553 844.164 101.598 849.244 101.813 851.294C102.028 853.344 102.204 859.666 101.607 860.948C101.01 862.23 103.789 865.475 102.894 867.398C101.998 869.321 99.9084 873.808 95.5533 876.46C91.1982 879.112 83.682 881.852 79.9239 883.222C76.1658 884.592 67.9647 885.452 63.8641 885.883C59.7635 886.313 51.8609 886.533 47.4178 886.024C42.9748 885.515 33.4476 884.198 30.1153 883.816C27.4495 883.511 13.5125 884.015 6.8772 884.305Z" fill="#012627" stroke="#012627" stroke-linecap="round"/>
<path d="M213.265 1005.77C209.396 1004.09 200.815 1000.06 197.438 997.356C193.216 993.975 185.097 989.25 181.243 987.407C177.389 985.564 157.727 980.832 150.753 980.222C143.78 979.612 137.846 978.591 132.735 979.649C127.623 980.708 118.589 986.442 117.418 988.348C116.248 990.253 112.693 996.467 113.017 998.503C113.34 1000.54 114.81 1006.69 115.719 1007.77C116.628 1008.86 114.785 1012.71 116.149 1014.34C117.512 1015.96 120.694 1019.75 125.588 1021.18C130.481 1022.62 138.451 1023.31 142.436 1023.66C146.42 1024.01 154.564 1022.72 158.636 1022.07C162.708 1021.42 170.398 1019.58 174.557 1017.94C178.716 1016.3 187.576 1012.55 190.695 1011.32C193.19 1010.34 206.781 1007.21 213.265 1005.77Z" fill="#012627" stroke="#012627" stroke-linecap="round"/>
<path d="M250.494 1343.53C248.205 1339.99 243.299 1331.87 241.989 1327.75C240.352 1322.59 236.217 1314.16 234.032 1310.49C231.847 1306.82 218.111 1291.97 212.647 1287.6C207.183 1283.22 202.812 1279.08 197.971 1277.13C193.131 1275.17 182.433 1274.94 180.402 1275.87C178.371 1276.81 171.967 1280.01 171.107 1281.88C170.247 1283.75 168.058 1289.69 168.214 1291.09C168.369 1292.5 164.698 1294.68 164.932 1296.79C165.165 1298.9 165.709 1303.82 168.987 1307.73C172.265 1311.63 178.51 1316.63 181.632 1319.13C184.754 1321.63 192.249 1325.07 195.997 1326.79C199.744 1328.51 207.161 1331.25 211.533 1332.19C215.906 1333.13 225.354 1334.93 228.633 1335.63C231.256 1336.19 244.3 1341.13 250.494 1343.53Z" fill="#012627" stroke="#012627" stroke-linecap="round"/>
<path d="M278.484 621.427C278.158 617.224 277.139 607.798 275.681 603.725C273.858 598.633 272.031 589.418 271.543 585.174C271.055 580.93 272.979 560.798 274.671 554.006C276.363 547.213 277.329 541.27 279.993 536.781C282.657 532.292 291.019 525.616 293.202 525.129C295.384 524.642 302.417 523.303 304.236 524.271C306.056 525.24 311.395 528.631 312.123 529.843C312.852 531.055 317.096 530.567 318.189 532.385C319.282 534.203 321.832 538.445 321.593 543.539C321.355 548.632 319.421 556.395 318.454 560.276C317.487 564.158 313.612 571.437 311.675 575.076C309.737 578.716 305.498 585.389 302.59 588.787C299.683 592.185 293.261 599.345 291.081 601.893C289.336 603.932 281.956 615.765 278.484 621.427Z" fill="#012627" stroke="#012627" stroke-linecap="round"/>
<path d="M449.956 618.34C453.743 616.486 462.379 612.576 466.629 611.763C471.941 610.747 480.806 607.64 484.71 605.905C488.614 604.17 504.978 592.287 509.969 587.379C514.961 582.471 519.59 578.621 522.103 574.045C524.617 569.47 526.12 558.876 525.431 556.749C524.742 554.622 522.324 547.883 520.565 546.808C518.806 545.732 513.173 542.856 511.759 542.844C510.345 542.833 508.61 538.929 506.489 538.911C504.368 538.893 499.418 538.851 495.152 541.644C490.885 544.436 485.181 550.045 482.329 552.85C479.477 555.654 475.175 562.689 473.024 566.207C470.872 569.724 467.277 576.765 465.828 580.996C464.378 585.226 461.472 594.395 460.384 597.568C459.514 600.106 453.069 612.473 449.956 618.34Z" fill="#012627" stroke="#012627" stroke-linecap="round"/>
<path d="M658.224 576.869C658.214 580.413 658.422 588.372 659.331 591.855C660.468 596.209 661.34 604.026 661.458 607.61C661.575 611.195 658.724 628.019 656.923 633.65C655.122 639.282 653.961 644.231 651.527 647.887C649.094 651.542 641.937 656.791 640.15 657.106C638.363 657.422 632.621 658.246 631.22 657.354C629.819 656.463 625.746 653.387 625.238 652.338C624.731 651.289 621.286 651.517 620.525 649.944C619.764 648.37 617.988 644.698 618.51 640.431C619.031 636.164 621.09 629.728 622.119 626.51C623.148 623.292 626.735 617.345 628.529 614.372C630.323 611.399 634.164 605.976 636.723 603.247C639.281 600.518 644.909 594.781 646.828 592.734C648.363 591.097 655.065 581.475 658.224 576.869Z" fill="#012627" stroke="#012627" stroke-linecap="round"/>
<path d="M379.147 604.482C382.052 601.136 388.883 593.811 392.966 591.281C398.069 588.119 405.67 581.477 408.779 578.198C411.888 574.919 421.927 556.717 424.156 549.924C426.385 543.132 428.907 537.51 428.664 532.056C428.42 526.602 423.174 515.745 421.045 513.971C418.916 512.198 411.918 506.677 409.312 506.359C406.706 506.042 398.728 505.573 397.186 506.142C395.644 506.711 391.227 503.649 388.914 504.503C386.601 505.356 381.204 507.347 378.389 511.797C375.573 516.248 373.026 524.01 371.752 527.892C370.479 531.773 370.378 540.339 370.328 544.622C370.278 548.905 370.949 557.186 372.123 561.87C373.296 566.555 376.096 576.61 376.976 580.123C377.68 582.934 378.717 597.533 379.147 604.482Z" fill="#012627" stroke="#012627" stroke-linecap="round"/>
<path d="M794 702C792.969 700.973 790.73 698.392 790.022 696.28C789.138 693.64 786.487 690.12 786.487 687.039C786.487 683.959 784.277 675.599 783.393 674.719C782.509 673.839 777.647 665.039 774.554 662.839C771.46 660.638 764.389 655.358 762.621 655.358C760.853 655.358 754.666 652.278 751.572 653.158C748.478 654.038 744.059 655.798 743.617 657.998C743.263 659.758 743.175 660.932 743.617 661.518C742.143 661.225 740.106 661.062 737.429 662.839C734.777 664.599 734.335 666.799 733.893 668.559C733.451 670.319 732.126 675.599 733.893 679.119C735.661 682.639 738.248 686.094 740.523 688.359C742.733 690.56 746.268 692.76 749.804 694.08C753.34 695.4 765.273 699.36 768.366 699.36C771.46 699.36 777.205 699.8 781.183 700.24C784.365 700.592 791.054 701.56 794 702Z" fill="#012627" stroke="#012627" stroke-linecap="round"/>
<path d="M787.005 557C786.963 558.649 787.149 562.521 788.224 564.811C789.567 567.674 790.15 572.64 792.562 575.176C794.974 577.712 799.709 586.319 799.674 587.732C799.639 589.146 802.545 600.183 801.732 604.406C800.919 608.63 799.257 618.491 797.808 619.869C796.359 621.248 793.699 628.608 790.474 630.295C787.248 631.983 782.247 633.98 780.162 632.513C778.494 631.339 777.502 630.442 777.405 629.614C776.427 631.005 774.885 632.727 771.299 633.352C767.747 633.97 765.662 632.503 763.921 631.399C762.181 630.294 756.959 626.98 755.651 622.704C754.344 618.427 753.758 613.565 753.849 609.926C753.938 606.392 755.113 601.824 756.978 597.98C758.842 594.137 765.523 581.572 768.059 579.16C770.595 576.748 774.96 571.906 777.876 568.442C780.209 565.671 784.934 559.66 787.005 557Z" fill="#012627" stroke="#012627" stroke-linecap="round"/>
<path d="M842.681 714.37C843.962 713.329 847.139 711.11 849.608 710.56C852.695 709.873 856.982 707.299 860.463 707.657C863.945 708.016 873.651 706.503 874.748 705.611C875.845 704.718 886.356 700.272 889.202 697.047C892.048 693.822 898.836 686.479 899.041 684.489C899.246 682.5 903.445 675.896 902.809 672.312C902.173 668.727 900.696 663.549 898.261 662.795C896.312 662.192 894.996 661.956 894.282 662.385C894.784 660.761 895.205 658.488 893.507 655.268C891.825 652.079 889.389 651.325 887.451 650.623C885.513 649.921 879.698 647.814 875.514 649.393C871.33 650.973 867.125 653.481 864.301 655.777C861.558 658.008 858.661 661.731 856.759 665.556C854.857 669.381 848.997 682.349 848.638 685.83C848.279 689.312 847.116 695.726 846.157 700.151C845.39 703.691 843.52 711.106 842.681 714.37Z" fill="#012627" stroke="#012627" stroke-linecap="round"/>
<path d="M858 827.698C859.65 827.667 863.52 827.878 865.803 828.967C868.657 830.328 873.619 830.943 876.14 833.372C878.66 835.8 887.236 840.591 888.65 840.565C890.064 840.538 901.082 843.516 905.311 842.73C909.539 841.944 919.411 840.346 920.798 838.905C922.186 837.465 929.563 834.852 931.272 831.638C932.98 828.424 935.009 823.435 933.555 821.341C932.392 819.665 931.502 818.668 930.675 818.565C932.071 817.596 933.804 816.066 934.451 812.484C935.092 808.936 933.639 806.841 932.546 805.093C931.452 803.346 928.172 798.102 923.904 796.767C919.636 795.432 914.778 794.816 911.139 794.883C907.604 794.949 903.028 796.095 899.173 797.935C895.317 799.775 882.71 806.375 880.281 808.895C877.853 811.416 872.983 815.75 869.501 818.643C866.715 820.958 860.673 825.644 858 827.698Z" fill="#012627" stroke="#012627" stroke-linecap="round"/>
<path d="M881.239 1042.83C879.695 1042.25 875.976 1041.16 873.46 1041.42C870.315 1041.75 865.432 1040.68 862.246 1042.12C859.059 1043.57 849.376 1045.22 848.052 1044.73C846.728 1044.23 835.349 1043.36 831.625 1041.21C827.901 1039.06 819.129 1034.25 818.302 1032.43C817.474 1030.61 811.392 1025.69 810.855 1022.09C810.317 1018.49 810.07 1013.11 812.139 1011.62C813.795 1010.43 814.967 1009.78 815.781 1009.96C814.788 1008.58 813.666 1006.56 814.251 1002.97C814.831 999.411 816.9 997.922 818.514 996.639C820.128 995.357 824.97 991.509 829.439 991.675C833.909 991.842 838.693 992.882 842.101 994.16C845.412 995.402 849.342 998.01 852.363 1001.03C855.383 1004.05 865.064 1014.48 866.512 1017.67C867.96 1020.85 871.104 1026.57 873.421 1030.46C875.274 1033.57 879.405 1040 881.239 1042.83Z" fill="#012627" stroke="#012627" stroke-linecap="round"/>
<path d="M961.645 1096.88C960.139 1097.55 956.495 1098.87 953.967 1098.76C950.808 1098.62 946.001 1100 942.731 1098.75C939.462 1097.5 929.695 1096.44 928.404 1097.02C927.113 1097.6 915.809 1099.16 912.224 1101.54C908.639 1103.92 900.179 1109.25 899.465 1111.12C898.751 1112.99 892.983 1118.28 892.668 1121.9C892.353 1125.53 892.436 1130.91 894.593 1132.27C896.318 1133.36 897.528 1133.93 898.329 1133.7C897.423 1135.14 896.427 1137.22 897.232 1140.77C898.029 1144.29 900.186 1145.65 901.876 1146.83C903.566 1148.01 908.635 1151.56 913.085 1151.11C917.536 1150.67 922.248 1149.34 925.571 1147.86C928.798 1146.41 932.561 1143.57 935.39 1140.37C938.219 1137.17 947.242 1126.16 948.491 1122.89C949.741 1119.62 952.528 1113.73 954.601 1109.71C956.26 1106.49 959.988 1099.81 961.645 1096.88Z" fill="#012627" stroke="#012627" stroke-linecap="round"/>
<path d="M851.533 868.633C850.036 867.94 846.409 866.573 843.881 866.65C840.72 866.745 835.931 865.308 832.645 866.514C829.36 867.721 819.58 868.649 818.297 868.055C817.014 867.461 805.731 865.745 802.177 863.322C798.624 860.898 790.234 855.457 789.544 853.579C788.855 851.702 783.156 846.338 782.889 842.707C782.621 839.077 782.775 833.694 784.949 832.363C786.689 831.298 787.906 830.745 788.704 830.984C787.816 829.535 786.848 827.435 787.699 823.896C788.542 820.391 790.716 819.059 792.421 817.901C794.127 816.742 799.242 813.266 803.686 813.764C808.13 814.263 812.824 815.656 816.128 817.185C819.336 818.67 823.062 821.563 825.849 824.8C828.636 828.038 837.514 839.159 838.72 842.445C839.927 845.73 842.637 851.659 844.658 855.711C846.274 858.953 849.915 865.676 851.533 868.633Z" fill="#012627" stroke="#012627" stroke-linecap="round"/>
<path d="M622.014 977.557C623.62 977.939 627.315 979.107 629.255 980.731C631.68 982.761 636.332 984.593 638.168 987.572C640.004 990.552 647.116 997.329 648.492 997.656C649.868 997.983 659.796 1003.61 664.087 1003.9C668.378 1004.2 678.336 1005.11 680.039 1004.06C681.742 1003.01 689.537 1002.32 691.993 999.632C694.448 996.945 697.656 992.619 696.77 990.229C696.062 988.316 695.448 987.128 694.672 986.823C696.266 986.233 698.326 985.182 699.845 981.874C701.35 978.598 700.465 976.207 699.841 974.242C699.218 972.277 697.348 966.382 693.547 964.025C689.746 961.669 685.195 959.861 681.654 959.02C678.214 958.203 673.497 958.172 669.305 958.993C665.112 959.814 651.258 963.064 648.278 964.9C645.299 966.736 639.502 969.72 635.409 971.654C632.134 973.202 625.115 976.235 622.014 977.557Z" fill="#012627" stroke="#012627" stroke-linecap="round"/>
<path d="M729.909 1087.59C728.622 1086.56 725.429 1084.37 722.955 1083.83C719.864 1083.17 715.559 1080.63 712.08 1081.01C708.601 1081.39 698.884 1079.95 697.781 1079.07C696.677 1078.18 686.134 1073.81 683.266 1070.61C680.397 1067.4 673.556 1060.11 673.337 1058.12C673.118 1056.13 668.872 1049.56 669.482 1045.97C670.092 1042.38 671.532 1037.19 673.962 1036.42C675.906 1035.8 677.221 1035.56 677.938 1035.98C677.424 1034.36 676.987 1032.09 678.662 1028.86C680.321 1025.66 682.751 1024.89 684.684 1024.17C686.617 1023.45 692.416 1021.31 696.612 1022.85C700.807 1024.4 705.03 1026.88 707.871 1029.16C710.63 1031.37 713.553 1035.07 715.482 1038.88C717.412 1042.69 723.365 1055.62 723.748 1059.1C724.132 1062.58 725.342 1068.98 726.332 1073.4C727.124 1076.94 729.047 1084.34 729.909 1087.59Z" fill="#012627" stroke="#012627" stroke-linecap="round"/>
<path d="M736.011 1399.68C734.844 1398.51 732.311 1395.58 731.511 1393.18C730.511 1390.18 727.511 1386.18 727.511 1382.68C727.511 1379.18 725.011 1369.68 724.011 1368.68C723.011 1367.68 717.511 1357.68 714.011 1355.18C710.511 1352.68 702.511 1346.68 700.511 1346.68C698.511 1346.68 691.511 1343.18 688.011 1344.18C684.511 1345.18 679.511 1347.18 679.011 1349.68C678.611 1351.68 678.511 1353.01 679.011 1353.68C677.344 1353.35 675.039 1353.16 672.011 1355.18C669.011 1357.18 668.511 1359.68 668.011 1361.68C667.511 1363.68 666.011 1369.68 668.011 1373.68C670.011 1377.68 672.937 1381.61 675.511 1384.18C678.011 1386.68 682.011 1389.18 686.011 1390.68C690.011 1392.18 703.511 1396.68 707.011 1396.68C710.511 1396.68 717.011 1397.18 721.511 1397.68C725.111 1398.08 732.677 1399.18 736.011 1399.68Z" fill="#012627" stroke="#012627" stroke-linecap="round"/>
<path d="M494.158 866.407C492.605 866.965 489.064 868.54 487.317 870.37C485.134 872.658 480.716 874.998 479.224 878.164C477.733 881.331 471.423 888.86 470.092 889.338C468.761 889.817 459.525 896.52 455.293 897.29C451.061 898.06 441.267 900.079 439.458 899.227C437.649 898.375 429.824 898.558 427.084 896.162C424.344 893.766 420.673 889.826 421.286 887.351C421.776 885.372 422.254 884.123 422.99 883.733C421.341 883.324 419.177 882.51 417.297 879.393C415.435 876.305 416.048 873.83 416.448 871.808C416.848 869.786 418.048 863.718 421.562 860.952C425.075 858.186 429.396 855.881 432.821 854.649C436.148 853.453 440.832 852.895 445.09 853.243C449.348 853.59 463.478 855.272 466.644 856.764C469.811 858.255 475.904 860.572 480.188 862.038C483.615 863.21 490.929 865.439 494.158 866.407Z" fill="#012627" stroke="#012627" stroke-linecap="round"/>
<path d="M552.705 1178.21C551.574 1177.7 548.843 1176.68 546.965 1176.76C544.617 1176.86 541.021 1175.81 538.609 1176.75C536.197 1177.7 528.95 1178.49 527.981 1178.05C527.012 1177.61 518.58 1176.39 515.876 1174.57C513.173 1172.75 506.797 1168.67 506.236 1167.25C505.676 1165.82 501.303 1161.78 501.011 1159.01C500.72 1156.24 500.697 1152.14 502.279 1151.1C503.545 1150.28 504.436 1149.84 505.036 1150.02C504.339 1148.92 503.565 1147.33 504.108 1144.62C504.645 1141.94 506.228 1140.91 507.466 1140.01C508.704 1139.11 512.418 1136.42 515.735 1136.76C519.052 1137.1 522.577 1138.13 525.072 1139.27C527.495 1140.37 530.338 1142.55 532.493 1144.99C534.647 1147.44 541.531 1155.85 542.512 1158.34C543.492 1160.84 545.658 1165.34 547.264 1168.41C548.548 1170.87 551.426 1175.97 552.705 1178.21Z" fill="#012627" stroke="#012627" stroke-linecap="round"/>
<path d="M508.921 619C508.453 620.582 507.085 624.209 505.359 626.058C503.2 628.369 501.119 632.915 498.043 634.586C494.968 636.258 487.815 642.991 487.414 644.347C487.013 645.703 480.853 655.311 480.328 659.58C479.803 663.849 478.352 673.743 479.307 675.5C480.262 677.257 480.529 685.079 483.079 687.677C485.629 690.274 489.774 693.712 492.21 692.958C494.158 692.354 495.377 691.805 495.724 691.047C496.227 692.671 497.164 694.785 500.385 696.481C503.574 698.162 506.01 697.408 508.006 696.892C510.002 696.376 515.99 694.829 518.549 691.162C521.109 687.494 523.161 683.048 524.193 679.558C525.196 676.167 525.482 671.459 524.89 667.228C524.298 662.998 521.805 648.988 520.133 645.912C518.462 642.837 515.797 636.887 514.088 632.695C512.72 629.341 510.073 622.167 508.921 619Z" fill="#012627" stroke="#012627" stroke-linecap="round"/>
<path d="M319 660.332C319.814 661.034 321.601 662.817 322.237 664.337C323.031 666.238 325.173 668.691 325.342 670.965C325.511 673.238 327.594 679.288 328.292 679.89C328.99 680.491 333.045 686.721 335.439 688.176C337.834 689.631 343.32 693.142 344.619 693.046C345.918 692.949 350.634 694.885 352.86 694.066C355.085 693.248 358.236 691.707 358.44 690.059C358.604 688.741 358.604 687.87 358.247 687.461C359.346 687.597 360.852 687.606 362.722 686.148C364.574 684.704 364.778 683.056 365.006 681.733C365.235 680.41 365.919 676.44 364.427 673.938C362.935 671.436 360.844 669.027 359.048 667.479C357.303 665.976 354.584 664.545 351.914 663.764C349.243 662.983 340.256 660.712 337.983 660.881C335.709 661.05 331.463 661.039 328.515 660.931C326.158 660.845 321.189 660.496 319 660.332Z" fill="#012627" stroke="#012627" stroke-linecap="round"/>
<path d="M356.011 769.68C354.844 768.513 352.311 765.58 351.511 763.18C350.511 760.18 347.511 756.18 347.511 752.68C347.511 749.18 345.011 739.68 344.011 738.68C343.011 737.68 337.511 727.68 334.011 725.18C330.511 722.68 322.511 716.68 320.511 716.68C318.511 716.68 311.511 713.18 308.011 714.18C304.511 715.18 299.511 717.18 299.011 719.68C298.611 721.68 298.511 723.013 299.011 723.68C297.344 723.346 295.039 723.161 292.011 725.18C289.011 727.18 288.511 729.68 288.011 731.68C287.511 733.68 286.011 739.68 288.011 743.68C290.011 747.68 292.937 751.606 295.511 754.18C298.011 756.68 302.011 759.18 306.011 760.68C310.011 762.18 323.511 766.68 327.011 766.68C330.511 766.68 337.011 767.18 341.511 767.68C345.111 768.08 352.677 769.18 356.011 769.68Z" fill="#012627" stroke="#012627" stroke-linecap="round"/>
<path d="M172 938.757C173.594 938.33 177.401 937.604 179.879 938.111C182.977 938.746 187.942 938.149 190.972 939.9C194.003 941.651 203.479 944.238 204.846 943.872C206.212 943.507 217.622 943.746 221.537 941.966C225.453 940.186 234.65 936.26 235.65 934.529C236.651 932.797 243.183 928.486 244.068 924.955C244.953 921.424 245.722 916.094 243.807 914.411C242.276 913.064 241.171 912.311 240.344 912.41C241.466 911.134 242.78 909.231 242.546 905.598C242.315 902 240.401 900.317 238.919 898.883C237.437 897.45 232.992 893.15 228.528 892.881C224.064 892.612 219.201 893.182 215.685 894.123C212.269 895.037 208.104 897.25 204.804 899.963C201.504 902.677 190.855 912.115 189.104 915.146C187.353 918.177 183.669 923.555 180.985 927.201C178.838 930.119 174.1 936.12 172 938.757Z" fill="#012627" stroke="#012627" stroke-linecap="round"/>
<path d="M400.67 1187.68C399.028 1187.85 395.21 1188.51 393.072 1189.87C390.399 1191.55 385.545 1192.75 383.329 1195.46C381.114 1198.17 373.165 1203.94 371.758 1204.09C370.351 1204.23 359.763 1208.49 355.471 1208.21C351.179 1207.93 341.188 1207.51 339.639 1206.24C338.091 1204.98 330.456 1203.26 328.38 1200.27C326.303 1197.28 323.698 1192.56 324.894 1190.31C325.85 1188.51 326.616 1187.41 327.425 1187.21C325.924 1186.42 324.022 1185.1 322.956 1181.62C321.899 1178.18 323.094 1175.92 323.973 1174.06C324.852 1172.19 327.489 1166.6 331.569 1164.77C335.649 1162.94 340.399 1161.75 344.021 1161.39C347.539 1161.03 352.218 1161.63 356.264 1163C360.311 1164.37 373.61 1169.43 376.32 1171.65C379.03 1173.86 384.378 1177.59 388.179 1180.05C391.219 1182.02 397.773 1185.96 400.67 1187.68Z" fill="#012627" stroke="#012627" stroke-linecap="round"/>
<path d="M368.84 1516.77C370.296 1515.99 373.839 1514.42 376.368 1514.35C379.529 1514.26 384.228 1512.56 387.577 1513.57C390.926 1514.59 400.742 1514.96 401.99 1514.29C403.237 1513.63 414.404 1511.27 417.813 1508.65C421.222 1506.02 429.288 1500.11 429.869 1498.2C430.45 1496.29 435.833 1490.6 435.893 1486.96C435.953 1483.33 435.492 1477.96 433.246 1476.75C431.448 1475.79 430.201 1475.31 429.418 1475.59C430.221 1474.09 431.069 1471.94 430.017 1468.46C428.975 1465.01 426.728 1463.8 424.96 1462.74C423.191 1461.68 417.886 1458.5 413.477 1459.26C409.069 1460.01 404.462 1461.67 401.251 1463.38C398.133 1465.05 394.578 1468.15 391.981 1471.54C389.383 1474.93 381.155 1486.54 380.138 1489.89C379.121 1493.24 376.753 1499.31 374.967 1503.47C373.539 1506.8 370.287 1513.72 368.84 1516.77Z" fill="#012627" stroke="#012627" stroke-linecap="round"/>
<path d="M440.011 1845.68C438.844 1844.51 436.311 1841.58 435.511 1839.18C434.511 1836.18 431.511 1832.18 431.511 1828.68C431.511 1825.18 429.011 1815.68 428.011 1814.68C427.011 1813.68 421.511 1803.68 418.011 1801.18C414.511 1798.68 406.511 1792.68 404.511 1792.68C402.511 1792.68 395.511 1789.18 392.011 1790.18C388.511 1791.18 383.511 1793.18 383.011 1795.68C382.611 1797.68 382.511 1799.01 383.011 1799.68C381.344 1799.35 379.039 1799.16 376.011 1801.18C373.011 1803.18 372.511 1805.68 372.011 1807.68C371.511 1809.68 370.011 1815.68 372.011 1819.68C374.011 1823.68 376.937 1827.61 379.511 1830.18C382.011 1832.68 386.011 1835.18 390.011 1836.68C394.011 1838.18 407.511 1842.68 411.011 1842.68C414.511 1842.68 421.011 1843.18 425.511 1843.68C429.111 1844.08 436.677 1845.18 440.011 1845.68Z" fill="#012627" stroke="#012627" stroke-linecap="round"/>
<path d="M216.979 583C217.761 584.452 219.346 587.989 219.424 590.518C219.521 593.679 221.247 598.371 220.242 601.724C219.238 605.077 218.907 614.895 219.578 616.14C220.249 617.385 222.648 628.542 225.283 631.942C227.918 635.341 233.86 643.384 235.776 643.958C237.692 644.532 243.393 649.894 247.033 649.94C250.672 649.987 256.036 649.506 257.232 647.254C258.19 645.453 258.668 644.205 258.38 643.423C259.881 644.22 262.036 645.059 265.516 643.994C268.964 642.939 270.161 640.688 271.213 638.916C272.266 637.143 275.425 631.826 274.657 627.42C273.889 623.015 272.213 618.414 270.486 615.21C268.808 612.098 265.694 608.555 262.293 605.97C258.891 603.385 247.251 595.2 243.898 594.196C240.545 593.192 234.462 590.847 230.295 589.077C226.961 587.661 220.028 584.436 216.979 583Z" fill="#012627" stroke="#012627" stroke-linecap="round"/>
<path d="M178.476 833.587C177.097 832.68 173.713 830.792 171.2 830.493C168.06 830.12 163.537 827.99 160.109 828.698C156.681 829.405 146.872 828.876 145.69 828.099C144.509 827.321 133.604 823.955 130.448 821.033C127.293 818.11 119.8 811.488 119.396 809.529C118.992 807.57 114.149 801.422 114.421 797.792C114.694 794.162 115.642 788.861 117.989 787.866C119.867 787.07 121.153 786.703 121.907 787.058C121.244 785.493 120.596 783.273 121.962 779.899C123.314 776.557 125.662 775.562 127.519 774.668C129.377 773.774 134.95 771.093 139.272 772.244C143.593 773.394 148.03 775.466 151.071 777.467C154.024 779.41 157.281 782.823 159.558 786.437C161.835 790.052 168.97 802.364 169.678 805.792C170.385 809.219 172.188 815.484 173.587 819.79C174.706 823.235 177.312 830.424 178.476 833.587Z" fill="#012627" stroke="#012627" stroke-linecap="round"/>
<path d="M37 996.22C38.5565 995.673 42.297 994.658 44.8069 994.975C47.9443 995.371 52.8484 994.396 56.004 995.91C59.1596 997.424 68.8062 999.28 70.1404 998.811C71.4746 998.342 82.8697 997.708 86.6377 995.634C90.4057 993.56 99.2758 988.943 100.141 987.139C101.006 985.336 107.19 980.539 107.802 976.951C108.414 973.363 108.774 967.99 106.736 966.457C105.106 965.232 103.947 964.565 103.13 964.727C104.151 963.369 105.316 961.371 104.805 957.767C104.3 954.197 102.262 952.665 100.675 951.349C99.0884 950.033 94.3277 946.085 89.8561 946.158C85.3846 946.231 80.5791 947.171 77.1451 948.378C73.8096 949.551 69.8254 952.076 66.7427 955.033C63.66 957.991 53.7632 968.216 52.2492 971.372C50.7352 974.527 47.4727 980.171 45.0754 984.012C43.1575 987.085 38.8927 993.431 37 996.22Z" fill="#012627" stroke="#012627" stroke-linecap="round"/>
<path d="M244 1108.79C242.051 1108.97 237.569 1109.7 235.237 1111.24C232.322 1113.16 226.687 1114.5 224.509 1117.61C222.33 1120.71 213.797 1127.29 212.126 1127.44C210.456 1127.59 198.466 1132.41 193.241 1132.05C188.016 1131.69 175.895 1131.12 173.798 1129.65C171.701 1128.18 162.185 1126.13 159.138 1122.67C156.091 1119.2 152.094 1113.75 153.126 1111.17C153.952 1109.1 154.677 1107.84 155.616 1107.62C153.661 1106.69 151.129 1105.16 149.211 1101.14C147.311 1097.16 148.343 1094.57 149.063 1092.43C149.784 1090.29 151.946 1083.87 156.532 1081.79C161.118 1079.72 166.629 1078.39 170.929 1078C175.106 1077.63 180.855 1078.36 185.982 1079.97C191.109 1081.58 208.062 1087.53 211.731 1090.11C215.4 1092.68 222.526 1097.02 227.554 1099.89C231.577 1102.19 240.194 1106.78 244 1108.79Z" fill="#012627" stroke="#012627" stroke-linecap="round"/>
<path d="M83 1273.64C85.0311 1272.87 89.8479 1270.69 92.8657 1268.16C96.6379 1265 102.877 1261.76 106.431 1257.38C109.986 1253.01 121.448 1242.6 123.189 1241.94C124.93 1241.27 139.075 1232.01 144.153 1230.94C149.231 1229.88 161.128 1227.08 162.579 1228.26C164.03 1229.44 172.662 1229.19 174.186 1232.5C175.709 1235.81 177.305 1241.26 175.128 1244.68C173.387 1247.42 172.106 1249.14 171.066 1249.68C172.614 1250.25 174.474 1251.37 174.621 1255.68C174.766 1259.95 172.589 1263.37 170.921 1266.17C169.252 1268.96 164.247 1277.35 158.733 1281.18C153.22 1285 147.11 1288.19 142.629 1289.89C138.277 1291.54 132.836 1292.32 128.411 1291.84C123.986 1291.36 109.623 1289.03 107.084 1286.97C104.545 1284.91 99.3218 1281.7 95.5496 1279.68C92.5319 1278.06 85.9258 1274.98 83 1273.64Z" fill="#012627" stroke="#012627" stroke-linecap="round"/>
<path d="M520 647C521.319 645.952 524.182 643.318 525.086 641.163C526.216 638.469 529.607 634.877 529.607 631.734C529.607 628.591 532.433 620.06 533.563 619.162C534.693 618.264 540.91 609.284 544.866 607.039C548.822 604.794 557.864 599.406 560.124 599.406C562.385 599.406 570.296 596.263 574.252 597.161C578.208 598.059 583.86 599.855 584.425 602.1C584.877 603.896 584.99 605.094 584.425 605.692C586.308 605.393 588.913 605.226 592.337 607.039C595.727 608.835 596.292 611.08 596.858 612.876C597.423 614.672 599.118 620.06 596.858 623.652C594.597 627.244 591.29 630.77 588.381 633.081C585.555 635.326 581.034 637.571 576.513 638.918C571.992 640.265 556.733 644.306 552.778 644.306C548.822 644.306 541.475 644.755 536.389 645.204C532.32 645.563 523.768 646.551 520 647Z" fill="#012627" stroke="#012627" stroke-linecap="round"/>
<path d="M171 539.628C172.474 540.37 175.799 542.361 177.31 544.39C179.2 546.925 183.303 549.784 184.399 553.107C185.496 556.431 190.848 564.669 192.111 565.305C193.374 565.941 201.731 573.714 205.838 574.991C209.945 576.268 219.422 579.459 221.321 578.832C223.221 578.205 230.965 579.335 233.975 577.289C236.986 575.242 241.107 571.776 240.798 569.245C240.551 567.221 240.228 565.923 239.545 565.447C241.232 565.241 243.479 564.695 245.722 561.829C247.944 558.989 247.635 556.458 247.483 554.402C247.331 552.347 246.875 546.179 243.723 543.007C240.57 539.835 236.561 537.024 233.31 535.386C230.152 533.796 225.57 532.675 221.302 532.504C217.033 532.334 202.803 532.291 199.479 533.388C196.156 534.485 189.826 536.047 185.396 536.983C181.852 537.731 174.322 539.058 171 539.628Z" fill="#012627" stroke="#012627" stroke-linecap="round"/>
<path d="M449.945 443C450.044 444.647 449.993 448.523 448.999 450.849C447.756 453.757 447.347 458.74 445.024 461.359C442.702 463.977 438.269 472.743 438.353 474.155C438.438 475.567 435.917 486.698 436.877 490.89C437.837 495.083 439.841 504.88 441.337 506.207C442.833 507.534 445.748 514.798 449.03 516.372C452.312 517.946 457.38 519.767 459.413 518.229C461.039 516.998 461.999 516.067 462.067 515.236C463.093 516.591 464.694 518.26 468.299 518.759C471.871 519.253 473.904 517.714 475.605 516.55C477.306 515.385 482.409 511.892 483.567 507.572C484.725 503.252 485.141 498.374 484.923 494.74C484.712 491.211 483.378 486.686 481.381 482.91C479.383 479.134 472.269 466.809 469.651 464.487C467.032 462.165 462.501 457.478 459.466 454.118C457.038 451.43 452.107 445.586 449.945 443Z" fill="#012627" stroke="#012627" stroke-linecap="round"/>
<path d="M896.987 592.159C896.246 592.734 894.403 594.352 892.956 596.228C891.148 598.574 889.131 599.257 887.789 601.965C886.447 604.673 884.934 607.226 883.658 609.258C881.696 612.385 879.475 615.46 877.924 616.505C875.442 618.177 872.758 623.594 869.81 624.903C866.862 626.213 861.227 630.235 858.692 630.815C856.157 631.396 855.588 631.554 852.224 630.889C848.86 630.224 845.857 629.09 843.785 627.328C842.077 625.877 840.003 623.337 838.758 621.469C837.775 619.992 836.059 614.718 836.107 611.754C836.138 609.879 838.02 604.63 839.511 602.695C841.319 600.349 845.299 596.54 847.057 595.807C848.816 595.073 854.814 591.933 858.228 590.986C861.642 590.039 868.367 588.665 871.058 588.656C873.749 588.647 876.58 588.321 880.01 588.263C883.787 588.199 886.577 588.75 888.963 589.222C891.551 589.733 895.055 591.507 896.987 592.159Z" fill="#012627" stroke="#012627" stroke-linecap="round"/>
<path d="M909 1205.26C908.22 1204.33 906.324 1201.78 904.986 1198.99C903.314 1195.51 900.973 1194.12 899.97 1190.29C898.966 1186.46 897.712 1182.79 896.625 1179.85C894.953 1175.33 892.946 1170.8 891.274 1169.06C888.598 1166.28 886.591 1158.62 883.247 1156.18C879.902 1153.75 873.882 1147.13 870.872 1145.74C867.862 1144.35 867.193 1144 862.845 1144C858.497 1144 854.483 1144.7 851.473 1146.44C848.992 1147.87 845.787 1150.61 843.781 1152.7C842.194 1154.35 838.764 1160.71 838.095 1164.54C837.672 1166.96 838.723 1174.2 840.102 1177.07C841.774 1180.55 845.787 1186.46 847.794 1187.86C849.801 1189.25 856.49 1194.82 860.503 1196.91C864.517 1198.99 872.544 1202.48 875.889 1203.17C879.233 1203.87 882.674 1205.01 886.926 1205.96C891.608 1207 895.214 1207 898.297 1207C901.642 1207 906.436 1205.61 909 1205.26Z" fill="#012627" stroke="#012627" stroke-linecap="round"/>
<path d="M740.165 625.155C739.467 625.855 737.741 627.802 736.423 629.996C734.775 632.738 732.822 633.677 731.656 636.772C730.49 639.867 729.147 642.808 728.006 645.156C726.252 648.768 724.24 652.348 722.769 653.64C720.415 655.708 718.084 661.898 715.248 663.612C712.413 665.326 707.082 670.268 704.611 671.143C702.141 672.019 701.588 672.246 698.223 671.835C694.859 671.425 691.825 670.466 689.673 668.732C687.899 667.302 685.698 664.715 684.358 662.785C683.298 661.26 681.29 655.641 681.162 652.388C681.08 650.331 682.63 644.399 683.988 642.138C685.636 639.396 689.343 634.845 691.038 633.875C692.732 632.904 698.474 628.896 701.792 627.535C705.11 626.174 711.674 624.032 714.333 623.768C716.992 623.504 719.77 622.879 723.156 622.49C726.885 622.062 729.675 622.403 732.061 622.694C734.649 623.01 738.217 624.623 740.165 625.155Z" fill="#012627" stroke="#012627" stroke-linecap="round"/>
<path d="M583.479 1234.2C584.456 1233.72 587.081 1232.64 589.769 1232.1C593.129 1231.42 594.875 1229.67 598.37 1229.67C601.866 1229.67 605.287 1229.41 608.049 1229.12C612.297 1228.69 616.625 1227.96 618.506 1226.88C621.516 1225.16 628.506 1225.15 631.381 1222.76C634.256 1220.36 641.324 1216.57 643.231 1214.23C645.138 1211.88 645.594 1211.37 646.64 1207.53C647.685 1203.68 648.058 1199.97 647.303 1196.91C646.68 1194.38 645.12 1190.91 643.827 1188.66C642.805 1186.87 638.229 1182.37 635.136 1180.89C633.18 1179.96 626.775 1179.22 624.004 1179.77C620.644 1180.45 614.65 1182.63 612.984 1184.08C611.319 1185.54 604.977 1190.17 602.238 1193.24C599.498 1196.3 594.61 1202.6 593.214 1205.4C591.818 1208.19 590.022 1210.97 588.194 1214.51C586.181 1218.42 585.314 1221.6 584.573 1224.33C583.769 1227.29 583.8 1231.85 583.479 1234.2Z" fill="#012627" stroke="#012627" stroke-linecap="round"/>
<path d="M568.219 1072.92C567.128 1072.68 564.243 1072.22 561.427 1072.33C557.907 1072.46 555.74 1071.13 552.248 1071.96C548.755 1072.8 545.274 1073.36 542.447 1073.74C538.099 1074.32 533.599 1074.63 531.459 1074.01C528.036 1073.01 521.051 1074.68 517.6 1072.97C514.149 1071.26 506.171 1069.16 503.7 1067.28C501.23 1065.39 500.65 1064.99 498.677 1061.39C496.703 1057.79 495.434 1054.17 495.448 1050.92C495.46 1048.25 496.181 1044.4 496.927 1041.83C497.516 1039.8 501 1034.2 503.733 1031.98C505.462 1030.58 511.681 1028.29 514.584 1028.19C518.104 1028.06 524.619 1028.8 526.634 1029.86C528.649 1030.91 536.103 1034.02 539.581 1036.43C543.059 1038.84 549.464 1043.97 551.534 1046.43C553.604 1048.9 556.07 1051.25 558.752 1054.35C561.706 1057.77 563.342 1060.76 564.742 1063.31C566.26 1066.08 567.331 1070.65 568.219 1072.92Z" fill="#012627" stroke="#012627" stroke-linecap="round"/>
<path d="M324.544 1003.99C323.372 1003.53 320.24 1002.51 317.092 1002.14C313.156 1001.67 310.967 999.802 306.945 1000.13C302.924 1000.46 298.96 1000.48 295.753 1000.41C290.821 1000.31 285.767 999.866 283.491 998.792C279.851 997.074 271.808 997.727 268.254 995.215C264.7 992.702 256.177 988.956 253.743 986.416C251.308 983.875 250.73 983.324 249.132 978.953C247.534 974.582 246.723 970.304 247.277 966.671C247.733 963.677 249.172 959.498 250.427 956.752C251.419 954.581 256.221 948.916 259.628 946.908C261.783 945.638 269.076 944.169 272.321 944.554C276.257 945.021 283.378 946.992 285.444 948.524C287.509 950.056 295.282 954.838 298.749 958.145C302.217 961.451 308.488 968.307 310.382 971.427C312.275 974.546 314.628 977.608 317.095 981.551C319.813 985.894 321.138 989.519 322.271 992.619C323.5 995.982 323.934 1001.29 324.544 1003.99Z" fill="#012627" stroke="#012627" stroke-linecap="round"/>
<path d="M318.092 1437.79C319.307 1436.72 322.619 1434.17 326.137 1432.47C330.535 1430.34 332.509 1427 337.24 1425.91C341.97 1424.81 346.544 1423.33 350.22 1422.02C355.873 1420 361.569 1417.49 363.875 1415.18C367.566 1411.49 377.027 1409.3 380.385 1404.58C383.743 1399.85 392.464 1391.59 394.524 1387.25C396.584 1382.92 397.089 1381.96 397.647 1375.49C398.206 1369.03 397.885 1362.98 396.18 1358.33C394.774 1354.49 391.89 1349.44 389.638 1346.23C387.857 1343.7 380.661 1337.94 376.145 1336.55C373.289 1335.67 364.454 1336.48 360.827 1338.23C356.429 1340.36 348.802 1345.71 346.871 1348.56C344.94 1351.4 337.387 1360.77 334.361 1366.52C331.336 1372.27 326.121 1383.85 324.855 1388.75C323.589 1393.66 321.776 1398.66 320.091 1404.88C318.234 1411.74 317.771 1417.1 317.375 1421.69C316.945 1426.66 318.003 1433.94 318.092 1437.79Z" fill="#012627" stroke="#012627" stroke-linecap="round"/>
<path d="M542.142 1752C540.975 1750.67 538.142 1747 536.142 1743C533.642 1738 530.142 1736 528.642 1730.5C527.142 1725 525.267 1719.73 523.642 1715.5C521.142 1709 518.142 1702.5 515.642 1700C511.642 1696 508.642 1685 503.642 1681.5C498.642 1678 489.642 1668.5 485.142 1666.5C480.642 1664.5 479.642 1664 473.142 1664C466.642 1664 460.642 1665 456.142 1667.5C452.433 1669.56 447.642 1673.5 444.642 1676.5C442.27 1678.87 437.142 1688 436.142 1693.5C435.509 1696.98 437.08 1707.38 439.142 1711.5C441.642 1716.5 447.642 1725 450.642 1727C453.642 1729 463.642 1737 469.642 1740C475.642 1743 487.642 1748 492.642 1749C497.642 1750 502.786 1751.64 509.142 1753C516.142 1754.5 521.532 1754.5 526.142 1754.5C531.142 1754.5 538.308 1752.5 542.142 1752Z" fill="#012627" stroke="#012627" stroke-linecap="round"/>
<path d="M214.483 739.887C214.363 738.895 214.208 736.285 214.547 733.786C214.972 730.663 213.976 728.615 215.026 725.579C216.076 722.542 216.88 719.49 217.466 717.006C218.368 713.185 219.037 709.204 218.666 707.244C218.073 704.106 220.174 698.033 218.955 694.809C217.736 691.585 216.56 684.294 215.097 681.927C213.634 679.561 213.327 679.009 210.294 676.934C207.262 674.859 204.144 673.409 201.249 673.136C198.864 672.91 195.375 673.213 193.02 673.651C191.159 673.997 185.862 676.605 183.645 678.844C182.243 680.26 179.667 685.598 179.317 688.173C178.892 691.297 178.987 697.165 179.75 699.053C180.513 700.941 182.633 707.854 184.477 711.164C186.322 714.475 190.329 720.631 192.344 722.692C194.358 724.753 196.237 727.157 198.769 729.819C201.557 732.751 204.072 734.471 206.222 735.943C208.555 737.539 212.535 738.896 214.483 739.887Z" fill="#012627" stroke="#012627" stroke-linecap="round"/>
<path d="M161 934.674C160.308 933.967 158.626 932.022 157.439 929.901C155.955 927.249 153.877 926.188 152.987 923.271C152.097 920.354 150.984 917.556 150.019 915.315C148.536 911.867 146.755 908.42 145.271 907.094C142.897 904.972 141.116 899.138 138.148 897.282C135.181 895.425 129.839 890.387 127.168 889.326C124.497 888.265 123.903 888 120.045 888C116.187 888 112.626 888.53 109.955 889.856C107.754 890.949 104.91 893.039 103.129 894.63C101.722 895.888 98.6777 900.729 98.0841 903.646C97.7087 905.491 98.6411 911.007 99.8647 913.193C101.349 915.845 104.91 920.354 106.691 921.414C108.471 922.475 114.407 926.718 117.968 928.309C121.529 929.901 128.652 932.552 131.619 933.083C134.587 933.613 137.641 934.482 141.413 935.204C145.568 936 148.767 936 151.503 936C154.471 936 158.725 934.939 161 934.674Z" fill="#012627" stroke="#012627" stroke-linecap="round"/>
<path d="M63.3818 1197.29C64.8408 1196.95 68.6209 1196.33 72.0695 1196.51C76.3803 1196.73 79.6518 1194.86 83.6201 1196.09C87.5885 1197.31 91.6638 1198.14 95.0054 1198.71C100.145 1199.59 105.595 1200.08 108.524 1199.21C113.21 1197.82 121.147 1200.27 126.175 1197.88C131.204 1195.48 142.025 1192.58 145.915 1189.92C149.805 1187.27 150.701 1186.7 154.723 1181.61C158.745 1176.51 161.906 1171.37 163.309 1166.75C164.465 1162.95 165.252 1157.47 165.451 1153.81C165.607 1150.92 163.735 1142.92 161.314 1139.73C159.783 1137.72 153.063 1134.41 149.508 1134.23C145.197 1134.01 136.786 1135 133.824 1136.48C130.862 1137.96 120.252 1142.3 114.881 1145.7C109.509 1149.09 99.3195 1156.31 95.6726 1159.8C92.0256 1163.28 87.9367 1166.6 83.2508 1170.98C78.0898 1175.82 74.7541 1180.04 71.9014 1183.65C68.8072 1187.57 65.4777 1194.06 63.3818 1197.29Z" fill="#012627" stroke="#012627" stroke-linecap="round"/>
<path d="M70 1391.26C71.0002 1390.33 73.4294 1387.78 75.1441 1384.99C77.2874 1381.51 80.2881 1380.12 81.5742 1376.29C82.8602 1372.46 84.4674 1368.79 85.8609 1365.85C88.0042 1361.33 90.5762 1356.8 92.7196 1355.06C96.149 1352.28 98.721 1344.62 103.008 1342.18C107.294 1339.75 115.011 1333.13 118.869 1331.74C122.727 1330.35 123.584 1330 129.157 1330C134.73 1330 139.874 1330.7 143.732 1332.44C146.911 1333.87 151.019 1336.61 153.591 1338.7C155.624 1340.35 160.021 1346.71 160.879 1350.54C161.421 1352.96 160.074 1360.2 158.306 1363.07C156.163 1366.55 151.019 1372.46 148.447 1373.86C145.875 1375.25 137.302 1380.82 132.157 1382.91C127.013 1384.99 116.725 1388.48 112.439 1389.17C108.152 1389.87 103.741 1391.01 98.2924 1391.96C92.291 1393 87.6697 1393 83.7175 1393C79.4308 1393 73.2865 1391.61 70 1391.26Z" fill="#012627" stroke="#012627" stroke-linecap="round"/>
<path d="M541.5 730C527.822 706.09 478 685.5 457.5 681.5C411.606 672.545 308.827 688.123 274.918 750.795C254.4 788.716 237.78 887.652 243.892 951.821C256.902 1088.43 367.981 1262.66 391 1338.5C414.019 1414.34 457.5 1541.55 457.5 1595C457.5 1670.21 415.582 1779.5 338.5 1837.5" stroke="#012627" stroke-width="6" stroke-linecap="round"/>
<path d="M409.445 727C409.06 725.499 408.675 722.996 409.445 720.995C410.214 718.993 414.064 714.489 415.989 712.237C417.914 709.985 420.608 704.981 424.458 702.979C428.308 700.977 434.467 697.474 439.087 697.224C443.706 696.974 447.171 696.723 450.251 697.724C453.331 698.725 456.025 700.226 456.795 702.478C457.565 704.73 456.025 707.483 454.485 709.735C450.251 712.737 448.711 714.239 445.631 715.24C442.552 716.241 440.242 717.992 436.777 718.493C433.312 718.993 431.772 719.243 427.538 719.744C423.303 720.244 419.839 721.745 417.144 723.247C414.988 724.448 411.113 726.249 409.445 727Z" fill="#012627" stroke="#012627" stroke-linecap="round"/>
<path d="M726.577 821.947C726.077 818.947 725.577 813.947 726.577 809.947C727.577 805.947 732.577 796.947 735.077 792.447C737.577 787.947 741.077 777.947 746.077 773.947C751.077 769.947 759.077 762.947 765.077 762.447C771.077 761.947 775.577 761.447 779.577 763.447C783.577 765.447 787.077 768.447 788.077 772.947C789.077 777.447 787.077 782.947 785.077 787.447C779.577 793.447 777.577 796.447 773.577 798.447C769.577 800.447 766.577 803.947 762.077 804.947C757.577 805.947 755.577 806.447 750.077 807.447C744.577 808.447 740.077 811.447 736.577 814.447C733.777 816.847 728.744 820.447 726.577 821.947Z" fill="#012627" stroke="#012627" stroke-linecap="round"/>
<path d="M702.577 761.947C702.077 758.947 701.577 753.947 702.577 749.947C703.577 745.947 708.577 736.947 711.077 732.447C713.577 727.947 717.077 717.947 722.077 713.947C727.077 709.947 735.077 702.947 741.077 702.447C747.077 701.947 751.577 701.447 755.577 703.447C759.577 705.447 763.077 708.447 764.077 712.947C765.077 717.447 763.077 722.947 761.077 727.447C755.577 733.447 753.577 736.447 749.577 738.447C745.577 740.447 742.577 743.947 738.077 744.947C733.577 745.947 731.577 746.447 726.077 747.447C720.577 748.447 716.077 751.447 712.577 754.447C709.777 756.847 704.744 760.447 702.577 761.947Z" fill="#012627" stroke="#012627" stroke-linecap="round"/>
<path d="M494 721C494 714.373 499.373 709 506 709H588C594.627 709 600 714.373 600 721V753C600 759.627 594.627 765 588 765H506C499.373 765 494 759.627 494 753V721Z" fill="#473B2F"/>
<path d="M679 716C679 712.134 682.134 709 686 709H709C712.866 709 716 712.134 716 716V716C716 719.866 712.866 723 709 723H686C682.134 723 679 719.866 679 716V716Z" fill="#473B2F"/>
<line x1="557.995" y1="4.00497" x2="557.005" y2="800.005" stroke="#473B2F" stroke-width="8" stroke-linecap="round"/>
</svg>
