<svg width="866" height="652" viewBox="0 0 866 652" fill="none" xmlns="http://www.w3.org/2000/svg">
<mask id="path-1-inside-1_97_388" fill="white">
<path d="M866 574C866 582.837 858.837 590 850 590H16C7.16345 590 0 582.837 0 574V558H866V574Z"/>
</mask>
<path d="M866 574C866 582.837 858.837 590 850 590H16C7.16345 590 0 582.837 0 574V558H866V574Z" fill="#E9E9E9"/>
<path d="M16 590L16 592H16V590ZM0 558V556H-2V558H0ZM866 558H868V556H866V558ZM866 574H864C864 581.732 857.732 588 850 588V590V592C859.941 592 868 583.941 868 574H866ZM850 590V588H16V590V592H850V590ZM16 590L16 588C8.26802 588 2 581.732 2 574H0H-2C-2 583.941 6.05888 592 16 592L16 590ZM0 574H2V558H0H-2V574H0ZM0 558V560H866V558V556H0V558ZM866 558H864V574H866H868V558H866Z" fill="#5F5F5F" mask="url(#path-1-inside-1_97_388)"/>
<mask id="path-3-inside-2_97_388" fill="white">
<path d="M866 559.505H0L74.0254 463.505H74V15.9316C74 7.13296 81.1634 0 90 0H777.836C786.672 0 793.836 7.13296 793.836 15.9316V232.001H794V463.505L866 559.505Z"/>
</mask>
<path d="M866 559.505H0L74.0254 463.505H74V15.9316C74 7.13296 81.1634 0 90 0H777.836C786.672 0 793.836 7.13296 793.836 15.9316V232.001H794V463.505L866 559.505Z" fill="#F8F8F8"/>
<path d="M866 559.505V561.505H870L867.6 558.305L866 559.505ZM0 559.505L-1.58382 558.284L-4.06774 561.505H0V559.505ZM74.0254 463.505L75.6092 464.726L78.0931 461.505H74.0254V463.505ZM74 463.505H72V465.505H74V463.505ZM793.836 232.001H791.836V234.001H793.836V232.001ZM794 232.001H796V230.001H794V232.001ZM794 463.505H792V464.172L792.4 464.705L794 463.505ZM866 559.505V557.505H0V559.505V561.505H866V559.505ZM0 559.505L1.58382 560.726L75.6092 464.726L74.0254 463.505L72.4416 462.284L-1.58382 558.284L0 559.505ZM74.0254 463.505V461.505H74V463.505V465.505H74.0254V463.505ZM74 463.505H76V15.9316H74H72V463.505H74ZM74 15.9316H76C76 8.24558 82.2599 2 90 2V0V-2C80.0669 -2 72 6.02034 72 15.9316H74ZM90 0V2H777.836V0V-2H90V0ZM777.836 0V2C785.576 2 791.836 8.24558 791.836 15.9316H793.836H795.836C795.836 6.02034 787.769 -2 777.836 -2V0ZM793.836 15.9316H791.836V232.001H793.836H795.836V15.9316H793.836ZM793.836 232.001V234.001H794V232.001V230.001H793.836V232.001ZM794 232.001H792V463.505H794H796V232.001H794ZM794 463.505L792.4 464.705L864.4 560.705L866 559.505L867.6 558.305L795.6 462.305L794 463.505Z" fill="#5F5F5F" mask="url(#path-3-inside-2_97_388)"/>
<path d="M557.236 545H298.875C290.82 545 285.496 536.627 288.914 529.333L302.971 499.333C304.781 495.469 308.664 493 312.932 493L543.374 493C547.663 493 551.56 495.493 553.359 499.386L567.222 529.386C570.59 536.675 565.266 545 557.236 545Z" fill="#E9E9E9" stroke="#5F5F5F" stroke-width="2"/>
<path d="M74 465L794 464" stroke="#5F5F5F" stroke-width="2"/>
<path d="M106 44C106 37.3726 111.373 32 118 32H750C756.627 32 762 37.3726 762 44V421C762 427.627 756.627 433 750 433H118C111.373 433 106 427.627 106 421V44Z" fill="#1E2E46"/>
<path d="M106 63.9111L761.999 63" stroke="#5F5F5F" stroke-width="2"/>
<circle cx="123" cy="49" r="6" fill="#FF605C"/>
<circle cx="140" cy="49" r="6" fill="#FFBD44"/>
<circle cx="157" cy="49" r="6" fill="#00CA4E"/>
<rect x="143" y="74" width="339" height="12" fill="#5F5F5F" fill-opacity="0.4"/>
<path d="M119.425 87C119.145 87 118.912 86.9067 118.725 86.72C118.552 86.5333 118.465 86.3067 118.465 86.04C118.465 85.7733 118.552 85.5467 118.725 85.36C118.912 85.1733 119.145 85.08 119.425 85.08H120.585L120.725 77.26L120.065 77.96C119.878 78.1467 119.645 78.24 119.365 78.24C119.098 78.24 118.872 78.1467 118.685 77.96C118.498 77.7733 118.405 77.5467 118.405 77.28C118.405 77.0533 118.492 76.84 118.665 76.64L121.005 74.1C121.085 74.02 121.192 73.9533 121.325 73.9C121.458 73.8333 121.578 73.8 121.685 73.8C121.978 73.8 122.212 73.9 122.385 74.1C122.572 74.2867 122.665 74.5067 122.665 74.76L122.525 85.08H123.345C123.652 85.08 123.892 85.1733 124.065 85.36C124.252 85.5467 124.345 85.7733 124.345 86.04C124.345 86.3067 124.245 86.5333 124.045 86.72C123.858 86.9067 123.638 87 123.385 87H119.425ZM129.717 87.12C128.85 87.12 128.05 86.92 127.317 86.52C126.597 86.1067 126.09 85.58 125.797 84.94C125.69 84.7 125.637 84.5 125.637 84.34C125.637 84.0867 125.73 83.8733 125.917 83.7C126.103 83.5133 126.33 83.42 126.597 83.42C126.957 83.42 127.237 83.5933 127.437 83.94C127.597 84.2333 127.863 84.52 128.237 84.8C128.61 85.0667 129.09 85.2 129.677 85.2C130.277 85.2 130.81 85.0067 131.277 84.62C131.757 84.2333 131.997 83.68 131.997 82.96C131.997 82.4 131.843 81.9533 131.537 81.62C131.23 81.2867 130.87 81.0533 130.457 80.92C130.057 80.7867 129.697 80.72 129.377 80.72C129.11 80.72 128.883 80.6267 128.697 80.44C128.51 80.2533 128.417 80.0267 128.417 79.76C128.417 79.4933 128.51 79.2667 128.697 79.08C128.883 78.8933 129.117 78.8 129.397 78.8C129.757 78.8 130.117 78.72 130.477 78.56C130.837 78.3867 131.13 78.1667 131.357 77.9C131.597 77.62 131.717 77.3267 131.717 77.02C131.717 76.6867 131.53 76.3933 131.157 76.14C130.797 75.8733 130.31 75.74 129.697 75.74C129.257 75.74 128.89 75.8 128.597 75.92C128.317 76.04 128.037 76.1867 127.757 76.36C127.65 76.44 127.55 76.5067 127.457 76.56C127.363 76.6 127.257 76.62 127.137 76.62C126.83 76.62 126.59 76.5267 126.417 76.34C126.257 76.14 126.177 75.9133 126.177 75.66C126.177 75.26 126.45 74.8933 126.997 74.56C127.33 74.3467 127.73 74.1667 128.197 74.02C128.677 73.8733 129.177 73.8 129.697 73.8C130.43 73.8 131.097 73.94 131.697 74.22C132.297 74.5 132.77 74.8867 133.117 75.38C133.463 75.8733 133.637 76.42 133.637 77.02C133.637 77.5533 133.517 78.0467 133.277 78.5C133.037 78.9533 132.697 79.3533 132.257 79.7C132.803 80.06 133.217 80.52 133.497 81.08C133.79 81.64 133.937 82.2667 133.937 82.96C133.937 83.8933 133.723 84.6733 133.297 85.3C132.87 85.9267 132.33 86.3867 131.677 86.68C131.037 86.9733 130.383 87.12 129.717 87.12Z" fill="#5F5F5F"/>
<rect x="143" y="125" width="394" height="12" fill="#5F5F5F" fill-opacity="0.4"/>
<path d="M119.663 138C119.383 138 119.15 137.907 118.963 137.72C118.79 137.533 118.703 137.307 118.703 137.04C118.703 136.773 118.79 136.547 118.963 136.36C119.15 136.173 119.383 136.08 119.663 136.08H120.823L120.963 128.26L120.303 128.96C120.117 129.147 119.883 129.24 119.603 129.24C119.337 129.24 119.11 129.147 118.923 128.96C118.737 128.773 118.643 128.547 118.643 128.28C118.643 128.053 118.73 127.84 118.903 127.64L121.243 125.1C121.323 125.02 121.43 124.953 121.563 124.9C121.697 124.833 121.817 124.8 121.923 124.8C122.217 124.8 122.45 124.9 122.623 125.1C122.81 125.287 122.903 125.507 122.903 125.76L122.763 136.08H123.583C123.89 136.08 124.13 136.173 124.303 136.36C124.49 136.547 124.583 136.773 124.583 137.04C124.583 137.307 124.483 137.533 124.283 137.72C124.097 137.907 123.877 138 123.623 138H119.663ZM130.395 138.12C129.702 138.12 129.068 137.987 128.495 137.72C127.935 137.453 127.475 137.147 127.115 136.8C126.768 136.453 126.535 136.147 126.415 135.88C126.348 135.72 126.315 135.567 126.315 135.42C126.315 135.167 126.408 134.947 126.595 134.76C126.795 134.56 127.022 134.46 127.275 134.46C127.488 134.46 127.648 134.5 127.755 134.58C127.862 134.647 127.975 134.767 128.095 134.94C128.668 135.767 129.435 136.18 130.395 136.18C130.862 136.18 131.302 136.04 131.715 135.76C132.128 135.467 132.455 135.08 132.695 134.6C132.948 134.107 133.075 133.573 133.075 133C133.075 132.267 132.875 131.633 132.475 131.1C132.088 130.567 131.522 130.3 130.775 130.3C129.948 130.3 129.202 130.633 128.535 131.3C128.415 131.42 128.288 131.513 128.155 131.58C128.035 131.633 127.882 131.66 127.695 131.66C127.415 131.66 127.188 131.56 127.015 131.36C126.842 131.16 126.768 130.907 126.795 130.6L127.275 125.78C127.288 125.54 127.388 125.34 127.575 125.18C127.775 125.007 127.995 124.92 128.235 124.92H133.535C133.788 124.92 134.008 125.02 134.195 125.22C134.395 125.407 134.495 125.627 134.495 125.88C134.495 126.16 134.395 126.393 134.195 126.58C134.008 126.767 133.788 126.86 133.535 126.86H129.115L128.915 128.74C129.488 128.5 130.108 128.38 130.775 128.38C131.575 128.38 132.295 128.573 132.935 128.96C133.575 129.347 134.075 129.893 134.435 130.6C134.808 131.293 134.995 132.093 134.995 133C134.995 133.92 134.782 134.773 134.355 135.56C133.928 136.347 133.355 136.973 132.635 137.44C131.928 137.893 131.182 138.12 130.395 138.12Z" fill="#5F5F5F"/>
<rect x="143" y="153" width="415" height="12" fill="#5F5F5F" fill-opacity="0.4"/>
<path d="M119.82 166C119.54 166 119.306 165.907 119.12 165.72C118.946 165.533 118.86 165.307 118.86 165.04C118.86 164.773 118.946 164.547 119.12 164.36C119.306 164.173 119.54 164.08 119.82 164.08H120.98L121.12 156.26L120.46 156.96C120.273 157.147 120.04 157.24 119.76 157.24C119.493 157.24 119.266 157.147 119.08 156.96C118.893 156.773 118.8 156.547 118.8 156.28C118.8 156.053 118.886 155.84 119.06 155.64L121.4 153.1C121.48 153.02 121.586 152.953 121.72 152.9C121.853 152.833 121.973 152.8 122.08 152.8C122.373 152.8 122.606 152.9 122.78 153.1C122.966 153.287 123.06 153.507 123.06 153.76L122.92 164.08H123.74C124.046 164.08 124.286 164.173 124.46 164.36C124.646 164.547 124.74 164.773 124.74 165.04C124.74 165.307 124.64 165.533 124.44 165.72C124.253 165.907 124.033 166 123.78 166H119.82ZM130.851 166.12C129.545 166.12 128.498 165.687 127.711 164.82C126.925 163.94 126.531 162.707 126.531 161.12C126.531 159.2 126.985 157.527 127.891 156.1C128.811 154.673 130.058 153.613 131.631 152.92C131.845 152.827 132.025 152.78 132.171 152.78C132.438 152.78 132.658 152.867 132.831 153.04C133.005 153.213 133.091 153.433 133.091 153.7C133.091 153.9 133.038 154.08 132.931 154.24C132.838 154.387 132.711 154.493 132.551 154.56C131.871 154.853 131.258 155.247 130.711 155.74C130.165 156.22 129.711 156.767 129.351 157.38C129.911 157.18 130.505 157.08 131.131 157.08C131.865 157.08 132.525 157.24 133.111 157.56C133.711 157.88 134.185 158.353 134.531 158.98C134.878 159.593 135.051 160.333 135.051 161.2C135.051 162.227 134.858 163.113 134.471 163.86C134.085 164.593 133.571 165.153 132.931 165.54C132.291 165.927 131.598 166.12 130.851 166.12ZM130.871 164.24C131.551 164.24 132.105 163.96 132.531 163.4C132.971 162.84 133.191 162.107 133.191 161.2C133.191 160.453 132.998 159.893 132.611 159.52C132.238 159.147 131.745 158.96 131.131 158.96C130.118 158.96 129.218 159.313 128.431 160.02C128.405 160.273 128.391 160.64 128.391 161.12C128.391 162.173 128.605 162.96 129.031 163.48C129.471 163.987 130.085 164.24 130.871 164.24Z" fill="#5F5F5F"/>
<rect x="143" y="181" width="369" height="12" fill="#5F5F5F" fill-opacity="0.4"/>
<path d="M119.285 194C119.005 194 118.771 193.907 118.585 193.72C118.411 193.533 118.325 193.307 118.325 193.04C118.325 192.773 118.411 192.547 118.585 192.36C118.771 192.173 119.005 192.08 119.285 192.08H120.445L120.585 184.26L119.925 184.96C119.738 185.147 119.505 185.24 119.225 185.24C118.958 185.24 118.731 185.147 118.545 184.96C118.358 184.773 118.265 184.547 118.265 184.28C118.265 184.053 118.351 183.84 118.525 183.64L120.865 181.1C120.945 181.02 121.051 180.953 121.185 180.9C121.318 180.833 121.438 180.8 121.545 180.8C121.838 180.8 122.071 180.9 122.245 181.1C122.431 181.287 122.525 181.507 122.525 181.76L122.385 192.08H123.205C123.511 192.08 123.751 192.173 123.925 192.36C124.111 192.547 124.205 192.773 124.205 193.04C124.205 193.307 124.105 193.533 123.905 193.72C123.718 193.907 123.498 194 123.245 194H119.285ZM127.216 194.1C126.949 194.1 126.723 194.007 126.536 193.82C126.349 193.62 126.256 193.393 126.256 193.14C126.256 193.02 126.296 192.88 126.376 192.72L131.296 182.86H126.296C126.029 182.86 125.803 182.767 125.616 182.58C125.429 182.393 125.336 182.167 125.336 181.9C125.336 181.647 125.429 181.427 125.616 181.24C125.803 181.04 126.029 180.94 126.296 180.94H132.836C133.103 180.94 133.329 181.04 133.516 181.24C133.703 181.427 133.796 181.653 133.796 181.92C133.796 182.067 133.716 182.3 133.556 182.62L128.076 193.58C127.983 193.767 127.856 193.9 127.696 193.98C127.536 194.06 127.376 194.1 127.216 194.1Z" fill="#5F5F5F"/>
<rect x="143" y="209" width="346" height="12" fill="#5F5F5F" fill-opacity="0.4"/>
<path d="M120.054 222C119.774 222 119.541 221.907 119.354 221.72C119.181 221.533 119.094 221.307 119.094 221.04C119.094 220.773 119.181 220.547 119.354 220.36C119.541 220.173 119.774 220.08 120.054 220.08H121.214L121.354 212.26L120.694 212.96C120.507 213.147 120.274 213.24 119.994 213.24C119.727 213.24 119.501 213.147 119.314 212.96C119.127 212.773 119.034 212.547 119.034 212.28C119.034 212.053 119.121 211.84 119.294 211.64L121.634 209.1C121.714 209.02 121.821 208.953 121.954 208.9C122.087 208.833 122.207 208.8 122.314 208.8C122.607 208.8 122.841 208.9 123.014 209.1C123.201 209.287 123.294 209.507 123.294 209.76L123.154 220.08H123.974C124.281 220.08 124.521 220.173 124.694 220.36C124.881 220.547 124.974 220.773 124.974 221.04C124.974 221.307 124.874 221.533 124.674 221.72C124.487 221.907 124.267 222 124.014 222H120.054ZM130.826 222.12C130.026 222.12 129.306 221.967 128.666 221.66C128.026 221.34 127.526 220.9 127.166 220.34C126.806 219.78 126.626 219.153 126.626 218.46C126.626 217.047 127.299 215.907 128.646 215.04C128.192 214.747 127.839 214.393 127.586 213.98C127.346 213.567 127.226 213.06 127.226 212.46C127.226 211.727 127.399 211.087 127.746 210.54C128.092 209.98 128.552 209.553 129.126 209.26C129.699 208.953 130.332 208.8 131.026 208.8C131.732 208.8 132.366 208.947 132.926 209.24C133.486 209.52 133.919 209.913 134.226 210.42C134.546 210.927 134.706 211.507 134.706 212.16C134.706 213.293 134.192 214.213 133.166 214.92C133.752 215.333 134.206 215.82 134.526 216.38C134.846 216.927 135.006 217.527 135.006 218.18C135.006 218.913 134.826 219.58 134.466 220.18C134.106 220.78 133.606 221.253 132.966 221.6C132.326 221.947 131.612 222.12 130.826 222.12ZM130.906 213.96C131.626 213.667 132.119 213.373 132.386 213.08C132.666 212.773 132.806 212.433 132.806 212.06C132.806 211.66 132.632 211.34 132.286 211.1C131.952 210.86 131.532 210.74 131.026 210.74C130.466 210.74 130.006 210.887 129.646 211.18C129.286 211.46 129.106 211.86 129.106 212.38C129.106 212.753 129.246 213.067 129.526 213.32C129.806 213.56 130.266 213.773 130.906 213.96ZM130.826 220.2C131.426 220.2 131.959 220.027 132.426 219.68C132.892 219.333 133.126 218.847 133.126 218.22C133.126 217.687 132.926 217.233 132.526 216.86C132.126 216.473 131.626 216.18 131.026 215.98C130.479 216.22 130.039 216.433 129.706 216.62C129.386 216.793 129.106 217.033 128.866 217.34C128.639 217.647 128.526 218.02 128.526 218.46C128.526 218.967 128.746 219.387 129.186 219.72C129.626 220.04 130.172 220.2 130.826 220.2Z" fill="#5F5F5F"/>
<rect x="143" y="237" width="384" height="12" fill="#5F5F5F" fill-opacity="0.4"/>
<path d="M119.82 250C119.54 250 119.306 249.907 119.12 249.72C118.946 249.533 118.86 249.307 118.86 249.04C118.86 248.773 118.946 248.547 119.12 248.36C119.306 248.173 119.54 248.08 119.82 248.08H120.98L121.12 240.26L120.46 240.96C120.273 241.147 120.04 241.24 119.76 241.24C119.493 241.24 119.266 241.147 119.08 240.96C118.893 240.773 118.8 240.547 118.8 240.28C118.8 240.053 118.886 239.84 119.06 239.64L121.4 237.1C121.48 237.02 121.586 236.953 121.72 236.9C121.853 236.833 121.973 236.8 122.08 236.8C122.373 236.8 122.606 236.9 122.78 237.1C122.966 237.287 123.06 237.507 123.06 237.76L122.92 248.08H123.74C124.046 248.08 124.286 248.173 124.46 248.36C124.646 248.547 124.74 248.773 124.74 249.04C124.74 249.307 124.64 249.533 124.44 249.72C124.253 249.907 124.033 250 123.78 250H119.82ZM129.371 250.12C129.105 250.12 128.878 250.033 128.691 249.86C128.518 249.687 128.431 249.467 128.431 249.2C128.431 249 128.478 248.827 128.571 248.68C128.678 248.52 128.811 248.407 128.971 248.34C129.651 248.02 130.265 247.62 130.811 247.14C131.358 246.647 131.811 246.107 132.171 245.52C131.611 245.72 131.018 245.82 130.391 245.82C129.658 245.82 128.991 245.66 128.391 245.34C127.805 245.02 127.338 244.553 126.991 243.94C126.645 243.313 126.471 242.56 126.471 241.68C126.471 240.693 126.651 239.833 127.011 239.1C127.385 238.353 127.891 237.78 128.531 237.38C129.171 236.98 129.898 236.78 130.711 236.78C132.045 236.78 133.091 237.22 133.851 238.1C134.611 238.98 134.991 240.207 134.991 241.78C134.991 243.713 134.518 245.373 133.571 246.76C132.638 248.133 131.411 249.207 129.891 249.98C129.678 250.073 129.505 250.12 129.371 250.12ZM130.391 243.94C130.991 243.94 131.518 243.833 131.971 243.62C132.438 243.393 132.805 243.147 133.071 242.88C133.111 242.627 133.131 242.26 133.131 241.78C133.131 240.753 132.918 239.98 132.491 239.46C132.065 238.927 131.445 238.66 130.631 238.66C129.991 238.66 129.445 238.927 128.991 239.46C128.551 239.993 128.331 240.733 128.331 241.68C128.331 242.413 128.518 242.973 128.891 243.36C129.265 243.747 129.765 243.94 130.391 243.94Z" fill="#5F5F5F"/>
<rect x="143" y="265" width="394" height="12" fill="#5F5F5F" fill-opacity="0.4"/>
<path d="M118.594 277.06C118.594 275.98 118.76 275.073 119.094 274.34C119.427 273.593 119.84 272.993 120.334 272.54C120.827 272.073 121.434 271.613 122.154 271.16C122.794 270.733 123.267 270.4 123.574 270.16C123.894 269.92 124.154 269.653 124.354 269.36C124.567 269.053 124.674 268.707 124.674 268.32C124.674 267.853 124.487 267.473 124.114 267.18C123.74 266.873 123.274 266.72 122.714 266.72C122.167 266.72 121.68 266.86 121.254 267.14C120.84 267.42 120.527 267.687 120.314 267.94C120.18 268.087 120.054 268.2 119.934 268.28C119.827 268.347 119.674 268.38 119.474 268.38C119.194 268.38 118.96 268.28 118.774 268.08C118.6 267.88 118.514 267.653 118.514 267.4C118.514 267.24 118.554 267.087 118.634 266.94C118.727 266.793 118.9 266.6 119.154 266.36C119.594 265.933 120.114 265.567 120.714 265.26C121.314 264.953 121.98 264.8 122.714 264.8C123.46 264.8 124.127 264.96 124.714 265.28C125.3 265.587 125.76 266.013 126.094 266.56C126.427 267.093 126.594 267.68 126.594 268.32C126.594 269.013 126.44 269.627 126.134 270.16C125.827 270.68 125.454 271.127 125.014 271.5C124.587 271.86 124.034 272.253 123.354 272.68C122.554 273.2 121.92 273.707 121.454 274.2C120.987 274.693 120.694 275.327 120.574 276.1H125.794C126.047 276.1 126.267 276.193 126.454 276.38C126.654 276.567 126.754 276.793 126.754 277.06C126.754 277.313 126.654 277.533 126.454 277.72C126.267 277.907 126.047 278 125.794 278H118.594V277.06ZM133.075 278.12C132.208 278.12 131.421 277.833 130.715 277.26C130.021 276.673 129.475 275.893 129.075 274.92C128.688 273.947 128.495 272.9 128.495 271.78C128.495 270.567 128.715 269.427 129.155 268.36C129.608 267.28 130.215 266.42 130.975 265.78C131.748 265.127 132.588 264.8 133.495 264.8C134.361 264.8 135.141 265.093 135.835 265.68C136.528 266.253 137.068 267.027 137.455 268C137.855 268.973 138.055 270.027 138.055 271.16C138.055 272.387 137.828 273.533 137.375 274.6C136.935 275.667 136.328 276.52 135.555 277.16C134.795 277.8 133.968 278.12 133.075 278.12ZM133.075 276.2C133.621 276.2 134.128 275.973 134.595 275.52C135.075 275.067 135.455 274.46 135.735 273.7C136.028 272.927 136.175 272.093 136.175 271.2C136.175 270.413 136.055 269.68 135.815 269C135.588 268.307 135.268 267.753 134.855 267.34C134.441 266.927 133.988 266.72 133.495 266.72C132.948 266.72 132.435 266.947 131.955 267.4C131.475 267.853 131.095 268.467 130.815 269.24C130.535 270.013 130.395 270.847 130.395 271.74C130.395 272.513 130.508 273.247 130.735 273.94C130.961 274.62 131.281 275.167 131.695 275.58C132.108 275.993 132.568 276.2 133.075 276.2Z" fill="#5F5F5F"/>
<rect x="143" y="293" width="357" height="12" fill="#5F5F5F" fill-opacity="0.4"/>
<path d="M118.188 305.06C118.188 303.98 118.354 303.073 118.688 302.34C119.021 301.593 119.434 300.993 119.928 300.54C120.421 300.073 121.028 299.613 121.748 299.16C122.388 298.733 122.861 298.4 123.168 298.16C123.488 297.92 123.748 297.653 123.948 297.36C124.161 297.053 124.268 296.707 124.268 296.32C124.268 295.853 124.081 295.473 123.708 295.18C123.334 294.873 122.868 294.72 122.308 294.72C121.761 294.72 121.274 294.86 120.848 295.14C120.434 295.42 120.121 295.687 119.908 295.94C119.774 296.087 119.648 296.2 119.528 296.28C119.421 296.347 119.268 296.38 119.068 296.38C118.788 296.38 118.554 296.28 118.368 296.08C118.194 295.88 118.108 295.653 118.108 295.4C118.108 295.24 118.148 295.087 118.228 294.94C118.321 294.793 118.494 294.6 118.748 294.36C119.188 293.933 119.708 293.567 120.308 293.26C120.908 292.953 121.574 292.8 122.308 292.8C123.054 292.8 123.721 292.96 124.308 293.28C124.894 293.587 125.354 294.013 125.688 294.56C126.021 295.093 126.188 295.68 126.188 296.32C126.188 297.013 126.034 297.627 125.728 298.16C125.421 298.68 125.048 299.127 124.608 299.5C124.181 299.86 123.628 300.253 122.948 300.68C122.148 301.2 121.514 301.707 121.048 302.2C120.581 302.693 120.288 303.327 120.168 304.1H125.388C125.641 304.1 125.861 304.193 126.048 304.38C126.248 304.567 126.348 304.793 126.348 305.06C126.348 305.313 126.248 305.533 126.048 305.72C125.861 305.907 125.641 306 125.388 306H118.188V305.06ZM129.288 306C129.008 306 128.775 305.907 128.588 305.72C128.415 305.533 128.328 305.307 128.328 305.04C128.328 304.773 128.415 304.547 128.588 304.36C128.775 304.173 129.008 304.08 129.288 304.08H130.448L130.588 296.26L129.928 296.96C129.742 297.147 129.508 297.24 129.228 297.24C128.962 297.24 128.735 297.147 128.548 296.96C128.362 296.773 128.268 296.547 128.268 296.28C128.268 296.053 128.355 295.84 128.528 295.64L130.868 293.1C130.948 293.02 131.055 292.953 131.188 292.9C131.322 292.833 131.442 292.8 131.548 292.8C131.842 292.8 132.075 292.9 132.248 293.1C132.435 293.287 132.528 293.507 132.528 293.76L132.388 304.08H133.208C133.515 304.08 133.755 304.173 133.928 304.36C134.115 304.547 134.208 304.773 134.208 305.04C134.208 305.307 134.108 305.533 133.908 305.72C133.722 305.907 133.502 306 133.248 306H129.288Z" fill="#5F5F5F"/>
<rect x="143" y="321" width="299" height="12" fill="#5F5F5F" fill-opacity="0.4"/>
<path d="M118.078 333.06C118.078 331.98 118.245 331.073 118.578 330.34C118.911 329.593 119.325 328.993 119.818 328.54C120.311 328.073 120.918 327.613 121.638 327.16C122.278 326.733 122.751 326.4 123.058 326.16C123.378 325.92 123.638 325.653 123.838 325.36C124.051 325.053 124.158 324.707 124.158 324.32C124.158 323.853 123.971 323.473 123.598 323.18C123.225 322.873 122.758 322.72 122.198 322.72C121.651 322.72 121.165 322.86 120.738 323.14C120.325 323.42 120.011 323.687 119.798 323.94C119.665 324.087 119.538 324.2 119.418 324.28C119.311 324.347 119.158 324.38 118.958 324.38C118.678 324.38 118.445 324.28 118.258 324.08C118.085 323.88 117.998 323.653 117.998 323.4C117.998 323.24 118.038 323.087 118.118 322.94C118.211 322.793 118.385 322.6 118.638 322.36C119.078 321.933 119.598 321.567 120.198 321.26C120.798 320.953 121.465 320.8 122.198 320.8C122.945 320.8 123.611 320.96 124.198 321.28C124.785 321.587 125.245 322.013 125.578 322.56C125.911 323.093 126.078 323.68 126.078 324.32C126.078 325.013 125.925 325.627 125.618 326.16C125.311 326.68 124.938 327.127 124.498 327.5C124.071 327.86 123.518 328.253 122.838 328.68C122.038 329.2 121.405 329.707 120.938 330.2C120.471 330.693 120.178 331.327 120.058 332.1H125.278C125.531 332.1 125.751 332.193 125.938 332.38C126.138 332.567 126.238 332.793 126.238 333.06C126.238 333.313 126.138 333.533 125.938 333.72C125.751 333.907 125.531 334 125.278 334H118.078V333.06ZM128.039 333.06C128.039 331.98 128.206 331.073 128.539 330.34C128.872 329.593 129.286 328.993 129.779 328.54C130.272 328.073 130.879 327.613 131.599 327.16C132.239 326.733 132.712 326.4 133.019 326.16C133.339 325.92 133.599 325.653 133.799 325.36C134.012 325.053 134.119 324.707 134.119 324.32C134.119 323.853 133.932 323.473 133.559 323.18C133.186 322.873 132.719 322.72 132.159 322.72C131.612 322.72 131.126 322.86 130.699 323.14C130.286 323.42 129.972 323.687 129.759 323.94C129.626 324.087 129.499 324.2 129.379 324.28C129.272 324.347 129.119 324.38 128.919 324.38C128.639 324.38 128.406 324.28 128.219 324.08C128.046 323.88 127.959 323.653 127.959 323.4C127.959 323.24 127.999 323.087 128.079 322.94C128.172 322.793 128.346 322.6 128.599 322.36C129.039 321.933 129.559 321.567 130.159 321.26C130.759 320.953 131.426 320.8 132.159 320.8C132.906 320.8 133.572 320.96 134.159 321.28C134.746 321.587 135.206 322.013 135.539 322.56C135.872 323.093 136.039 323.68 136.039 324.32C136.039 325.013 135.886 325.627 135.579 326.16C135.272 326.68 134.899 327.127 134.459 327.5C134.032 327.86 133.479 328.253 132.799 328.68C131.999 329.2 131.366 329.707 130.899 330.2C130.432 330.693 130.139 331.327 130.019 332.1H135.239C135.492 332.1 135.712 332.193 135.899 332.38C136.099 332.567 136.199 332.793 136.199 333.06C136.199 333.313 136.099 333.533 135.899 333.72C135.712 333.907 135.492 334 135.239 334H128.039V333.06Z" fill="#5F5F5F"/>
<rect x="143" y="349" width="384" height="12" fill="#5F5F5F" fill-opacity="0.4"/>
<path d="M118.176 361.06C118.176 359.98 118.342 359.073 118.676 358.34C119.009 357.593 119.422 356.993 119.916 356.54C120.409 356.073 121.016 355.613 121.736 355.16C122.376 354.733 122.849 354.4 123.156 354.16C123.476 353.92 123.736 353.653 123.936 353.36C124.149 353.053 124.256 352.707 124.256 352.32C124.256 351.853 124.069 351.473 123.696 351.18C123.322 350.873 122.856 350.72 122.296 350.72C121.749 350.72 121.262 350.86 120.836 351.14C120.422 351.42 120.109 351.687 119.896 351.94C119.762 352.087 119.636 352.2 119.516 352.28C119.409 352.347 119.256 352.38 119.056 352.38C118.776 352.38 118.542 352.28 118.356 352.08C118.182 351.88 118.096 351.653 118.096 351.4C118.096 351.24 118.136 351.087 118.216 350.94C118.309 350.793 118.482 350.6 118.736 350.36C119.176 349.933 119.696 349.567 120.296 349.26C120.896 348.953 121.562 348.8 122.296 348.8C123.042 348.8 123.709 348.96 124.296 349.28C124.882 349.587 125.342 350.013 125.676 350.56C126.009 351.093 126.176 351.68 126.176 352.32C126.176 353.013 126.022 353.627 125.716 354.16C125.409 354.68 125.036 355.127 124.596 355.5C124.169 355.86 123.616 356.253 122.936 356.68C122.136 357.2 121.502 357.707 121.036 358.2C120.569 358.693 120.276 359.327 120.156 360.1H125.376C125.629 360.1 125.849 360.193 126.036 360.38C126.236 360.567 126.336 360.793 126.336 361.06C126.336 361.313 126.236 361.533 126.036 361.72C125.849 361.907 125.629 362 125.376 362H118.176V361.06ZM131.717 362.12C130.85 362.12 130.05 361.92 129.317 361.52C128.597 361.107 128.09 360.58 127.797 359.94C127.69 359.7 127.637 359.5 127.637 359.34C127.637 359.087 127.73 358.873 127.917 358.7C128.103 358.513 128.33 358.42 128.597 358.42C128.957 358.42 129.237 358.593 129.437 358.94C129.597 359.233 129.863 359.52 130.237 359.8C130.61 360.067 131.09 360.2 131.677 360.2C132.277 360.2 132.81 360.007 133.277 359.62C133.757 359.233 133.997 358.68 133.997 357.96C133.997 357.4 133.843 356.953 133.537 356.62C133.23 356.287 132.87 356.053 132.457 355.92C132.057 355.787 131.697 355.72 131.377 355.72C131.11 355.72 130.883 355.627 130.697 355.44C130.51 355.253 130.417 355.027 130.417 354.76C130.417 354.493 130.51 354.267 130.697 354.08C130.883 353.893 131.117 353.8 131.397 353.8C131.757 353.8 132.117 353.72 132.477 353.56C132.837 353.387 133.13 353.167 133.357 352.9C133.597 352.62 133.717 352.327 133.717 352.02C133.717 351.687 133.53 351.393 133.157 351.14C132.797 350.873 132.31 350.74 131.697 350.74C131.257 350.74 130.89 350.8 130.597 350.92C130.317 351.04 130.037 351.187 129.757 351.36C129.65 351.44 129.55 351.507 129.457 351.56C129.363 351.6 129.257 351.62 129.137 351.62C128.83 351.62 128.59 351.527 128.417 351.34C128.257 351.14 128.177 350.913 128.177 350.66C128.177 350.26 128.45 349.893 128.997 349.56C129.33 349.347 129.73 349.167 130.197 349.02C130.677 348.873 131.177 348.8 131.697 348.8C132.43 348.8 133.097 348.94 133.697 349.22C134.297 349.5 134.77 349.887 135.117 350.38C135.463 350.873 135.637 351.42 135.637 352.02C135.637 352.553 135.517 353.047 135.277 353.5C135.037 353.953 134.697 354.353 134.257 354.7C134.803 355.06 135.217 355.52 135.497 356.08C135.79 356.64 135.937 357.267 135.937 357.96C135.937 358.893 135.723 359.673 135.297 360.3C134.87 360.927 134.33 361.387 133.677 361.68C133.037 361.973 132.383 362.12 131.717 362.12Z" fill="#5F5F5F"/>
<rect x="143" y="377" width="369" height="12" fill="#5F5F5F" fill-opacity="0.4"/>
<path d="M118.27 389.06C118.27 387.98 118.436 387.073 118.77 386.34C119.103 385.593 119.516 384.993 120.01 384.54C120.503 384.073 121.11 383.613 121.83 383.16C122.47 382.733 122.943 382.4 123.25 382.16C123.57 381.92 123.83 381.653 124.03 381.36C124.243 381.053 124.35 380.707 124.35 380.32C124.35 379.853 124.163 379.473 123.79 379.18C123.416 378.873 122.95 378.72 122.39 378.72C121.843 378.72 121.356 378.86 120.93 379.14C120.516 379.42 120.203 379.687 119.99 379.94C119.856 380.087 119.73 380.2 119.61 380.28C119.503 380.347 119.35 380.38 119.15 380.38C118.87 380.38 118.636 380.28 118.45 380.08C118.276 379.88 118.19 379.653 118.19 379.4C118.19 379.24 118.23 379.087 118.31 378.94C118.403 378.793 118.576 378.6 118.83 378.36C119.27 377.933 119.79 377.567 120.39 377.26C120.99 376.953 121.656 376.8 122.39 376.8C123.136 376.8 123.803 376.96 124.39 377.28C124.976 377.587 125.436 378.013 125.77 378.56C126.103 379.093 126.27 379.68 126.27 380.32C126.27 381.013 126.116 381.627 125.81 382.16C125.503 382.68 125.13 383.127 124.69 383.5C124.263 383.86 123.71 384.253 123.03 384.68C122.23 385.2 121.596 385.707 121.13 386.2C120.663 386.693 120.37 387.327 120.25 388.1H125.47C125.723 388.1 125.943 388.193 126.13 388.38C126.33 388.567 126.43 388.793 126.43 389.06C126.43 389.313 126.33 389.533 126.13 389.72C125.943 389.907 125.723 390 125.47 390H118.27V389.06ZM133.265 390.14C132.998 390.14 132.772 390.047 132.585 389.86C132.398 389.66 132.305 389.433 132.305 389.18V387.1L128.205 387.04C127.912 387.04 127.678 386.953 127.505 386.78C127.332 386.607 127.245 386.38 127.245 386.1C127.245 385.927 127.298 385.747 127.405 385.56L132.465 377.24C132.652 376.933 132.918 376.78 133.265 376.78C133.545 376.78 133.778 376.873 133.965 377.06C134.152 377.247 134.245 377.473 134.245 377.74V385.22H134.445C134.712 385.22 134.932 385.313 135.105 385.5C135.278 385.687 135.365 385.913 135.365 386.18C135.365 386.447 135.265 386.673 135.065 386.86C134.865 387.047 134.632 387.14 134.365 387.14H134.245V389.18C134.245 389.433 134.145 389.66 133.945 389.86C133.745 390.047 133.518 390.14 133.265 390.14ZM132.305 381.18L129.905 385.12L132.305 385.18V381.18Z" fill="#5F5F5F"/>
<rect x="143" y="405" width="379" height="12" fill="#5F5F5F" fill-opacity="0.4"/>
<path d="M118.414 417.06C118.414 415.98 118.581 415.073 118.914 414.34C119.247 413.593 119.661 412.993 120.154 412.54C120.647 412.073 121.254 411.613 121.974 411.16C122.614 410.733 123.087 410.4 123.394 410.16C123.714 409.92 123.974 409.653 124.174 409.36C124.387 409.053 124.494 408.707 124.494 408.32C124.494 407.853 124.307 407.473 123.934 407.18C123.561 406.873 123.094 406.72 122.534 406.72C121.987 406.72 121.501 406.86 121.074 407.14C120.661 407.42 120.347 407.687 120.134 407.94C120.001 408.087 119.874 408.2 119.754 408.28C119.647 408.347 119.494 408.38 119.294 408.38C119.014 408.38 118.781 408.28 118.594 408.08C118.421 407.88 118.334 407.653 118.334 407.4C118.334 407.24 118.374 407.087 118.454 406.94C118.547 406.793 118.721 406.6 118.974 406.36C119.414 405.933 119.934 405.567 120.534 405.26C121.134 404.953 121.801 404.8 122.534 404.8C123.281 404.8 123.947 404.96 124.534 405.28C125.121 405.587 125.581 406.013 125.914 406.56C126.247 407.093 126.414 407.68 126.414 408.32C126.414 409.013 126.261 409.627 125.954 410.16C125.647 410.68 125.274 411.127 124.834 411.5C124.407 411.86 123.854 412.253 123.174 412.68C122.374 413.2 121.741 413.707 121.274 414.2C120.807 414.693 120.514 415.327 120.394 416.1H125.614C125.867 416.1 126.087 416.193 126.274 416.38C126.474 416.567 126.574 416.793 126.574 417.06C126.574 417.313 126.474 417.533 126.274 417.72C126.087 417.907 125.867 418 125.614 418H118.414V417.06ZM132.395 418.12C131.702 418.12 131.068 417.987 130.495 417.72C129.935 417.453 129.475 417.147 129.115 416.8C128.768 416.453 128.535 416.147 128.415 415.88C128.348 415.72 128.315 415.567 128.315 415.42C128.315 415.167 128.408 414.947 128.595 414.76C128.795 414.56 129.022 414.46 129.275 414.46C129.488 414.46 129.648 414.5 129.755 414.58C129.862 414.647 129.975 414.767 130.095 414.94C130.668 415.767 131.435 416.18 132.395 416.18C132.862 416.18 133.302 416.04 133.715 415.76C134.128 415.467 134.455 415.08 134.695 414.6C134.948 414.107 135.075 413.573 135.075 413C135.075 412.267 134.875 411.633 134.475 411.1C134.088 410.567 133.522 410.3 132.775 410.3C131.948 410.3 131.202 410.633 130.535 411.3C130.415 411.42 130.288 411.513 130.155 411.58C130.035 411.633 129.882 411.66 129.695 411.66C129.415 411.66 129.188 411.56 129.015 411.36C128.842 411.16 128.768 410.907 128.795 410.6L129.275 405.78C129.288 405.54 129.388 405.34 129.575 405.18C129.775 405.007 129.995 404.92 130.235 404.92H135.535C135.788 404.92 136.008 405.02 136.195 405.22C136.395 405.407 136.495 405.627 136.495 405.88C136.495 406.16 136.395 406.393 136.195 406.58C136.008 406.767 135.788 406.86 135.535 406.86H131.115L130.915 408.74C131.488 408.5 132.108 408.38 132.775 408.38C133.575 408.38 134.295 408.573 134.935 408.96C135.575 409.347 136.075 409.893 136.435 410.6C136.808 411.293 136.995 412.093 136.995 413C136.995 413.92 136.782 414.773 136.355 415.56C135.928 416.347 135.355 416.973 134.635 417.44C133.928 417.893 133.182 418.12 132.395 418.12Z" fill="#5F5F5F"/>
<rect x="143" y="97" width="433" height="12" fill="#5F5F5F" fill-opacity="0.4"/>
<path d="M120.109 110C119.829 110 119.595 109.907 119.409 109.72C119.235 109.533 119.149 109.307 119.149 109.04C119.149 108.773 119.235 108.547 119.409 108.36C119.595 108.173 119.829 108.08 120.109 108.08H121.269L121.409 100.26L120.749 100.96C120.562 101.147 120.329 101.24 120.049 101.24C119.782 101.24 119.555 101.147 119.369 100.96C119.182 100.773 119.089 100.547 119.089 100.28C119.089 100.053 119.175 99.84 119.349 99.64L121.689 97.1C121.769 97.02 121.875 96.9533 122.009 96.9C122.142 96.8333 122.262 96.8 122.369 96.8C122.662 96.8 122.895 96.9 123.069 97.1C123.255 97.2867 123.349 97.5067 123.349 97.76L123.209 108.08H124.029C124.335 108.08 124.575 108.173 124.749 108.36C124.935 108.547 125.029 108.773 125.029 109.04C125.029 109.307 124.929 109.533 124.729 109.72C124.542 109.907 124.322 110 124.069 110H120.109ZM132.265 110.14C131.998 110.14 131.772 110.047 131.585 109.86C131.398 109.66 131.305 109.433 131.305 109.18V107.1L127.205 107.04C126.912 107.04 126.678 106.953 126.505 106.78C126.332 106.607 126.245 106.38 126.245 106.1C126.245 105.927 126.298 105.747 126.405 105.56L131.465 97.24C131.652 96.9333 131.918 96.78 132.265 96.78C132.545 96.78 132.778 96.8733 132.965 97.06C133.152 97.2467 133.245 97.4733 133.245 97.74V105.22H133.445C133.712 105.22 133.932 105.313 134.105 105.5C134.278 105.687 134.365 105.913 134.365 106.18C134.365 106.447 134.265 106.673 134.065 106.86C133.865 107.047 133.632 107.14 133.365 107.14H133.245V109.18C133.245 109.433 133.145 109.66 132.945 109.86C132.745 110.047 132.518 110.14 132.265 110.14ZM131.305 101.18L128.905 105.12L131.305 105.18V101.18Z" fill="#5F5F5F"/>
<path d="M532 265C532 260.582 535.582 257 540 257H736C740.418 257 744 260.582 744 265V409C744 413.418 740.418 417 736 417H540C535.582 417 532 413.418 532 409V265Z" fill="#5F5F5F"/>
<path d="M532 265C532 260.582 535.582 257 540 257H736C740.418 257 744 260.582 744 265V281C744 285.418 740.418 289 736 289H540C535.582 289 532 285.418 532 281V265Z" fill="#D9D9D9"/>
<rect x="532" y="272" width="212" height="17" fill="#D9D9D9"/>
<circle cx="547" cy="272" r="6" fill="#FF605C"/>
<circle cx="564" cy="272" r="6" fill="#FFBD44"/>
<circle cx="581" cy="272" r="6" fill="#00CA4E"/>
<path d="M543.5 307.98C543.247 307.98 543.02 307.887 542.82 307.7C542.633 307.5 542.54 307.273 542.54 307.02C542.54 306.687 542.687 306.42 542.98 306.22L547.54 303.18L542.64 300.06C542.507 299.98 542.4 299.867 542.32 299.72C542.24 299.56 542.2 299.407 542.2 299.26C542.2 298.98 542.293 298.747 542.48 298.56C542.667 298.373 542.893 298.28 543.16 298.28C543.333 298.28 543.507 298.333 543.68 298.44L549.82 302.36C550.113 302.547 550.26 302.813 550.26 303.16C550.26 303.52 550.12 303.793 549.84 303.98L544.04 307.82C543.867 307.927 543.687 307.98 543.5 307.98ZM552.339 309.14C552.073 309.14 551.846 309.047 551.659 308.86C551.473 308.673 551.379 308.447 551.379 308.18C551.379 307.913 551.473 307.687 551.659 307.5C551.846 307.313 552.073 307.22 552.339 307.22H561.239C561.506 307.22 561.733 307.313 561.919 307.5C562.106 307.687 562.199 307.913 562.199 308.18C562.199 308.447 562.106 308.673 561.919 308.86C561.733 309.047 561.506 309.14 561.239 309.14H552.339Z" fill="#00CA4E"/>
</svg>
