<svg width="188" height="128" viewBox="0 0 188 128" fill="none" xmlns="http://www.w3.org/2000/svg">
<rect x="4" y="4" width="180" height="120" fill="#1E2E46"/>
<mask id="mask0_111_1097" style="mask-type:alpha" maskUnits="userSpaceOnUse" x="4" y="4" width="180" height="120">
<rect x="4" y="4" width="180" height="120" fill="#1E2E46"/>
</mask>
<g mask="url(#mask0_111_1097)">
<path d="M6.25744 81.6895C6.2192 81.6946 6.17635 81.6977 6.12943 81.6999C5.68885 81.7211 4.88982 81.6719 4.19254 82.5707C3.37134 83.6292 3.66843 85.1221 3.34558 86.8017C2.78088 89.7395 3.01212 92.8929 3.30677 94.3314C3.59743 95.7503 4.688 97.0615 6.43892 98.2117C9.30117 100.092 11.8606 100.328 13.7575 100.158C13.7831 100.019 13.9407 99.8924 14.3211 99.8054C14.7936 99.6974 15.9863 99.6595 16.606 99.6371C16.7415 99.6134 16.8523 99.6017 16.9367 99.6076C17.0885 99.6182 16.9214 99.6257 16.606 99.6371C16.0438 99.7356 15.0558 100.042 13.7575 100.158C13.7351 100.279 13.8137 100.41 13.9326 100.532C14.5185 101.134 15.4101 101.224 18.7501 101.249C21.7572 101.27 27.4285 101.321 30.5495 101.318C34.9591 101.312 37.8337 100.958 41.7898 100.807C46.5394 100.627 54.1627 100.384 55.8156 100.295C56.26 100.271 56.7366 100.205 60.8907 100.174C65.0448 100.143 72.8616 100.143 77.0487 100.116C81.5569 100.087 84.9252 99.9804 89.3748 100.143C90.7941 100.194 90.4769 100.629 90.1509 100.884C89.8249 101.139 89.4912 101.315 89.8328 101.406C94.9938 102.772 101.437 99.1674 104.224 98.5584C106.543 98.0516 110.662 96.9736 116.51 95.9329C122.359 94.8922 129.802 93.8783 136.057 92.7143C142.311 91.5503 147.151 90.2671 149.81 89.5027C153.456 88.4551 154.86 86.9093 158.153 84.9991C159.656 84.1277 161.501 82.6156 163.019 81.3187C164.657 79.9207 166.013 78.0963 168.242 75.7624C170.435 73.467 172.221 72.0148 172.724 70.4138C173.24 68.7728 172.896 67.2921 172.503 66.7399C171.498 65.3279 169.401 66.1897 165.546 67.2271C160.784 68.5085 155.13 69.8964 150.852 70.7685C147.848 71.3809 145.724 72.0564 143.493 72.6636C138.828 73.9333 136.509 74.1781 134.593 74.5697C131.321 75.2387 129.156 75.1723 126.182 75.4344C123.465 75.6738 120.315 76.3577 118.524 76.6247C116.422 76.9382 114.441 77.4421 110.939 77.9485C108.447 78.3088 107.338 78.3153 103.636 78.8998C100.358 79.4174 94.2364 80.3662 90.717 80.8814C85.3888 81.6615 83.853 81.9136 82.0062 82.1781C77.2795 82.8549 72.8989 83.8135 68.7642 84.5387C65.0352 85.1928 60.2516 85.656 58.7435 85.8355C58.2486 85.8944 57.5968 85.9048 53.1984 85.9349C48.8 85.965 40.6727 85.9946 35.5599 85.877C26.3396 85.6649 25.0731 84.8315 23.5908 84.5894C21.9398 84.3198 20.1623 84.0646 17.7062 83.5556C15.0481 83.0048 13.2716 82.5682 10.786 81.9568C9.81977 81.7535 8.22969 81.6557 6.25744 81.6895Z" fill="#B6DBE6"/>
<path d="M6.25744 81.6895C8.22969 81.6557 9.81977 81.7535 10.786 81.9568C13.2716 82.5682 15.0481 83.0048 17.7062 83.5556C20.1623 84.0646 21.9398 84.3198 23.5908 84.5894C25.0731 84.8315 26.3396 85.6649 35.5599 85.877C40.6727 85.9946 48.8 85.965 53.1984 85.9349C57.5968 85.9048 58.2486 85.8944 58.7435 85.8355C60.2516 85.656 65.0352 85.1928 68.7642 84.5387C72.8989 83.8135 77.2795 82.8549 82.0062 82.1781C83.853 81.9136 85.3888 81.6615 90.717 80.8814C94.2364 80.3662 100.358 79.4174 103.636 78.8998C107.338 78.3153 108.447 78.3088 110.939 77.9485C114.441 77.4421 116.422 76.9382 118.524 76.6247C120.315 76.3577 123.465 75.6738 126.182 75.4344C129.156 75.1723 131.321 75.2387 134.593 74.5697C136.509 74.1781 138.828 73.9333 143.493 72.6636C145.724 72.0564 147.848 71.3809 150.852 70.7685C155.13 69.8964 160.784 68.5085 165.546 67.2271C169.401 66.1897 171.498 65.3279 172.503 66.7399C172.896 67.2921 173.24 68.7728 172.724 70.4138C172.221 72.0148 170.435 73.467 168.242 75.7624C166.013 78.0963 164.657 79.9207 163.019 81.3187C161.501 82.6156 159.656 84.1277 158.153 84.9991C154.86 86.9093 153.456 88.4551 149.81 89.5027C147.151 90.2671 142.311 91.5503 136.057 92.7143C129.802 93.8783 122.359 94.8922 116.51 95.9329C110.662 96.9736 106.543 98.0516 104.224 98.5584C101.437 99.1674 94.9938 102.772 89.8328 101.406C89.4912 101.315 89.8249 101.139 90.1509 100.884C90.4769 100.629 90.7941 100.194 89.3748 100.143C84.9252 99.9804 81.5569 100.087 77.0487 100.116C72.8616 100.143 65.0448 100.143 60.8907 100.174C56.7366 100.205 56.26 100.271 55.8156 100.295C54.1627 100.384 46.5394 100.627 41.7898 100.807C37.8337 100.958 34.9591 101.312 30.5495 101.318C27.4285 101.321 21.7572 101.27 18.7501 101.249C15.4101 101.224 14.5185 101.134 13.9326 100.532C13.8137 100.41 13.7351 100.279 13.7575 100.158M6.25744 81.6895C6.2192 81.6946 6.17635 81.6977 6.12943 81.6999M6.25744 81.6895C6.21345 81.6927 6.17081 81.6962 6.12943 81.6999M4.67948 82.1C5.0915 81.8982 5.43019 81.7628 6.12943 81.6999M6.12943 81.6999C5.68885 81.7211 4.88982 81.6719 4.19254 82.5707C3.37134 83.6292 3.66843 85.1221 3.34558 86.8017C2.78088 89.7395 3.01212 92.8929 3.30677 94.3314C3.59743 95.7503 4.688 97.0615 6.43892 98.2117C9.30117 100.092 11.8606 100.328 13.7575 100.158M13.7575 100.158C13.7831 100.019 13.9407 99.8924 14.3211 99.8054C14.7936 99.6974 15.9863 99.6595 16.606 99.6371M13.7575 100.158C15.0558 100.042 16.0438 99.7356 16.606 99.6371M16.606 99.6371C16.7415 99.6134 16.8523 99.6017 16.9367 99.6076C17.0885 99.6182 16.9214 99.6257 16.606 99.6371Z" stroke="#B6DBE6" stroke-linecap="round"/>
<path d="M14.7462 98.0776C12.0212 97.8192 6.75515 97.734 4.35201 97.734C4.32752 98.9645 4.05411 97.6078 3.9924 98.3901C3.83396 99.5318 3.6815 100.23 3.58811 100.895C3.45229 102.242 3.18303 103.711 3.08441 106.228C2.98497 108.765 2.97487 115.637 3.04631 119.586C3.11766 123.529 3.02351 125.786 4.66907 127.216C5.00142 127.505 5.44611 127.536 8.58967 127.52C11.7332 127.504 17.4038 127.443 20.5848 127.361C23.7657 127.28 24.4351 127.129 25.2845 127.131C28.4671 127.138 30.1693 127.175 38.0757 127.882C43.1854 128.34 51.9995 129.227 56.9103 129.796C61.8212 130.365 62.799 130.608 63.668 130.789C64.537 130.969 65.2747 131.082 73.3733 131.067C81.4719 131.051 96.4768 130.91 112.075 130.811C127.672 130.713 143.387 130.658 151.42 130.653C159.454 130.648 159.796 130.705 162.674 130.7C170.808 130.686 176.792 130.585 178.317 130.094C180.896 129.263 183.273 128.891 183.829 127.298C184.061 126.632 184.26 125.953 184.377 125.236C184.636 123.645 184.872 121.914 184.958 120.272C185.092 117.717 185.401 115.546 185.415 108.969C185.427 103.638 185.502 93.6046 185.344 88.3685C185.145 81.7706 184.813 80.1214 184.659 77.7347C184.396 73.6915 185.599 66.8977 183.898 66.2266C182.662 65.7389 179.92 66.1755 177.627 66.2732C175.175 66.3778 171.701 66.0398 169.894 67.3014C169.353 67.6785 168.546 68.1357 168.662 68.7261C168.774 69.2987 169.09 69.9125 169.044 70.5405C169.021 70.8539 168.944 71.2164 168.555 71.425C167.636 71.9182 166.532 72.0206 165.547 72.2554C163.543 72.7336 162.064 73.6738 161.277 74.7806C160.511 75.8578 159.742 77.4214 158.082 77.8863C156.13 78.433 154.664 78.9059 152.751 79.5321C150.942 80.124 149.382 80.5002 147.852 80.7603C145.994 81.0765 143.159 82.0052 140.988 82.5207C139.544 82.8635 137.189 82.7587 135.339 83.159C133.789 83.4944 132.372 83.6135 131.131 84.1468C129.82 84.7104 128.46 84.7838 127.114 84.405C125.526 83.9581 124.311 82.3705 120.253 83.1292C118.407 83.4743 117.047 83.9796 115.54 84.6995C113.538 85.6558 112.016 86.5238 110.277 87.436C108.218 88.5152 106.295 89.1758 104.957 89.9088C103.631 90.6357 102.169 91.5533 99.5046 93.1633C97.4769 94.3886 92.3901 96.0527 89.6878 94.348C88.4589 93.5727 87.3486 92.0808 85.7218 92.04C84.1584 92.0008 82.5395 92.1295 81.1471 92.8101C79.9352 93.4024 78.8912 94.3577 77.5114 94.7883C76.5911 95.0754 75.0283 95.4533 73.5875 95.8027C73.6269 95.7999 73.6661 95.797 73.705 95.7938C74.3953 95.7373 75.443 95.7655 75.5422 95.9268C75.7775 96.309 75.3009 96.5518 74.7189 96.7291C75.1427 96.7581 75.3072 96.826 74.9841 96.963C74.5336 97.154 72.8853 97.4607 73.2397 97.1552C73.387 97.0283 74.1106 96.9144 74.7189 96.7291C73.7346 96.6618 71.3514 96.8045 70.4263 96.7793C69.6554 96.7583 71.4925 96.3106 73.5875 95.8027C71.914 95.9189 69.7074 95.662 67.4915 96.9351C66.0533 97.7614 64.9104 98.7439 60.0694 99.509C58.7052 99.7246 53.5499 99.0764 46.4255 99.8236C42.1205 100.275 39.5134 101.566 38.0674 101.54C36.701 101.516 34.7701 100.56 32.6855 99.6093C30.7148 98.7107 28.0447 96.4906 22.7887 97.2982C20.4285 97.6608 18.5883 98.4418 14.7462 98.0776Z" fill="#33787D"/>
<path d="M73.5875 95.8027C75.0283 95.4533 76.5911 95.0754 77.5114 94.7883C78.8912 94.3577 79.9352 93.4024 81.1471 92.8101C82.5395 92.1295 84.1584 92.0008 85.7218 92.04C87.3486 92.0808 88.4589 93.5727 89.6878 94.348C92.3901 96.0527 97.4769 94.3886 99.5046 93.1633C102.169 91.5533 103.631 90.6357 104.957 89.9088C106.295 89.1758 108.218 88.5152 110.277 87.436C112.016 86.5238 113.538 85.6558 115.54 84.6995C117.047 83.9796 118.407 83.4743 120.253 83.1292C124.311 82.3705 125.526 83.9581 127.114 84.405C128.46 84.7838 129.82 84.7104 131.131 84.1468C132.372 83.6135 133.789 83.4944 135.339 83.159C137.189 82.7587 139.544 82.8635 140.988 82.5207C143.159 82.0052 145.994 81.0765 147.852 80.7603C149.382 80.5002 150.942 80.124 152.751 79.5321C154.664 78.9059 156.13 78.433 158.082 77.8863C159.742 77.4214 160.511 75.8578 161.277 74.7806C162.064 73.6738 163.543 72.7336 165.547 72.2554C166.532 72.0206 167.636 71.9182 168.555 71.425C168.944 71.2164 169.021 70.8539 169.044 70.5405C169.09 69.9125 168.774 69.2987 168.662 68.7261C168.546 68.1357 169.353 67.6785 169.894 67.3014C171.701 66.0398 175.175 66.3778 177.627 66.2732C179.92 66.1755 182.662 65.7389 183.898 66.2266C185.599 66.8977 184.396 73.6915 184.659 77.7347C184.813 80.1214 185.145 81.7706 185.344 88.3685C185.502 93.6046 185.427 103.638 185.415 108.969C185.401 115.546 185.092 117.717 184.958 120.272C184.872 121.914 184.636 123.645 184.377 125.236C184.26 125.953 184.061 126.632 183.829 127.298C183.273 128.891 180.896 129.263 178.317 130.094C176.792 130.585 170.808 130.686 162.674 130.7C159.796 130.705 159.454 130.648 151.42 130.653C143.387 130.658 127.672 130.713 112.075 130.811C96.4768 130.91 81.4719 131.051 73.3733 131.067C65.2747 131.082 64.537 130.969 63.668 130.789C62.799 130.608 61.8212 130.365 56.9103 129.796C51.9995 129.227 43.1854 128.34 38.0757 127.882C30.1693 127.175 28.4671 127.138 25.2845 127.131C24.4351 127.129 23.7657 127.28 20.5848 127.361C17.4038 127.443 11.7332 127.504 8.58967 127.52C5.44611 127.536 5.00142 127.505 4.66907 127.216C3.02351 125.786 3.11766 123.529 3.04631 119.586C2.97487 115.637 2.98497 108.765 3.08441 106.228C3.18303 103.711 3.45229 102.242 3.58811 100.895C3.6815 100.23 3.83396 99.5318 3.9924 98.3901C4.05411 97.6078 4.32752 98.9645 4.35201 97.734C6.75515 97.734 12.0212 97.8192 14.7462 98.0776C18.5883 98.4418 20.4285 97.6608 22.7887 97.2982C28.0447 96.4906 30.7148 98.7107 32.6855 99.6093C34.7701 100.56 36.701 101.516 38.0674 101.54C39.5134 101.566 42.1205 100.275 46.4255 99.8236C53.5499 99.0764 58.7052 99.7246 60.0694 99.509C64.9104 98.7439 66.0533 97.7614 67.4915 96.9351C69.7074 95.662 71.914 95.9189 73.5875 95.8027ZM73.5875 95.8027C73.6269 95.7999 73.6661 95.797 73.705 95.7938C74.3953 95.7373 75.443 95.7655 75.5422 95.9268C75.7775 96.309 75.3009 96.5518 74.7189 96.7291M73.5875 95.8027C71.4925 96.3106 69.6554 96.7583 70.4263 96.7793C71.3514 96.8045 73.7346 96.6618 74.7189 96.7291M74.7189 96.7291C75.1427 96.7581 75.3072 96.826 74.9841 96.963C74.5336 97.154 72.8853 97.4607 73.2397 97.1552C73.387 97.0283 74.1106 96.9144 74.7189 96.7291Z" stroke="#33787D" stroke-linecap="round"/>
<path d="M3.17573 123.771C3.11548 123.681 3.05523 123.591 3.0242 120.21C2.99316 116.828 2.99316 110.157 3.01746 106.476C3.05107 101.385 3.26702 99.9053 3.56799 94.5427C3.62542 93.5194 4.12923 93.6033 4.47485 93.6633C6.1482 93.954 8.25596 93.9145 11.3587 94.1565C13.4273 94.3179 14.1097 96.718 14.8766 98.0022C15.3895 98.861 16.187 99.4938 16.9099 99.9878C18.859 101.32 22.346 100.204 24.0439 99.8756C27.1076 99.2829 32.0873 98.0736 37.221 97.1603C40.367 96.6006 43.4812 95.9867 44.9216 95.6291C47.007 95.1114 50.8227 94.5982 52.6177 94.9974C53.9821 95.3008 55.0797 96.2551 56.5088 96.5629C58.338 96.9569 60.6653 96.6404 63.1694 96.2585C66.987 95.6763 68.9297 96.8625 71.7862 96.9406C73.5181 96.988 75.0338 96.9805 76.602 96.6531C78.2631 96.3063 80.12 97.3055 81.4222 97.7887C82.8351 98.3131 83.8654 99.2296 85.2726 99.9302C86.6572 100.619 89.0231 100.13 90.6559 99.6773C91.2806 99.5042 91.8085 98.8809 92.5325 98.4523C94.2654 97.4263 97.8267 98.9804 102.683 99.2907C104.174 99.386 108.446 99.4542 115.752 99.4391C126.028 99.4179 127.374 99.2144 128.605 98.7726C129.914 98.3033 131.133 96.4612 132.5 95.4907C133.832 94.546 135.123 93.542 136.418 93.0668C137.032 92.8419 137.956 92.8682 138.969 93.008C139.818 93.1252 140.206 93.9688 140.696 94.3155C142.424 95.5384 144.909 92.4113 146.535 92.0723C148.606 91.6407 149.479 93.2477 150.454 94.0848C151.769 95.2152 153.732 93.8615 155.209 93.8283C156.578 93.7975 157.291 94.8332 157.632 95.2619C158.327 96.1357 160.2 94.2599 161.865 94.0355C163.141 93.8635 163.838 95.0931 164.377 95.3607C165.624 95.9801 168.009 95.0469 171.241 94.7509C172.28 94.6558 173.077 93.9665 174.683 93.1368C176.065 92.4221 177.427 92.7838 178.717 92.9154C180.1 93.0565 181.495 92.2619 182.688 92.4073C184.878 92.6742 183.33 97.6755 183.485 99.0999C183.637 100.496 183.916 102.076 184.126 103.907C184.272 105.171 184.639 106.28 184.696 108.203C184.947 116.715 184.658 121.264 184.217 123.259C184.05 124.015 183.904 124.631 183.504 125.224C182.232 127.109 179.679 127.071 178.283 127.403C176.41 127.847 173.84 128.052 170.536 127.658C165.464 127.053 161.801 127.522 156.515 127.631C151.534 127.733 141.885 127.667 136.747 127.688C131.609 127.709 131.274 127.751 126.713 127.804C122.153 127.857 113.376 127.921 108.097 128.044C101.298 128.202 97.345 128.534 93.314 128.477C89.7177 128.425 87.7352 128.028 79.6248 127.669C74.2456 127.43 70.984 126.554 69.9398 126.522C68.7354 126.485 63.928 126.36 57.4713 126.333C55.1696 126.324 54.8476 126.253 51.6895 126.225C48.5315 126.197 42.5472 126.197 39.264 126.168C34.7639 126.129 32.9939 125.903 28.9205 125.814C27.7347 125.788 24.3406 125.677 17.5098 125.689C9.36879 125.703 4.68915 125.468 4.34514 124.914C4.17343 124.64 4.00755 124.379 3.87469 124.079C3.74184 123.779 3.3452 124.472 3.17573 123.771Z" fill="#215E4E" stroke="#215E4E" stroke-linecap="round"/>
<path d="M9.2814 74.5658C6.65289 74.9821 3.27284 75.9003 3 76.17C3.07731 77.6796 3.53852 79.035 3.61738 79.6621C3.69623 80.2891 3.84929 80.5953 4.15704 80.9036C5.71971 81.9603 8.75176 82.0338 10.9807 82.4419C12.8115 82.7771 14.7053 83.0131 16.6337 84.078C18.5912 85.159 19.9397 86.9539 20.9767 88.0353C21.6399 88.7269 22.5596 89.3507 24.4809 89.351C30.5999 89.3521 31.9945 89.0564 35.175 88.9326C37.3577 88.8476 39.7718 88.7848 42.6254 89.269C45.6057 89.7747 47.1627 90.2181 51.0179 90.1541C62.2698 89.9675 64.1974 89.3966 65.5681 89.226C67.1002 89.0353 69.1271 88.286 70.8993 87.3469C72.3348 86.5862 73.8742 85.6053 81.1779 85.2921C83.9627 85.1727 85.388 84.831 86.9889 84.8919L86.9982 84.8923C89.9871 85.006 95.4094 85.2122 100.818 83.2611C104.139 82.0633 105.89 80.4873 109.875 80.2669C114.985 79.9844 116.401 79.7074 117.833 79.3013C119.542 78.8165 121.781 77.4151 124.843 77.3492C127.367 77.2949 132.406 77.5191 137.806 77.2875C140.067 77.1905 140.753 77.0797 141.78 76.8132C145.098 75.9515 146.812 75.308 150.173 73.9572C153.386 72.6664 155.51 71.7973 157.647 70.7697C160.179 69.5521 167.498 66.0455 172.884 66.053C176.921 66.0586 180.26 66.1584 182.421 66.1779C182.43 66.0025 182.449 65.7535 182.495 65.5134C182.83 63.7647 183.444 61.3898 183.892 59.5105C184.341 57.6283 184.875 56.3422 184.985 54.8393C185.131 52.8548 186.997 44.426 184.267 45.031C183.491 45.203 182.344 45.5367 180.597 46.5901C179.245 47.4048 177.938 48.1109 176.465 48.3755C174.73 48.687 173.175 49.0305 171.497 49.1706C169.575 49.331 167.522 49.2561 166.226 49.9121C164.874 50.5967 163.43 51.4663 161.846 52.6493C159.56 54.3563 156.216 56.1964 153.723 58.5487C151.522 60.6256 150.595 61.7499 149.365 63.1131C147.521 65.1547 146.672 66.7589 143.807 68.6997C142.276 69.737 141.004 70.5744 139.506 70.7914C137.878 71.0271 135.215 71.7083 132.929 71.8362C128.912 72.061 122.187 72.5368 120.272 72.6049C116.702 72.7318 111.587 72.9625 109.555 73.4495C108.009 73.8198 106.395 74.5681 104.686 75.0904C102.603 75.7274 101.019 76.5494 96.7259 76.3281C93.5819 76.1661 91.087 76.3633 89.0999 76.5652C86.8378 76.7952 85.5075 77.6569 83.8858 77.9799C81.7073 78.4137 79.01 78.7887 76.9893 79.2746C74.9255 79.7708 70.8405 80.5864 68.0999 81.55C66.6408 82.063 64.9016 82.2195 62.9515 82.2744C58.0811 82.4118 53.9042 82.9743 51.7409 82.9514C48.5941 82.9181 44.317 82.6794 41.3677 82.5118C39.4036 82.4002 36.936 83.5795 36.8473 82.4767C36.8312 82.2757 37.3156 81.7238 37.1226 81.6135C36.7364 81.3928 35.6688 81.7564 34.388 81.7746C32.7125 81.7984 31.0917 81.7903 29.3077 81.2899C27.3448 80.7393 25.9473 79.9735 24.4962 79.4036C23.0408 78.8321 21.1591 78.3159 19.6931 77.4847C18.1321 76.5996 17.0172 74.898 15.6369 74.5789C13.8252 74.16 10.9614 74.2997 9.2814 74.5658Z" fill="#F0E7BC"/>
<path d="M183.279 62.4482C183.04 63.4796 182.68 65.3366 182.501 66.1786C183.959 66.1905 184.863 66.164 185.063 66.0432C185.289 65.9062 185.446 65.582 185.398 65.0602C185.185 62.7373 185.697 55.0873 184.89 57.1281C184.465 58.2047 183.881 59.8483 183.279 62.4482Z" fill="#F0E7BC"/>
<path d="M86.9889 84.8919C85.388 84.831 83.9627 85.1727 81.1779 85.2921C73.8742 85.6053 72.3348 86.5862 70.8993 87.3469C69.1271 88.286 67.1002 89.0353 65.5681 89.226C64.1974 89.3966 62.2698 89.9675 51.0179 90.1541C47.1627 90.2181 45.6057 89.7747 42.6254 89.269C39.7718 88.7848 37.3577 88.8476 35.175 88.9326C31.9945 89.0564 30.5999 89.3521 24.4809 89.351C22.5596 89.3507 21.6399 88.7269 20.9767 88.0353C19.9397 86.9539 18.5912 85.159 16.6337 84.078C14.7053 83.0131 12.8115 82.7771 10.9807 82.4419C8.75176 82.0338 5.71971 81.9603 4.15704 80.9036C3.84929 80.5953 3.69623 80.2891 3.61738 79.6621C3.53852 79.035 3.07731 77.6796 3 76.17C3.27284 75.9003 6.65289 74.9821 9.2814 74.5658C10.9614 74.2997 13.8252 74.16 15.6369 74.5789C17.0172 74.898 18.1321 76.5996 19.6931 77.4847C21.1591 78.3159 23.0408 78.8321 24.4962 79.4036C25.9473 79.9735 27.3448 80.7393 29.3077 81.2899C31.0917 81.7903 32.7125 81.7984 34.388 81.7746C35.6688 81.7564 36.7364 81.3928 37.1226 81.6135C37.3156 81.7238 36.8312 82.2757 36.8473 82.4767C36.936 83.5795 39.4036 82.4002 41.3677 82.5118C44.317 82.6794 48.5941 82.9181 51.7409 82.9514C53.9042 82.9743 58.0811 82.4118 62.9515 82.2744C64.9016 82.2195 66.6408 82.063 68.0999 81.55C70.8405 80.5864 74.9255 79.7708 76.9893 79.2746C79.01 78.7887 81.7073 78.4137 83.8858 77.9799C85.5075 77.6569 86.8378 76.7952 89.0999 76.5652C91.087 76.3633 93.5819 76.1661 96.7259 76.3281C101.019 76.5494 102.603 75.7274 104.686 75.0904C106.395 74.5681 108.009 73.8198 109.555 73.4495C111.587 72.9625 116.702 72.7318 120.272 72.6049C122.187 72.5368 128.912 72.061 132.929 71.8362C135.215 71.7083 137.878 71.0271 139.506 70.7914C141.004 70.5744 142.276 69.737 143.807 68.6997C146.672 66.7589 147.521 65.1547 149.365 63.1131C150.595 61.7499 151.522 60.6256 153.723 58.5487C156.216 56.1964 159.56 54.3563 161.846 52.6493C163.43 51.4663 164.874 50.5967 166.226 49.9121C167.522 49.2561 169.575 49.331 171.497 49.1706C173.175 49.0305 174.73 48.687 176.465 48.3755C177.938 48.1109 179.245 47.4048 180.597 46.5901C182.344 45.5367 183.491 45.203 184.267 45.031C186.997 44.426 185.131 52.8548 184.985 54.8393C184.875 56.3422 184.341 57.6283 183.892 59.5105C183.444 61.3898 182.83 63.7647 182.495 65.5134C182.449 65.7535 182.43 66.0025 182.421 66.1779M86.9889 84.8919L86.9982 84.8923M86.9889 84.8919C86.992 84.8921 86.9951 84.8922 86.9982 84.8923M86.9982 84.8923C89.9871 85.006 95.4094 85.2122 100.818 83.2611C104.139 82.0633 105.89 80.4873 109.875 80.2669C114.985 79.9844 116.401 79.7074 117.833 79.3013C119.542 78.8165 121.781 77.4151 124.843 77.3492C127.367 77.2949 132.406 77.5191 137.806 77.2875C140.067 77.1905 140.753 77.0797 141.78 76.8132C145.098 75.9515 146.812 75.308 150.173 73.9572C153.386 72.6664 155.51 71.7973 157.647 70.7697C160.179 69.5521 167.498 66.0455 172.884 66.053C176.921 66.0586 180.26 66.1584 182.421 66.1779M182.421 66.1779C182.415 66.3084 182.706 64.4848 182.704 64.5C182.657 64.8655 182.409 66.6151 182.501 66.1786M182.421 66.1779C182.448 66.1782 182.475 66.1784 182.501 66.1786M182.501 66.1786C182.68 65.3366 183.04 63.4796 183.279 62.4482C183.881 59.8483 184.465 58.2047 184.89 57.1281C185.697 55.0873 185.185 62.7373 185.398 65.0602C185.446 65.582 185.289 65.9062 185.063 66.0432C184.863 66.164 183.959 66.1905 182.501 66.1786Z" stroke="#F0E7BC" stroke-linecap="round"/>
<path d="M163.405 33.9216C163.904 34.6649 164.539 35.5711 164.627 35.5871C166.012 35.6049 168.108 35.5652 169.817 35.3836C171.525 35.2019 172.811 34.8992 173.555 34.6956C174.507 34.435 175.57 33.9639 176.298 33.4876C176.957 33.0557 177.909 32.4415 178.344 32.1837C178.786 31.922 179.393 31.401 179.849 30.9539C180.38 30.4326 180.79 30.0519 181.181 29.4298C181.477 28.9588 181.883 28.428 182.485 27.1619C182.751 26.6017 182.971 26.0652 183.286 25.3424C183.735 24.3115 184.028 23.7125 184.128 23.1566C184.212 22.6894 184.281 22.2508 184.337 21.8029C184.415 21.1762 184.435 20.4916 184.422 17.8627C184.416 16.4766 184.416 15.6921 184.365 15.4169C184.282 14.9638 184.211 14.0786 183.98 13.2776C183.771 12.5513 183.463 11.2718 183.165 10.5357C182.957 10.0206 182.763 9.43185 182.256 8.71195C181.891 8.19323 181.629 7.64869 181.251 7.11549C180.739 6.39261 180.366 5.60799 179.976 5.26553C179.363 4.7279 178.63 4.02511 178.211 3.84213C177.73 3.63172 177.043 3.42264 175.878 3.20223C175.025 3.04107 174.196 2.94096 171.996 2.51529C171.369 2.39395 170.198 2.13155 167.791 2.03379C166.384 1.97663 164.618 1.99226 163.244 2.07868C161.87 2.16511 160.913 2.29624 160.383 2.40589C159.223 2.64619 158.07 2.95895 157.501 3.1641C157.002 3.34357 156.461 3.57673 155.845 3.87524C155.074 4.2484 154.361 4.49584 153.824 5.03839C153.357 5.50884 152.987 6.0375 152.814 6.54905C152.647 7.0421 152.455 7.51816 152.408 8.54632C152.332 10.188 152.23 10.6512 152.214 12.4263C152.203 13.5523 152.219 15.4899 152.262 16.751C152.305 18.0121 152.352 18.5831 152.417 18.9161C152.565 19.6699 152.787 20.7119 152.954 21.328C153.118 21.9301 153.361 22.7703 153.765 23.8367C154.327 25.3184 154.865 26.6718 155.186 27.3517C155.528 28.0759 155.975 28.9409 156.262 29.4452C156.503 29.8686 156.945 30.2144 157.83 31.115C159.107 32.4147 159.62 33.1017 160.52 33.8316C161.591 34.701 161.896 35.1887 162.39 35.4273C162.43 35.4467 162.47 35.4623 162.508 35.4744C162.593 35.4843 162.682 35.4937 162.776 35.5026C163.328 35.4395 163.63 34.5983 163.405 33.9216C162.831 33.0687 162.435 32.4301 163.244 33.5968C163.313 33.6973 163.367 33.8071 163.405 33.9216Z" fill="#F0E7BC"/>
<path d="M162.39 35.4273C161.896 35.1887 161.591 34.701 160.52 33.8316C159.62 33.1017 159.107 32.4147 157.83 31.115C156.945 30.2144 156.503 29.8686 156.262 29.4452C155.975 28.9409 155.528 28.0759 155.186 27.3517C154.865 26.6718 154.327 25.3184 153.765 23.8367C153.361 22.7703 153.118 21.9301 152.954 21.328C152.787 20.7119 152.565 19.6699 152.417 18.9161C152.352 18.5831 152.305 18.0121 152.262 16.751C152.219 15.4899 152.203 13.5523 152.214 12.4263C152.23 10.6512 152.332 10.188 152.408 8.54632C152.455 7.51816 152.647 7.0421 152.814 6.54905C152.987 6.0375 153.357 5.50884 153.824 5.03839C153.726 5.11271 153.678 4.86672 153.606 4.94562C153.535 5.02453 153.468 5.10768 153.411 5.19909C153.158 5.66257 152.707 6.25763 152.365 6.92127C152.105 7.42438 151.969 7.93776 151.504 9.1489C151.35 9.55046 150.955 10.6627 150.548 12.8014C150.328 13.9549 150.155 15.2527 150.068 16.8178C149.981 18.3829 149.981 20.1614 150.049 21.6163C150.117 23.0712 150.239 24.1706 150.328 24.7733C150.475 25.7775 150.525 26.4368 150.886 27.4043C151.113 28.0145 151.61 28.952 152.423 29.9058C153.519 31.1901 154.43 32.1361 155.078 32.6448C155.533 33.0012 155.914 33.2101 156.819 33.5968C158.21 34.1913 159.67 34.6333 160.563 34.9598C161.121 35.164 161.51 35.3569 162.508 35.4744C162.47 35.4623 162.43 35.4467 162.39 35.4273Z" fill="#F0E7BC"/>
<path d="M164.627 35.5871C166.012 35.6049 168.108 35.5652 169.817 35.3836C171.525 35.2019 172.811 34.8992 173.555 34.6956C174.507 34.435 175.57 33.9639 176.298 33.4876C176.957 33.0557 177.909 32.4415 178.344 32.1837C178.786 31.922 179.393 31.401 179.849 30.9539C180.38 30.4326 180.79 30.0519 181.181 29.4298C181.477 28.9588 181.883 28.428 182.485 27.1619C182.751 26.6017 182.971 26.0652 183.286 25.3424C183.735 24.3115 184.028 23.7125 184.128 23.1566C184.212 22.6894 184.281 22.2508 184.337 21.8029C184.415 21.1762 184.435 20.4916 184.422 17.8627C184.416 16.4766 184.416 15.6921 184.365 15.4169C184.282 14.9638 184.211 14.0786 183.98 13.2776C183.771 12.5513 183.463 11.2718 183.165 10.5357C182.957 10.0206 182.763 9.43185 182.256 8.71195C181.891 8.19323 181.629 7.64869 181.251 7.11549C180.739 6.39261 180.366 5.60799 179.976 5.26553C179.363 4.7279 178.63 4.02511 178.211 3.84213C177.73 3.63172 177.043 3.42264 175.878 3.20223C175.025 3.04107 174.196 2.94096 171.996 2.51529C171.369 2.39395 170.198 2.13155 167.791 2.03379C166.384 1.97663 164.618 1.99226 163.244 2.07868C161.87 2.16511 160.913 2.29624 160.383 2.40589C159.223 2.64619 158.07 2.95895 157.501 3.1641C157.002 3.34357 156.461 3.57673 155.845 3.87524C155.074 4.2484 154.361 4.49584 153.824 5.03839M164.627 35.5871C164.539 35.5711 163.904 34.6649 163.405 33.9216M164.627 35.5871C163.846 35.577 163.249 35.5472 162.776 35.5026M153.824 5.03839C153.357 5.50884 152.987 6.0375 152.814 6.54905C152.647 7.0421 152.455 7.51816 152.408 8.54632C152.332 10.188 152.23 10.6512 152.214 12.4263C152.203 13.5523 152.219 15.4899 152.262 16.751C152.305 18.0121 152.352 18.5831 152.417 18.9161C152.565 19.6699 152.787 20.7119 152.954 21.328C153.118 21.9301 153.361 22.7703 153.765 23.8367C154.327 25.3184 154.865 26.6718 155.186 27.3517C155.528 28.0759 155.975 28.9409 156.262 29.4452C156.503 29.8686 156.945 30.2144 157.83 31.115C159.107 32.4147 159.62 33.1017 160.52 33.8316C161.591 34.701 161.896 35.1887 162.39 35.4273C162.43 35.4467 162.47 35.4623 162.508 35.4744M153.824 5.03839C153.726 5.11271 153.678 4.86672 153.606 4.94562C153.535 5.02453 153.468 5.10768 153.411 5.19909C153.158 5.66257 152.707 6.25763 152.365 6.92127C152.105 7.42438 151.969 7.93776 151.504 9.1489C151.35 9.55046 150.955 10.6627 150.548 12.8014C150.328 13.9549 150.155 15.2527 150.068 16.8178C149.981 18.3829 149.981 20.1614 150.049 21.6163C150.117 23.0712 150.239 24.1706 150.328 24.7733C150.475 25.7775 150.525 26.4368 150.886 27.4043C151.113 28.0145 151.61 28.952 152.423 29.9058C153.519 31.1901 154.43 32.1361 155.078 32.6448C155.533 33.0012 155.914 33.2101 156.819 33.5968C158.21 34.1913 159.67 34.6333 160.563 34.9598C161.121 35.164 161.51 35.3569 162.508 35.4744M163.405 33.9216C163.63 34.5983 163.328 35.4395 162.776 35.5026M163.405 33.9216C162.831 33.0687 162.435 32.4301 163.244 33.5968C163.313 33.6973 163.367 33.8071 163.405 33.9216ZM162.508 35.4744C162.593 35.4843 162.682 35.4937 162.776 35.5026M162.508 35.4744C162.603 35.5038 162.692 35.5121 162.776 35.5026" stroke="#F0E7BC" stroke-linecap="round"/>
<path d="M170.436 9.09239C170.286 9.07531 169.862 9.00953 168.037 9.00014C167.288 8.99628 166.765 9.07385 166.145 9.15143C165.458 9.23741 164.877 9.26078 164.411 9.29394C163.922 9.3287 163.44 9.62149 162.987 9.82493C162.606 9.99585 162.204 10.4305 161.789 10.7621C161.374 11.0937 161.068 11.5572 160.783 11.9889L160.782 11.9903C160.523 12.3832 160.211 12.8309 159.959 13.2C159.716 13.5551 159.504 13.981 159.277 14.5168C159.071 15.0063 158.754 15.4944 158.358 16.2077C158.11 16.6525 158.061 17.3149 158.003 20.1487C157.981 21.1797 158.096 21.713 158.127 22.1543C158.164 22.6696 158.41 23.1003 158.683 23.6407C159.04 24.344 159.754 25.0133 160.388 25.5281C160.774 25.8415 161.345 26.0896 162.135 26.4842C163.043 26.938 163.513 27.1279 164.054 27.2629C164.554 27.388 165.148 27.5061 165.921 27.6728C166.637 27.8269 167.755 27.9121 168.364 27.7668C169.219 27.5632 170.082 27.2895 170.788 27.0656L170.828 27.0531C171.568 26.8185 172.06 26.74 172.406 26.4102C172.947 25.8935 173.404 25.1199 173.736 24.5468C174.18 23.7792 174.546 23.221 174.937 22.5602C175.471 21.6565 175.763 21.2294 175.921 20.8002C176.069 20.3979 176.142 20.1085 176.127 19.9584C176.12 19.8932 175.991 19.8961 175.907 19.9363C175.498 20.1317 175.33 20.7223 174.89 21.4147C174.604 21.8633 174.333 22.238 174.058 22.5465C173.675 22.9772 172.838 23.1294 172.326 23.295C171.902 23.4318 171.331 23.5944 170.779 23.7984C170.114 24.0443 169.453 23.9807 168.804 23.8932C167.738 23.7496 166.916 23.0155 166.376 22.3615C165.797 21.6608 165.36 21.1023 164.968 20.7361C164.366 20.1743 164.063 19.7145 163.685 19.2452C163.357 18.8377 163.319 18.3231 163.273 17.8399C163.214 17.2146 163.18 16.7091 163.146 16.1722C163.098 15.4137 163.198 14.8312 163.284 14.2985C163.357 13.8453 163.538 13.3652 163.738 12.8934C163.96 12.3687 164.19 11.8479 164.493 11.4508C164.944 10.8613 165.461 10.6354 166.171 10.2441C167.075 9.74528 167.607 9.71295 168.58 9.41424C169.154 9.2715 169.529 9.18282 169.79 9.14036C169.939 9.12836 170.223 9.10756 170.436 9.09239Z" fill="#FFBD44"/>
<path d="M170.828 27.0531C171.568 26.8185 172.06 26.74 172.406 26.4102C172.947 25.8935 173.404 25.1199 173.736 24.5468C174.18 23.7792 174.546 23.221 174.937 22.5602C175.471 21.6565 175.763 21.2294 175.921 20.8002C176.069 20.3979 176.142 20.1085 176.127 19.9584C176.12 19.8932 175.991 19.8961 175.907 19.9363C175.498 20.1317 175.33 20.7223 174.89 21.4147C174.604 21.8633 174.333 22.238 174.058 22.5465C173.675 22.9772 172.838 23.1294 172.326 23.295C171.902 23.4318 171.331 23.5944 170.779 23.7984C170.114 24.0443 169.453 23.9807 168.804 23.8932C167.738 23.7496 166.916 23.0155 166.376 22.3615C165.797 21.6608 165.36 21.1023 164.968 20.7361C164.366 20.1743 164.063 19.7145 163.685 19.2452C163.357 18.8377 163.319 18.3231 163.273 17.8399C163.214 17.2146 163.18 16.7091 163.146 16.1722C163.098 15.4137 163.198 14.8312 163.284 14.2985C163.357 13.8453 163.538 13.3652 163.738 12.8934C163.96 12.3687 164.19 11.8479 164.493 11.4508C164.944 10.8613 165.461 10.6354 166.171 10.2441C167.075 9.74528 167.607 9.71295 168.58 9.41424C169.154 9.2715 169.529 9.18282 169.79 9.14036C169.939 9.12836 170.223 9.10756 170.436 9.09239C170.286 9.07531 169.862 9.00953 168.037 9.00014C167.288 8.99628 166.765 9.07385 166.145 9.15143C165.458 9.23741 164.877 9.26078 164.411 9.29394C163.922 9.3287 163.44 9.62149 162.987 9.82493C162.606 9.99585 162.204 10.4305 161.789 10.7621C161.374 11.0937 161.068 11.5572 160.783 11.9889L160.782 11.9903C160.523 12.3832 160.211 12.8309 159.959 13.2C159.716 13.5551 159.504 13.981 159.277 14.5168C159.071 15.0063 158.754 15.4944 158.358 16.2077C158.11 16.6525 158.061 17.3149 158.003 20.1487C157.981 21.1797 158.096 21.713 158.127 22.1543C158.164 22.6696 158.41 23.1003 158.683 23.6407C159.04 24.344 159.754 25.0133 160.388 25.5281C160.774 25.8415 161.345 26.0896 162.135 26.4842C163.043 26.938 163.513 27.1279 164.054 27.2629C164.554 27.388 165.148 27.5061 165.921 27.6728C166.637 27.8269 167.755 27.9121 168.364 27.7668C169.219 27.5632 170.082 27.2895 170.788 27.0656M170.828 27.0531L170.788 27.0656M170.828 27.0531C170.815 27.0572 170.802 27.0614 170.788 27.0656" stroke="#FFBD44" stroke-linecap="round"/>
<path d="M66.3361 57.066C66.1145 57.1152 65.3428 58.9588 65.2963 58.3747C65.2485 57.7749 65.4871 57.3509 65.6008 57.1439C65.5389 57.1488 65.4791 57.1528 65.4195 57.1558C65.3588 57.1609 65.3037 57.171 65.2021 57.1925C64.2964 57.6367 63.1715 58.6908 62.6795 58.7684C62.1356 58.8541 62.0391 58.92 61.9336 58.9791C61.8129 59.0468 61.3013 59.338 60.502 59.8486C59.8479 60.2664 59.4672 60.6961 59.1434 61.1713C58.6566 61.8859 58.4346 62.4919 58.2159 63.1222C58.0359 63.6407 57.683 64.551 57.4885 65.0616C57.195 65.8319 57.133 66.1985 57.09 66.5054C57.0435 66.8381 56.9925 67.7006 57.0009 68.743C57.0066 69.4517 57.1646 69.7772 57.4975 70.9685C57.5928 71.3095 57.65 71.5542 57.7072 71.839C57.7444 72.0237 57.9186 72.6261 58.1645 73.5196C58.3731 74.2773 58.4831 74.5247 58.6011 74.7894C58.6606 74.9227 58.7143 75.0547 58.8708 75.3538C59.2085 75.9995 59.5971 76.6538 59.931 77.0566C60.3706 77.5868 60.6358 77.7807 61.0235 78.0331C61.3173 78.2244 61.7444 78.3766 62.1017 78.5242C62.4482 78.6672 63.0064 78.9639 63.4014 79.1162C63.559 79.1769 63.7485 79.2237 63.929 79.265C64.0589 79.2947 64.7836 79.4098 65.8492 79.5479C66.501 79.6325 66.9799 79.6242 67.5297 79.6477C68.7421 79.6996 69.072 79.5982 69.595 79.5631C70.0434 79.533 70.8622 79.4578 71.4896 79.369C72.5353 79.2209 73.2257 78.9653 73.7732 78.7761C74.6145 78.4854 74.9816 78.4438 75.3433 78.3591C75.8246 78.2465 76.019 77.9926 76.6032 77.3096C76.8098 77.0681 76.9999 76.7314 77.2202 76.3311C77.691 75.4755 77.9533 74.7959 78.0375 74.4201C78.0797 74.2322 78.0922 74.0442 78.1023 73.376C78.1124 72.7078 78.1124 71.5634 78.1162 70.9165C78.1218 69.9593 78.1966 69.6513 78.2591 69.2029C78.287 69.0022 78.293 68.7541 78.3355 67.8009C78.3711 67.0015 78.371 65.5587 78.3519 64.6156C78.3245 63.2723 78.2049 62.8102 78.167 62.6638C78.0576 62.2411 78.0148 61.9807 77.8565 61.5288C77.5844 60.7526 77.2617 60.4981 77.0382 60.2361C76.8353 59.9982 76.5189 59.745 76.289 59.5452C75.6249 58.9684 74.6849 58.4534 74.4022 58.3043C73.9795 58.0814 73.6766 58.0162 73.1358 57.8601C72.2034 57.5909 71.5083 57.3722 71.234 57.3168C70.4037 57.1493 70.0947 57.121 69.7963 57.1014C69.5909 57.0879 69.3436 57.0678 68.7737 57.0462C67.5843 57.0012 66.6464 57.0465 66.3447 57.065L66.3361 57.066Z" fill="#F5EFE1"/>
<path d="M66.3447 57.065C66.6464 57.0465 67.5843 57.0012 68.7737 57.0462C69.3436 57.0678 69.5909 57.0879 69.7963 57.1014C70.0947 57.121 70.4037 57.1493 71.234 57.3168C71.5083 57.3722 72.2034 57.5909 73.1358 57.8601C73.6766 58.0162 73.9795 58.0814 74.4022 58.3043C74.6849 58.4534 75.6249 58.9684 76.289 59.5452C76.5189 59.745 76.8353 59.9982 77.0382 60.2361C77.2617 60.4981 77.5844 60.7526 77.8565 61.5288C78.0148 61.9807 78.0576 62.2411 78.167 62.6638M66.3447 57.065L66.3361 57.066M66.3447 57.065C66.3419 57.0654 66.339 57.0657 66.3361 57.066M65.2021 57.1925C64.2964 57.6367 63.1715 58.6908 62.6795 58.7684C62.1356 58.8541 62.0391 58.92 61.9336 58.9791C61.8129 59.0468 61.3013 59.338 60.502 59.8486C59.8479 60.2664 59.4672 60.6961 59.1434 61.1713C58.6566 61.8859 58.4346 62.4919 58.2159 63.1222C58.0359 63.6407 57.683 64.551 57.4885 65.0616C57.195 65.8319 57.133 66.1985 57.09 66.5054C57.0435 66.8381 56.9925 67.7006 57.0009 68.743C57.0066 69.4517 57.1646 69.7772 57.4975 70.9685C57.5928 71.3095 57.65 71.5542 57.7072 71.839C57.7444 72.0237 57.9186 72.6261 58.1645 73.5196C58.3731 74.2773 58.4831 74.5247 58.6011 74.7894C58.6606 74.9227 58.7143 75.0547 58.8708 75.3538C59.2085 75.9995 59.5971 76.6538 59.931 77.0566C60.3706 77.5868 60.6358 77.7807 61.0235 78.0331C61.3173 78.2244 61.7444 78.3766 62.1017 78.5242C62.4482 78.6672 63.0064 78.9639 63.4014 79.1162C63.559 79.1769 63.7485 79.2237 63.929 79.265C64.0589 79.2947 64.7836 79.4098 65.8492 79.5479C66.501 79.6325 66.9799 79.6242 67.5297 79.6477C68.7421 79.6996 69.072 79.5982 69.595 79.5631C70.0434 79.533 70.8622 79.4578 71.4896 79.369C72.5353 79.2209 73.2257 78.9653 73.7732 78.7761C74.6145 78.4854 74.9816 78.4438 75.3433 78.3591C75.8246 78.2465 76.019 77.9926 76.6032 77.3096C76.8098 77.0681 76.9999 76.7314 77.2202 76.3311C77.691 75.4755 77.9533 74.7959 78.0375 74.4201C78.0797 74.2322 78.0922 74.0442 78.1023 73.376C78.1124 72.7078 78.1124 71.5634 78.1162 70.9165C78.1218 69.9593 78.1966 69.6513 78.2591 69.2029C78.287 69.0022 78.293 68.7541 78.3355 67.8009C78.3711 67.0015 78.371 65.5587 78.3519 64.6156M65.2021 57.1925C65.3037 57.171 65.3588 57.1609 65.4195 57.1558C65.4791 57.1528 65.5389 57.1488 65.6008 57.1439M65.2021 57.1925C65.7038 56.9465 65.7112 56.9429 65.6008 57.1439M78.3519 64.6156C78.3245 63.2705 78.2047 62.8095 78.167 62.6638M78.3519 64.6156C78.3245 63.2723 78.2049 62.8102 78.167 62.6638M66.3361 57.066C66.1145 57.1152 65.3428 58.9588 65.2963 58.3747C65.2485 57.7749 65.4871 57.3509 65.6008 57.1439M66.3361 57.066C66.0264 57.1018 65.8027 57.1279 65.6008 57.1439" stroke="#F5EFE1" stroke-linecap="round"/>
<path d="M69.4467 66.1437C69.2992 66.1283 68.7523 66.0972 67.7994 66.0074C66.6016 65.8946 65.5558 67.0962 65.2058 67.6569C64.905 68.1388 64.9898 68.9583 65.1099 69.5687C65.2222 70.1399 65.8235 70.4364 66.2727 70.753C66.694 71.0501 67.4185 71.0464 69.215 71.0001C69.5859 70.9905 69.7047 70.9691 69.8263 70.881C70.3962 70.4679 70.4825 69.6686 70.5481 69.1113C70.6305 68.4099 70.5263 67.5728 70.2796 67.1436C70.0139 66.6813 69.9369 66.4258 69.4467 66.1437Z" fill="#FFBD44"/>
<path d="M69.4467 66.1437C69.2992 66.1283 68.7523 66.0972 67.7994 66.0074C66.6016 65.8946 65.5558 67.0962 65.2058 67.6569C64.905 68.1388 64.9898 68.9583 65.1099 69.5687C65.2222 70.1399 65.8235 70.4364 66.2727 70.753C66.694 71.0501 67.4185 71.0464 69.215 71.0001C69.5859 70.9905 69.7047 70.9691 69.8263 70.881C70.3962 70.4679 70.4825 69.6686 70.5481 69.1113C70.6305 68.4099 70.5263 67.5728 70.2796 67.1436C70.0139 66.6813 69.9369 66.4258 69.4467 66.1437ZM69.4467 66.1437C69.3337 66.094 68.7047 66.08 68.5909 66.058C68.477 66.036 68.3648 66.0188 68.197 66.0267" stroke="#FFBD44" stroke-linecap="round"/>
<path d="M12.1464 54.0054C12.0407 53.9975 11.7938 53.9815 11.5175 54.1004C11.1788 54.246 10.7692 54.6791 10.4036 55.0518C10.0454 55.4171 9.48645 55.8985 9.26987 56.2523C9.10638 56.5193 9.04521 56.8185 9.01336 57.193C8.94017 58.0534 9.18262 58.7015 9.37746 59.1728C9.49048 59.4462 9.77784 59.6037 10.0477 59.8111C10.1569 59.895 10.333 59.9284 10.8068 59.957C11.7863 60.0161 12.6103 59.9386 12.9344 59.8838C13.2986 59.8222 13.4788 59.6056 14.1459 58.9064C14.5624 58.4698 14.7586 58.3058 14.8887 58.0545C15.0683 57.7077 15.0445 57.3161 15.0871 56.9878C15.1572 56.4475 14.9387 55.9756 14.8652 55.6939C14.7865 55.3924 14.6614 55.1837 14.5576 54.9893C14.3565 54.7851 14.0381 54.5373 13.5397 54.3482C13.2648 54.2772 12.7192 54.1278 12.1464 54.0054Z" fill="#F5EFE1" stroke="#F5EFE1" stroke-linecap="round"/>
<path d="M12.8637 56.0075C12.8368 56.0075 12.8042 56.008 12.768 56.009C12.595 56.0139 12.3409 56.0315 12.2527 56.0707C12.0067 56.1799 11.9961 56.6824 12.0007 57.0249C12.0031 57.2028 12.2385 57.2465 12.4141 57.27C12.7338 57.3128 13.0026 57.2465 13.1183 57.1465C13.4043 56.8996 13.2782 56.553 13.2365 56.3713C13.1114 56.2513 13.0034 56.0789 12.8637 56.0075Z" fill="#FFBD44"/>
<path d="M12.8637 56.0075C13.0034 56.0789 13.1114 56.2513 13.2365 56.3713C13.2782 56.553 13.4043 56.8996 13.1183 57.1465C13.0026 57.2465 12.7338 57.3128 12.4141 57.27C12.2385 57.2465 12.0031 57.2028 12.0007 57.0249C11.9961 56.6824 12.0067 56.1799 12.2527 56.0707C12.3409 56.0315 12.595 56.0139 12.768 56.009M12.8637 56.0075C12.8368 56.0075 12.8042 56.008 12.768 56.009M12.8637 56.0075C12.837 55.9951 12.8035 55.9998 12.768 56.009M12.6196 56.041C12.664 56.0443 12.718 56.0221 12.768 56.009" stroke="#FFBD44" stroke-linecap="round"/>
<path d="M29.2096 55.2282C29.2006 55.2296 29.1917 55.2291 29.1828 55.2268C29.0877 55.2025 28.9944 54.9827 28.8282 55.0009C28.6736 55.0179 28.4728 55.0461 28.1224 55.1399C27.4993 55.3067 26.9772 55.5241 26.6386 55.6982C26.1952 55.9263 25.9178 56.1272 25.7959 56.2306C25.3043 56.648 24.6691 57.1897 24.3968 57.4419C24.043 57.7696 23.8526 58.1865 23.6205 58.5852C22.9748 59.6946 23.0117 60.0013 23.0022 60.2641C22.9877 60.6627 23.0437 61.1908 23.2478 61.8988C23.3765 62.345 23.6333 62.9437 23.7678 63.2845C23.9707 63.7984 24.1075 64.0362 24.2059 64.2232C24.3112 64.4231 24.574 64.6921 25.4978 65.3406C25.7197 65.4964 25.8532 65.5458 26.0995 65.6274C26.3458 65.709 26.7083 65.8103 27.3523 65.8808C27.9963 65.9514 28.9108 65.9882 29.4923 65.9872C30.0738 65.9862 30.2945 65.9463 30.5712 65.868C31.1804 65.6954 31.5924 65.5105 31.7423 65.4093C31.8843 65.3134 32.1877 64.7216 32.6516 63.862C33.1106 63.0113 33.0966 62.7587 33.1992 62.3908C33.3319 61.9152 33.3053 61.6141 33.3254 61.2727C33.3364 61.0867 33.3563 60.5533 33.3317 59.7667C33.3124 59.1513 33.1855 58.8317 33.0838 58.4957C32.8499 57.7231 32.7025 57.1571 32.6242 57.0046C32.3793 56.5269 32.207 56.3207 31.8735 55.9236C31.5969 55.5944 31.3282 55.625 30.8674 55.5596C29.9658 55.4316 29.448 55.2753 29.2096 55.2282Z" fill="#FFBD44"/>
<path d="M29.2096 55.2282C29.448 55.2753 29.9658 55.4316 30.8674 55.5596C31.3282 55.625 31.5969 55.5944 31.8735 55.9236C32.207 56.3207 32.3793 56.5269 32.6242 57.0046C32.7025 57.1571 32.8499 57.7231 33.0838 58.4957C33.1855 58.8317 33.3124 59.1513 33.3317 59.7667C33.3563 60.5533 33.3364 61.0867 33.3254 61.2727C33.3053 61.6141 33.3319 61.9152 33.1992 62.3908C33.0966 62.7587 33.1106 63.0113 32.6516 63.862C32.1877 64.7216 31.8843 65.3134 31.7423 65.4093C31.5924 65.5105 31.1804 65.6954 30.5712 65.868C30.2945 65.9463 30.0738 65.9862 29.4923 65.9872C28.9108 65.9882 27.9963 65.9514 27.3523 65.8808C26.7083 65.8103 26.3458 65.709 26.0995 65.6274C25.8532 65.5458 25.7197 65.4964 25.4978 65.3406C24.574 64.6921 24.3112 64.4231 24.2059 64.2232C24.1075 64.0362 23.9707 63.7984 23.7678 63.2845C23.6333 62.9437 23.3765 62.345 23.2478 61.8988C23.0437 61.1908 22.9877 60.6627 23.0022 60.2641C23.0117 60.0013 22.9748 59.6946 23.6205 58.5852C23.8526 58.1865 24.043 57.7696 24.3968 57.4419C24.6691 57.1897 25.3043 56.648 25.7959 56.2306C25.9178 56.1272 26.1952 55.9263 26.6386 55.6982C26.9772 55.5241 27.4993 55.3067 28.1224 55.1399C28.4728 55.0461 28.6736 55.0179 28.8282 55.0009C28.9944 54.9827 29.0877 55.2025 29.1828 55.2268M29.2096 55.2282C29.2006 55.2296 29.1917 55.2291 29.1828 55.2268M29.2096 55.2282C29.2006 55.2277 29.1917 55.2272 29.1828 55.2268M28.6075 55.2753C28.6816 55.2582 28.7202 55.2499 28.7619 55.241C28.8434 55.2238 28.9964 55.2181 29.1828 55.2268" stroke="#FFBD44" stroke-linecap="round"/>
<path d="M28.6482 59C28.4261 59 28.0106 59.0249 27.7981 59.1239C27.5853 59.2231 27.4754 59.3858 27.2233 59.6631C27.0091 59.8986 26.997 60.1787 27.0004 60.5265C27.0021 60.6961 27.1091 60.8347 27.2259 60.9363C27.311 61.0104 27.4825 61.0102 27.8864 60.9842C29.3377 60.8907 29.7395 60.7012 29.8413 60.6393C30.0022 60.5414 29.9885 60.1471 29.9998 59.7759C30.0047 59.6151 29.9166 59.4934 29.8458 59.4129C29.7222 59.2724 29.4686 59.2275 28.9803 59.1412C28.8748 59.1208 28.6914 59.0107 28.6482 59Z" fill="#F0E7BC"/>
<path d="M28.6482 59C28.4261 59 28.0106 59.0249 27.7981 59.1239C27.5853 59.2231 27.4754 59.3858 27.2233 59.6631C27.0091 59.8986 26.997 60.1787 27.0004 60.5265C27.0021 60.6961 27.1091 60.8347 27.2259 60.9363C27.311 61.0104 27.4825 61.0102 27.8864 60.9842C29.3377 60.8907 29.7395 60.7012 29.8413 60.6393C30.0022 60.5414 29.9885 60.1471 29.9998 59.7759C30.0047 59.6151 29.9166 59.4934 29.8458 59.4129C29.7222 59.2724 29.4686 59.2275 28.9803 59.1412C28.8748 59.1208 28.6914 59.0107 28.6482 59ZM28.6482 59C28.605 58.9893 28.7034 59.0784 28.6122 59.0697" stroke="#F0E7BC" stroke-linecap="round"/>
<path d="M2.03163 11C2.76059 11.1675 5.8184 12.2376 7.62333 13.2097C8.82063 13.8545 9.35316 15.2644 10.2147 16.6612C11.4696 18.6958 12.0235 19.8169 12.904 21.3277C13.6636 22.6312 14.5117 23.8999 15.3288 24.9794C16.4839 26.5055 17.9618 27.4562 19.9846 28.7006C23.7516 31.018 26.3426 30.7463 28.0478 31.1286C31.8 31.9697 36.9608 31.1336 39.9555 30.974C42.5389 30.8362 46.5222 30.2553 50.5202 28.8663C52.3864 28.218 54.0926 26.0242 56.2157 24.385C57.5439 23.3596 58.5616 22.3401 60.2072 21.1583C64.4131 18.1381 65.9573 18.0346 68.2774 16.7725C70.7768 15.413 72.0903 15.2091 73.8369 14.6232C76.2222 13.8229 78.0013 13.3103 80.1114 12.9866C85.8124 12.112 87.2916 13.3247 88.7879 13.3798C90.5185 13.4435 91.8818 13.6609 93.3117 13.8042C94.9994 13.9733 96.2773 14.2292 98.1032 14.7229C99.4444 15.0857 100.751 15.4249 102.186 15.9146C104.091 16.5649 105.647 17.1085 107.233 17.8956C110.477 19.5061 112.05 20.2447 113.27 21.3683C114.35 22.3638 115.052 23.436 115.713 24.4702C116.401 25.5455 117.031 26.7364 117.715 28.5291C118.246 29.9206 118.417 31.769 118.533 33.5271C118.623 34.8908 118.857 37.3313 118.691 39.3516C118.579 40.7016 118.296 41.9436 118.169 43.1862C118.029 44.5521 116.302 46.4465 114.882 47.7163C113.843 48.6452 110.899 49.6743 107.786 50.3214C103.307 51.2525 100.185 49.7138 98.5181 49.2246C97.6026 48.9558 96.649 48.5927 95.8393 48.1394C94.5821 47.4358 94.5581 45.6062 94.1349 44.2531C93.3312 41.6836 93.1612 38.8953 92.7073 37.5924C92.0433 35.6866 90.5862 34.5771 89.3868 33.84C88.0693 33.0304 85.9649 32.5945 84.635 32.0726C83.4643 31.6132 80.2378 31.4648 73.7138 31.4088C71.5804 31.3905 70.3386 32.3514 69.1329 32.9785C67.5745 33.789 66.0146 34.7498 64.8462 35.529C63.1285 36.6746 61.7408 37.4773 60.5203 38.322C58.8786 39.4584 56.5862 40.4189 53.493 42.1303C48.6479 44.811 46.546 46.1482 44.0745 47.1801C41.4051 48.2947 37.4688 49.9808 32.6092 51.0021C24.8401 52.6349 21.7602 51.0095 18.7006 50.872C13.5673 50.6414 10.2197 49.6526 5.35241 47.5641C3.69758 46.854 3.97919 44.7488 3.71741 43.5059C3.4613 42.2898 3.15898 41.1262 3.04143 38.3116C2.98514 36.9638 2.98681 34.8648 2.9577 31.4467C2.92859 28.0287 2.89992 23.3543 2.87081 20.4795C2.73838 15.353 2.60168 13.9529 2.51043 12.4488C2.48753 11.97 1.85329 11.4931 2.03163 11Z" fill="#B6DBE6" stroke="#B6DBE6" stroke-linecap="round"/>
<path d="M90.9999 39.9586C90.9512 39.8594 90.7378 39.6928 90.6926 39.6006C90.3449 38.8914 89.6201 37.9802 88.8864 37.2704C88.3649 36.7659 87.6605 36.3773 86.7396 36.0621C85.6706 35.6962 84.7666 35.4595 83.3136 35.3876C80.1353 35.2302 79.2257 35.4046 77.2471 35.8418C76.1775 36.0782 75.6654 36.838 75.1301 37.3857C74.4427 38.089 73.5645 39.0594 73.0702 39.9586C72.0019 41.9019 71.7263 42.6413 71.6605 43.8966C71.5472 46.0569 71.7118 46.868 71.8238 47.5603C71.8405 47.6639 71.8561 47.7649 71.8694 47.8673C71.9723 48.661 72.1821 49.3732 72.338 50.4537C72.6614 52.6951 72.9878 53.4898 73.2516 54.2386C73.495 54.9294 74.0285 55.6425 74.4657 56.4863C74.8269 57.1833 76.0986 58.6164 76.9652 59.5057C77.7017 60.2615 79.4667 61.2481 82.9981 62.4774C86.3334 63.6385 88.8769 63.7264 89.5139 63.7134C89.9394 63.7047 92.0223 63.6475 95.0185 63.6258C96.2541 63.6168 98.2349 63.4266 101.069 63.1892C103.321 63.0006 104.885 61.4316 105.934 60.8726C106.917 60.3491 107.518 59.4061 108.799 58.7203C109.577 58.3035 110.125 57.8807 110.916 57.3216C111.603 56.8352 112.419 56.5356 113.183 56.1422C114.642 55.3913 115.8 54.7052 116.47 54.4775C117.422 54.1544 118.621 53.9117 119.89 53.6125C121.564 53.218 123.859 53.1827 125.535 53.3571C126.812 53.49 127.459 54.2688 128.366 55.0668C129.854 56.3779 130.351 57.011 130.633 57.8414C130.942 58.7534 130.643 60.0129 130.528 60.6648C130.406 61.3526 130.089 62.0558 129.86 62.6598C129.749 62.9498 129.589 63.236 129.371 63.5068C128.911 64.0803 127.179 64.2103 125.895 64.0346C125.097 63.9254 125.148 62.8342 125.05 62.1072C124.897 60.9724 125.245 60.2112 125.37 59.5903C125.402 59.4326 125.438 59.2726 125.392 59.1437C125.347 59.0147 125.22 58.9224 125.075 58.9199C124.422 58.9088 123.819 59.1519 123.027 59.3448C122.457 59.4836 122.095 59.9252 121.837 60.1383C121.334 60.5535 121.294 61.7592 121.217 62.9296C121.154 63.8954 121.807 64.7668 122.088 65.3328C122.367 65.8923 122.741 66.395 123.225 66.9619C124.036 67.9106 124.791 68.2082 125.475 68.6185C126.407 69.178 127.327 69.1041 128.152 69.2131C128.972 69.3215 130.468 69.3831 134.095 69.4819C135.431 69.5184 136.534 69.6558 137.364 69.7238C138.564 69.8222 140.185 69.1109 140.912 68.4926C141.593 67.9132 142.39 67.6867 142.727 67.3966C143.252 66.9453 143.246 65.396 143.492 62.8796C143.812 59.6137 143.47 57.2461 143.388 56.7868C143.242 55.967 142.819 54.2573 142.264 52.9319C141.789 51.7969 141.157 51.1465 140.444 50.3794C139.46 49.3214 138.589 48.8421 136.559 47.9838C133.88 46.8518 130.332 46.1746 129.433 45.9851C128.538 45.7966 126.878 45.4735 125.312 45.3946C123.221 45.2892 122.462 46.2043 121.582 46.492C120.813 46.7429 119.974 46.8558 119.075 47.104C118.392 47.2923 117.717 47.8193 117.091 48.3539C116.533 48.8307 115.907 49.3888 115.187 49.9687C114.394 50.6079 113.535 51.2273 112.13 52.3168C111.254 52.9959 110.471 53.675 109.139 54.6573L109.073 54.7063C108.376 55.2202 107.254 56.0485 106.074 56.7135C106.397 56.6278 106.711 56.5318 107.046 56.3901C107.874 56.0395 108.369 55.324 109.066 55.2637C109.129 55.2583 109.096 55.412 109.026 55.5541C108.737 56.1331 108.32 56.7857 107.176 57.1106C106.782 57.2226 105.785 57.3377 104.622 57.4232C102.189 58.4349 100.407 58.341 99.7075 58.3041L99.6904 58.3032C99.2269 58.2789 97.2291 57.5385 94.3369 56.6432C92.705 56.138 91.7922 55.6607 90.6852 55.1764C87.815 53.9208 87.1866 53.3687 86.8265 52.6865C86.4709 52.013 86.5666 51.3051 86.5873 50.9468C86.6206 50.3706 87.7144 52.0311 88.3708 52.6118C88.9063 53.0855 89.4482 53.4606 90.1731 54.0892C91.2977 55.0644 92.2114 55.3487 93.0044 55.756C94.2853 56.4138 95.0191 56.6805 96.7534 57.131C98.04 57.4651 99.3479 57.5279 100.764 57.5547C101.864 57.5755 103.343 57.5172 104.622 57.4232C104.821 57.3405 105.024 57.2503 105.232 57.1521C105.513 57.0193 105.795 56.8709 106.074 56.7135C105.638 56.8295 105.188 56.9265 104.654 57.0928C103.788 57.362 101.831 57.3519 100.49 57.2785C99.4187 57.2199 97.7906 57.1722 96.7541 57.0315C95.9212 56.9184 95.5853 55.871 93.7758 53.5586C92.4715 51.8918 92.5286 51.0334 92.4654 50.2483C92.3779 49.1607 92.3931 48.0804 92.4522 47.04C92.522 45.8142 92.0347 44.2064 91.8109 43.079C91.6224 42.1293 91.4028 41.0393 90.9999 39.9586Z" fill="#B6DBE6"/>
<path d="M88.8864 37.2704C89.6201 37.9802 90.3449 38.8914 90.6926 39.6006C90.7378 39.6928 90.9512 39.8594 90.9999 39.9586C90.7246 39.2202 90.275 38.4483 90.0416 37.8779C89.6481 36.9165 89.1203 36.4528 88.2851 35.8069C87.5979 35.2755 86.8444 35.001 86.029 34.6888C85.076 34.3239 84.4093 34.1938 83.7861 34.1376C83.1675 34.0819 82.4428 34.0082 79.9899 34C78.9273 33.9965 78.2076 34.2274 77.5585 34.3189C76.7621 34.4312 75.9642 34.7025 75.2605 34.9538C74.3873 35.2657 73.522 36.2142 72.906 36.9815C72.231 37.8225 71.9708 38.9833 71.6898 39.7577C71.4678 40.3696 71.4663 41.0447 71.2774 42.0157C71.1855 42.8201 71.1357 43.4104 71.0545 43.969C71.0278 44.2116 71.6481 46.6619 71.8238 47.5603C71.7118 46.868 71.5472 46.0569 71.6605 43.8966C71.7263 42.6413 72.0019 41.9019 73.0702 39.9586C73.5645 39.0594 74.4427 38.089 75.1301 37.3857C75.6654 36.838 76.1775 36.0782 77.2471 35.8418C79.2257 35.4046 80.1353 35.2302 83.3136 35.3876C84.7666 35.4595 85.6706 35.6962 86.7396 36.0621C87.6605 36.3773 88.3649 36.7659 88.8864 37.2704Z" fill="#B6DBE6"/>
<path d="M94.3369 56.6432C97.2291 57.5385 99.2269 58.2789 99.6904 58.3032L99.7075 58.3041C100.407 58.341 102.189 58.4349 104.622 57.4232C103.343 57.5172 101.864 57.5755 100.764 57.5547C99.3479 57.5279 98.04 57.4651 96.7534 57.131C95.0191 56.6805 94.2853 56.4138 93.0044 55.756C92.2114 55.3487 91.2977 55.0644 90.1731 54.0892C89.4482 53.4606 88.9063 53.0855 88.3708 52.6118C87.7144 52.0311 86.6206 50.3706 86.5873 50.9468C86.5666 51.3051 86.4709 52.013 86.8265 52.6865C87.1866 53.3687 87.815 53.9208 90.6852 55.1764C91.7922 55.6607 92.705 56.138 94.3369 56.6432Z" fill="#B6DBE6"/>
<path d="M92.4522 47.04C92.397 46.8577 92.1643 42.8983 91.7505 41.8924C91.4281 41.1084 91.2723 40.5138 90.9999 39.9586M92.4522 47.04C92.3931 48.0804 92.3779 49.1607 92.4654 50.2483C92.5286 51.0334 92.4715 51.8918 93.7758 53.5586C95.5853 55.871 95.9212 56.9184 96.7541 57.0315C97.7906 57.1722 99.4187 57.2199 100.49 57.2785C101.831 57.3519 103.788 57.362 104.654 57.0928C105.188 56.9265 105.638 56.8295 106.074 56.7135M92.4522 47.04C92.522 45.8142 92.0347 44.2064 91.8109 43.079C91.6224 42.1293 91.4028 41.0393 90.9999 39.9586M71.8694 47.8673C71.9723 48.661 72.1821 49.3732 72.338 50.4537C72.6614 52.6951 72.9878 53.4898 73.2516 54.2386C73.495 54.9294 74.0285 55.6425 74.4657 56.4863C74.8269 57.1833 76.0986 58.6164 76.9652 59.5057C77.7017 60.2615 79.4667 61.2481 82.9981 62.4774C86.3334 63.6385 88.8769 63.7264 89.5139 63.7134C89.9394 63.7047 92.0223 63.6475 95.0185 63.6258C96.2541 63.6168 98.2349 63.4266 101.069 63.1892C103.321 63.0006 104.885 61.4316 105.934 60.8726C106.917 60.3491 107.518 59.4061 108.799 58.7203C109.577 58.3035 110.125 57.8807 110.916 57.3216C111.603 56.8352 112.419 56.5356 113.183 56.1422C114.642 55.3913 115.8 54.7052 116.47 54.4775C117.422 54.1544 118.621 53.9117 119.89 53.6125C121.564 53.218 123.859 53.1827 125.535 53.3571C126.812 53.49 127.459 54.2688 128.366 55.0668C129.854 56.3779 130.351 57.011 130.633 57.8414C130.942 58.7534 130.643 60.0129 130.528 60.6648C130.406 61.3526 130.089 62.0558 129.86 62.6598C129.749 62.9498 129.589 63.236 129.371 63.5068C128.911 64.0803 127.179 64.2103 125.895 64.0346C125.097 63.9254 125.148 62.8342 125.05 62.1072C124.897 60.9724 125.245 60.2112 125.37 59.5903C125.402 59.4326 125.438 59.2726 125.392 59.1437C125.347 59.0147 125.22 58.9224 125.075 58.9199C124.422 58.9088 123.819 59.1519 123.027 59.3448C122.457 59.4836 122.095 59.9252 121.837 60.1383C121.334 60.5535 121.294 61.7592 121.217 62.9296C121.154 63.8954 121.807 64.7668 122.088 65.3328C122.367 65.8923 122.741 66.395 123.225 66.9619C124.036 67.9106 124.791 68.2082 125.475 68.6185C126.407 69.178 127.327 69.1041 128.152 69.2131C128.972 69.3215 130.468 69.3831 134.095 69.4819C135.431 69.5184 136.534 69.6558 137.364 69.7238C138.564 69.8222 140.185 69.1109 140.912 68.4926C141.593 67.9132 142.39 67.6867 142.727 67.3966C143.252 66.9453 143.246 65.396 143.492 62.8796C143.812 59.6137 143.47 57.2461 143.388 56.7868C143.242 55.967 142.819 54.2573 142.264 52.9319C141.789 51.7969 141.157 51.1465 140.444 50.3794C139.46 49.3214 138.589 48.8421 136.559 47.9838C133.88 46.8518 130.332 46.1746 129.433 45.9851C128.538 45.7966 126.878 45.4735 125.312 45.3946C123.221 45.2892 122.462 46.2043 121.582 46.492C120.813 46.7429 119.974 46.8558 119.075 47.104C118.392 47.2923 117.717 47.8193 117.091 48.3539C116.533 48.8307 115.907 49.3888 115.187 49.9687C114.394 50.6079 113.535 51.2273 112.13 52.3168C111.254 52.9959 110.471 53.675 109.139 54.6573M71.8694 47.8673C71.8711 47.824 71.8541 47.7152 71.8238 47.5603M71.8694 47.8673C71.8561 47.7649 71.8405 47.6639 71.8238 47.5603M109.139 54.6573L109.073 54.7063M109.139 54.6573C109.118 54.6733 109.096 54.6896 109.073 54.7063M99.6904 58.3032C99.2269 58.2789 97.2291 57.5385 94.3369 56.6432C92.705 56.138 91.7922 55.6607 90.6852 55.1764C87.815 53.9208 87.1866 53.3687 86.8265 52.6865C86.4709 52.013 86.5666 51.3051 86.5873 50.9468C86.6206 50.3706 87.7144 52.0311 88.3708 52.6118C88.9063 53.0855 89.4482 53.4606 90.1731 54.0892C91.2977 55.0644 92.2114 55.3487 93.0044 55.756C94.2853 56.4138 95.0191 56.6805 96.7534 57.131C98.04 57.4651 99.3479 57.5279 100.764 57.5547C101.864 57.5755 103.343 57.5172 104.622 57.4232M99.6904 58.3032L99.7075 58.3041M99.6904 58.3032C99.696 58.3035 99.7017 58.3038 99.7075 58.3041M90.9999 39.9586C90.9512 39.8594 90.7378 39.6928 90.6926 39.6006C90.3449 38.8914 89.6201 37.9802 88.8864 37.2704C88.3649 36.7659 87.6605 36.3773 86.7396 36.0621C85.6706 35.6962 84.7666 35.4595 83.3136 35.3876C80.1353 35.2302 79.2257 35.4046 77.2471 35.8418C76.1775 36.0782 75.6654 36.838 75.1301 37.3857C74.4427 38.089 73.5645 39.0594 73.0702 39.9586C72.0019 41.9019 71.7263 42.6413 71.6605 43.8966C71.5472 46.0569 71.7118 46.868 71.8238 47.5603M90.9999 39.9586C90.7246 39.2202 90.275 38.4483 90.0416 37.8779C89.6481 36.9165 89.1203 36.4528 88.2851 35.8069C87.5979 35.2755 86.8444 35.001 86.029 34.6888C85.076 34.3239 84.4093 34.1938 83.7861 34.1376C83.1675 34.0819 82.4428 34.0082 79.9899 34C78.9273 33.9965 78.2076 34.2274 77.5585 34.3189C76.7621 34.4312 75.9642 34.7025 75.2605 34.9538C74.3873 35.2657 73.522 36.2142 72.906 36.9815C72.231 37.8225 71.9708 38.9833 71.6898 39.7577C71.4678 40.3696 71.4663 41.0447 71.2774 42.0157C71.1855 42.8201 71.1357 43.4104 71.0545 43.969C71.0278 44.2116 71.6481 46.6619 71.8238 47.5603M109.073 54.7063C108.376 55.2202 107.254 56.0485 106.074 56.7135M106.074 56.7135C106.397 56.6278 106.711 56.5318 107.046 56.3901C107.874 56.0395 108.369 55.324 109.066 55.2637C109.129 55.2583 109.096 55.412 109.026 55.5541C108.737 56.1331 108.32 56.7857 107.176 57.1106C106.782 57.2226 105.785 57.3377 104.622 57.4232M106.074 56.7135C105.795 56.8709 105.513 57.0193 105.232 57.1521C105.024 57.2503 104.821 57.3405 104.622 57.4232M104.622 57.4232C102.189 58.4349 100.407 58.341 99.7075 58.3041" stroke="#B6DBE6" stroke-linecap="round"/>
<path d="M65.4255 36.938C65.307 36.8594 64.469 36.2546 63.7757 36.0602C63.7316 36.0478 63.6881 36.0371 63.6454 36.0283C62.4383 35.7793 60.5219 37.2454 60.2573 37.6183C59.9788 38.0109 59.4665 38.5101 59.2166 39.0752C58.7142 40.211 59.2388 40.7955 59.2713 41.2559C59.3175 41.9105 59.4528 42.3306 59.6741 42.7333C59.9005 43.1453 60.3058 43.5024 60.8741 43.8558C61.5263 44.2614 62.4852 43.9396 63.3612 43.8419C63.9801 43.7729 64.873 43.6114 65.2712 43.3448C65.9378 42.8984 66.4332 41.7218 66.54 41.2735C66.6474 40.8226 66.7255 40.3929 66.8006 39.9345C66.9345 39.1171 66.7377 38.7411 66.6564 38.3356C66.5508 37.8088 66.0284 37.4028 65.4255 36.938Z" fill="#F5EFE1"/>
<path d="M65.4255 36.938C66.0284 37.4028 66.5508 37.8088 66.6564 38.3356C66.7377 38.7411 66.9345 39.1171 66.8006 39.9345C66.7255 40.3929 66.6474 40.8226 66.54 41.2735C66.4332 41.7218 65.9378 42.8984 65.2712 43.3448C64.873 43.6114 63.9801 43.7729 63.3612 43.8419C62.4852 43.9396 61.5263 44.2614 60.8741 43.8558C60.3058 43.5024 59.9005 43.1453 59.6741 42.7333C59.4528 42.3306 59.3175 41.9105 59.2713 41.2559C59.2388 40.7955 58.7142 40.211 59.2166 39.0752C59.4665 38.5101 59.9788 38.0109 60.2573 37.6183C60.5219 37.2454 62.4383 35.7793 63.6454 36.0283C63.6881 36.0371 63.7316 36.0478 63.7757 36.0602M65.4255 36.938C65.0103 36.6179 64.4943 36.3528 64.1475 36.1726C64.0594 36.1271 63.9649 36.086 63.8128 36.0648C63.8007 36.0631 63.7884 36.0616 63.7757 36.0602M65.4255 36.938C65.307 36.8594 64.469 36.2546 63.7757 36.0602M63.2406 36.0436C63.4369 36.0436 63.6279 36.0436 63.7757 36.0602" stroke="#F5EFE1" stroke-linecap="round"/>
<path d="M62.5988 39.0288C62.5851 39.0151 62.4835 38.9943 62.3034 39.0015C62.2153 39.005 62.1438 39.0782 62.0962 39.1514C61.8823 39.4802 62.0712 39.9807 62.2176 40.3379C62.2549 40.429 62.3123 40.5129 62.3854 40.5521C62.4585 40.5913 62.5522 40.5803 62.6612 40.513C62.9156 40.3558 63.0517 40.1108 63.1123 39.9362C63.1739 39.7588 63.1622 39.5626 63.1142 39.3954C63.073 39.3228 62.9976 39.2748 62.9047 39.2467C62.8118 39.2186 62.7518 39.0154 62.5988 39.0288Z" fill="#F0E7BC" stroke="#F0E7BC" stroke-linecap="round"/>
<path d="M41.5792 19.8899C42.532 20.7164 44.3284 21.8754 43.8306 21.5159C43.8578 21.5159 43.4596 22.2244 43.5 22.2451C43.9208 22.4606 45.4153 22.9948 45.5806 22.9902C45.7618 22.9852 45.8206 22.9754 45.946 22.9705C46.5074 22.9578 47.2349 22.9122 47.7993 22.8718C48.0915 22.8509 48.3698 22.8429 48.6793 22.805C49.0355 22.7615 49.7643 22.5189 50.2156 22.2698C50.599 22.0582 50.9886 21.9159 51.312 21.5241C51.511 21.2832 51.7686 21.0209 51.8463 20.7267C51.9807 20.2182 52.2541 19.0666 52.3677 18.5357C52.4471 18.1649 52.5379 17.7246 52.5155 17.3745C52.4658 16.5992 52.2881 15.7382 51.9447 15.0606C51.7756 14.7269 51.5681 14.3634 51.0585 13.8224L51.0258 13.7877C50.6364 13.3744 50.4033 13.1268 49.892 12.679C49.6449 12.4625 49.4369 12.2339 48.5187 12.0836C48.084 12.0124 47.5419 11.9312 46.6739 12.0986C45.3842 12.3472 44.5465 12.5367 44.385 12.6155C44.248 12.6823 44.0598 12.7689 43.827 12.8928C43.3579 13.1425 42.5799 13.6949 42.1759 14.1113C41.7045 14.5972 41.4401 14.9425 41.3138 15.2786C41.1528 15.7071 41.0029 16.0702 41.0009 16.7329C40.9971 17.9773 41.0034 18.8981 41.0648 19.1329C41.1277 19.3733 41.1931 19.555 41.5792 19.8899Z" fill="#F0E7BC"/>
<path d="M46.1785 22.2451C46.0925 22.2206 44.7386 22.6334 43.5 22.2451M43.8306 21.5159C44.3284 21.8754 42.532 20.7164 41.5792 19.8899C41.1931 19.555 41.1277 19.3733 41.0648 19.1329C41.0034 18.8981 40.9971 17.9773 41.0009 16.7329C41.0029 16.0702 41.1528 15.7071 41.3138 15.2786C41.4401 14.9425 41.7045 14.5972 42.1759 14.1113C42.5799 13.6949 43.3579 13.1425 43.827 12.8928C44.0598 12.7689 44.248 12.6823 44.385 12.6155C44.5465 12.5367 45.3842 12.3472 46.6739 12.0986C47.5419 11.9312 48.084 12.0124 48.5187 12.0836C49.4369 12.2339 49.6449 12.4625 49.892 12.679C50.4033 13.1268 50.6364 13.3744 51.0258 13.7877M43.8306 21.5159C43.8578 21.5159 43.4596 22.2244 43.5 22.2451M43.8306 21.5159C41.5792 19.8899 43.4662 22.2345 43.5 22.2451M51.0585 13.8224C51.5681 14.3634 51.7756 14.7269 51.9447 15.0606C52.2881 15.7382 52.4658 16.5992 52.5155 17.3745C52.5379 17.7246 52.4471 18.1649 52.3677 18.5357C52.2541 19.0666 51.9807 20.2182 51.8463 20.7267C51.7686 21.0209 51.511 21.2832 51.312 21.5241C50.9886 21.9159 50.599 22.0582 50.2156 22.2698C49.7643 22.5189 49.0355 22.7615 48.6793 22.805C48.3698 22.8429 48.0915 22.8509 47.7993 22.8718C47.2349 22.9122 46.5074 22.9578 45.946 22.9705C45.8206 22.9754 45.7618 22.9852 45.5806 22.9902C45.4153 22.9948 43.9208 22.4606 43.5 22.2451M51.0585 13.8224L51.0258 13.7877M51.0585 13.8224C51.0474 13.8107 51.0365 13.7992 51.0258 13.7877" stroke="#F0E7BC" stroke-linecap="round"/>
<path d="M48.4409 18.7163C48.6727 18.5036 48.8379 18.3221 48.8449 18.3221C48.9393 18.0757 49.0851 17.1099 48.8699 16.2826C48.7413 15.7884 48.5297 15.4734 48.2149 15.2026C48.1058 15.1088 47.4069 14.8679 46.4678 15.094C45.8384 15.2456 45.6072 15.3678 45.4221 15.5822C45.2358 15.798 45.1676 16.0213 45.1303 16.3369C45.0792 16.7695 44.9797 17.2205 45.0037 17.655C45.023 18.005 45.0172 18.4583 45.1986 18.7608C45.3385 18.994 46.1431 19.2928 47.2805 19.3808C47.6184 19.407 48.1012 19.028 48.4409 18.7163Z" fill="#FFBD44"/>
<path d="M48.8449 18.3221C48.9393 18.0757 49.0851 17.1099 48.8699 16.2826C48.7413 15.7884 48.5297 15.4734 48.2149 15.2026C48.1058 15.1088 47.4069 14.8679 46.4678 15.094C45.8384 15.2456 45.6072 15.3678 45.4221 15.5822C45.2358 15.798 45.1676 16.0213 45.1303 16.3369C45.0792 16.7695 44.9797 17.2205 45.0037 17.655C45.023 18.005 45.0172 18.4583 45.1986 18.7608C45.3385 18.994 46.1431 19.2928 47.2805 19.3808C47.6184 19.407 48.1012 19.028 48.4409 18.7163M48.8449 18.3221C48.8379 18.3221 48.6727 18.5036 48.4409 18.7163M48.8449 18.3221C48.7916 18.4611 48.6323 18.5951 48.4409 18.7163M46.5821 19.1486C46.7787 19.1486 46.9695 19.1486 47.0964 19.1447C47.2844 19.1331 47.5204 19.1169 47.7939 19.058C47.9836 18.9662 48.2315 18.8489 48.4409 18.7163" stroke="#FFBD44" stroke-linecap="round"/>
<path d="M18.4486 4.03801C18.4046 4.16696 18.0283 4.98058 18.0031 5.37915C17.9791 5.75866 18.0975 6.0907 18.2017 6.42198C18.3562 6.91336 18.953 7.54436 19.5525 8.07108C19.7908 8.28051 20.4679 8.4671 21.4477 8.70801C23.0652 9.10578 24.3861 8.84402 24.7223 8.71545C25.0814 8.57815 25.5809 8.16768 26.2193 7.82223C26.5722 7.63131 27.3196 7.32069 27.8311 7.04657C28.1627 6.86887 28.4476 6.49407 28.8122 6.06731C29.2324 5.5754 29.4525 5.32965 29.638 5.06043C29.7257 4.93308 29.78 4.78775 29.7535 4.65549C29.6378 4.078 28.5836 4.31381 27.8585 4.19795C27.3217 4.11219 26.5494 4.09693 26.0843 4.06478C25.8159 4.04622 25.5781 4.04655 24.3654 4.0239C23.2324 4.00275 21.0479 4.00288 19.8591 4.00049C18.6702 3.99809 18.543 4.00363 18.4486 4.03801Z" fill="#B6DBE6"/>
<path d="M18.4486 4.03801C18.4046 4.16696 18.0283 4.98058 18.0031 5.37915C17.9791 5.75866 18.0975 6.0907 18.2017 6.42198C18.3562 6.91336 18.953 7.54436 19.5525 8.07108C19.7908 8.28051 20.4679 8.4671 21.4477 8.70801C23.0652 9.10578 24.3861 8.84402 24.7223 8.71545C25.0814 8.57815 25.5809 8.16768 26.2193 7.82223C26.5722 7.63131 27.3196 7.32069 27.8311 7.04657C28.1627 6.86887 28.4476 6.49407 28.8122 6.06731C29.2324 5.5754 29.4525 5.32965 29.638 5.06043C29.7257 4.93308 29.78 4.78775 29.7535 4.65549C29.6378 4.078 28.5836 4.31381 27.8585 4.19795C27.3217 4.11219 26.5494 4.09693 26.0843 4.06478C25.8159 4.04622 25.5781 4.04655 24.3654 4.0239C23.2324 4.00275 21.0479 4.00288 19.8591 4.00049C18.6702 3.99809 18.543 4.00363 18.4486 4.03801ZM18.4486 4.03801C18.3542 4.07239 18.2964 4.13546 18.1174 4.36813" stroke="#B6DBE6" stroke-linecap="round"/>
<path d="M131.838 19.0244C131.477 19.0455 131.03 19.0813 130.499 19.1377C129.983 19.1926 129.581 19.3178 129 19.5652C127.991 19.9951 127.207 20.4746 126.551 20.8195C126.051 21.0818 125.704 21.4146 125.361 21.7511C124.8 22.3025 124.408 23.0849 124.178 23.6987C123.807 24.6883 124.113 25.9027 124.224 26.5782C124.317 27.1443 124.71 27.9935 125.127 28.9654C125.448 29.7101 125.947 30.1654 126.559 30.7457C126.942 31.1093 127.458 31.2067 128.163 31.436C129.945 32.0149 130.469 32.0106 131.548 32.1625C132.706 32.3256 133.499 31.9238 134.454 31.3727C135.735 30.6326 136.719 29.4158 136.917 29.0431C137.12 28.6614 137.217 28.2107 137.39 27.5893C137.687 26.527 137.65 26.1042 137.622 24.4841C137.591 22.7257 137.061 22.1997 136.694 21.7133C136.293 21.1816 136.059 20.7258 135.403 20.1554C134.894 19.7128 134.222 19.5462 133.617 19.3342C132.979 19.1103 132.599 19.07 132.13 19.0489C132.037 19.043 131.955 19.0324 131.838 19.0244Z" fill="#F5EFE1"/>
<path d="M132.45 19C132.286 19.0026 132.082 19.0101 131.838 19.0244M131.053 19.0109C131.309 19.0109 131.557 19.0109 131.734 19.0186C131.771 19.0203 131.806 19.0222 131.838 19.0244M131.838 19.0244C131.477 19.0455 131.03 19.0813 130.499 19.1377C129.983 19.1926 129.581 19.3178 129 19.5652C127.991 19.9951 127.207 20.4746 126.551 20.8195C126.051 21.0818 125.704 21.4146 125.361 21.7511C124.8 22.3025 124.408 23.0849 124.178 23.6987C123.807 24.6883 124.113 25.9027 124.224 26.5782C124.317 27.1443 124.71 27.9935 125.127 28.9654C125.448 29.7101 125.947 30.1654 126.559 30.7457C126.942 31.1093 127.458 31.2067 128.163 31.436C129.945 32.0149 130.469 32.0106 131.548 32.1625C132.706 32.3256 133.499 31.9238 134.454 31.3727C135.735 30.6326 136.719 29.4158 136.917 29.0431C137.12 28.6614 137.217 28.2107 137.39 27.5893C137.687 26.527 137.65 26.1042 137.622 24.4841C137.591 22.7257 137.061 22.1997 136.694 21.7133C136.293 21.1816 136.059 20.7258 135.403 20.1554C134.894 19.7128 134.222 19.5462 133.617 19.3342C132.979 19.1103 132.599 19.07 132.13 19.0489C132.037 19.043 131.955 19.0324 131.838 19.0244Z" stroke="#F5EFE1" stroke-linecap="round"/>
<path d="M131.49 24.0127C131.474 24.0153 131.458 24.0182 131.44 24.0214C131.241 24.0581 130.902 24.1364 130.608 24.2465C130.384 24.3302 130.259 24.5525 130.162 24.7414C129.912 25.227 130.025 25.7459 130.026 26.9873C130.026 27.6533 130.206 28.0222 130.31 28.1597C130.363 28.2292 130.457 28.2607 130.561 28.2577C131.013 28.2446 131.232 27.8147 131.49 27.3837C131.758 26.9356 131.974 26.5858 132.271 26.0222C132.383 25.809 132.423 25.557 132.489 25.2713C132.551 24.9993 132.435 24.7467 132.282 24.5532C132.133 24.4008 131.717 24.0527 131.49 24.0127Z" fill="#F0E7BC"/>
<path d="M131.575 24C131.546 24.0034 131.499 24.0106 131.44 24.0214M131.49 24.0127C131.717 24.0527 132.133 24.4008 132.282 24.5532C132.435 24.7467 132.551 24.9993 132.489 25.2713C132.423 25.557 132.383 25.809 132.271 26.0222C131.974 26.5858 131.758 26.9356 131.49 27.3837C131.232 27.8147 131.013 28.2446 130.561 28.2577C130.457 28.2607 130.363 28.2292 130.31 28.1597C130.206 28.0222 130.026 27.6533 130.026 26.9873C130.025 25.7459 129.912 25.227 130.162 24.7414C130.259 24.5525 130.384 24.3302 130.608 24.2465C130.902 24.1364 131.241 24.0581 131.44 24.0214M131.49 24.0127C131.474 24.0153 131.458 24.0182 131.44 24.0214M131.49 24.0127C131.47 24.0108 131.454 24.0141 131.44 24.0214M131.205 24.2536C131.378 24.2536 131.359 24.0657 131.44 24.0214" stroke="#F0E7BC" stroke-linecap="round"/>
<path d="M106.868 3.40016C106.435 3.77427 105.644 4.51814 105.438 4.92628C105.219 5.35917 105.136 5.94435 105.042 6.48489C104.922 7.18006 105.063 8.6452 105.418 9.66989C105.57 10.1077 106.053 10.515 106.673 11.1054C107.519 11.9119 108.845 11.9498 110.833 12.1184C111.615 12.1848 112.662 12.1455 113.737 12.067C115.891 11.9096 117.108 11.6614 117.334 11.6369C117.796 11.5868 118.393 11.477 119.001 11.0095C119.364 10.7302 119.588 10.406 120.095 9.83354C120.53 9.34163 120.488 8.86084 120.651 8.40889C120.817 7.94988 120.999 7.36849 121.445 6.47943C121.994 5.38439 122.108 4.98583 122.118 4.16582C122.121 3.90714 122.014 3.74526 121.914 3.59316L121.908 3.58493C121.696 3.26356 121.245 3.26742 120.821 3.22285C120.57 3.19642 120.316 3.20335 119.284 3.17802C118.366 3.15552 116.649 3.14944 115.708 3.13487C114.438 3.11524 114.019 3.06902 113.302 3.05007C113.071 3.04395 112.798 3.02956 111.808 3.01569C110.818 3.00181 109.12 2.98814 108.219 3.01701C107.317 3.04588 107.264 3.1177 107.191 3.18259C107.117 3.24749 107.024 3.30328 106.868 3.40016Z" fill="#F0E7BC"/>
<path d="M106.974 3.30984C106.58 3.63981 105.662 4.48205 105.438 4.92628M105.438 4.92628C105.219 5.35917 105.136 5.94435 105.042 6.48489C104.922 7.18006 105.063 8.6452 105.418 9.66989C105.57 10.1077 106.053 10.515 106.673 11.1054C107.519 11.9119 108.845 11.9498 110.833 12.1184C111.615 12.1848 112.662 12.1455 113.737 12.067C115.891 11.9096 117.108 11.6614 117.334 11.6369C117.796 11.5868 118.393 11.477 119.001 11.0095C119.364 10.7302 119.588 10.406 120.095 9.83354C120.53 9.34163 120.488 8.86084 120.651 8.40889C120.817 7.94988 120.999 7.36849 121.445 6.47943C121.994 5.38439 122.108 4.98583 122.118 4.16582C122.121 3.90714 122.014 3.74526 121.914 3.59316M105.438 4.92628C105.644 4.51814 106.435 3.77427 106.868 3.40016C107.024 3.30328 107.117 3.24749 107.191 3.18259C107.264 3.1177 107.317 3.04588 108.219 3.01701C109.12 2.98814 110.818 3.00181 111.808 3.01569C112.798 3.02956 113.071 3.04395 113.302 3.05007C114.019 3.06902 114.438 3.11524 115.708 3.13487C116.649 3.14944 118.366 3.15552 119.284 3.17802C120.316 3.20335 120.57 3.19642 120.821 3.22285C121.245 3.26742 121.696 3.26356 121.908 3.58493M121.908 3.58493L121.914 3.59316M121.908 3.58493C121.91 3.58767 121.912 3.59042 121.914 3.59316" stroke="#F0E7BC" stroke-linecap="round"/>
<path d="M111.751 3.05459C111.606 3.10378 110.642 4.02939 110.334 4.36356C109.917 4.81384 109.967 5.74403 110.077 6.2658C110.164 6.68206 110.391 6.97118 110.537 7.14017C111.01 7.68548 112.64 7.81487 113.677 7.88088C114.146 7.91072 114.513 7.59059 115.176 6.97554C115.607 6.57561 115.651 6.10496 115.797 5.68433C115.96 5.21944 115.977 4.8313 115.974 4.12168C115.973 3.86366 115.818 3.69378 115.665 3.53393C115.337 3.19127 114.832 3.12844 114.447 3.05499C114.006 2.9712 112.763 2.99306 111.751 3.05459Z" fill="#FFBD44"/>
<path d="M111.751 3.05459C111.606 3.10378 110.642 4.02939 110.334 4.36356C109.917 4.81384 109.967 5.74403 110.077 6.2658C110.164 6.68206 110.391 6.97118 110.537 7.14017C111.01 7.68548 112.64 7.81487 113.677 7.88088C114.146 7.91072 114.513 7.59059 115.176 6.97554C115.607 6.57561 115.651 6.10496 115.797 5.68433C115.96 5.21944 115.977 4.8313 115.974 4.12168C115.973 3.86366 115.818 3.69378 115.665 3.53393C115.337 3.19127 114.832 3.12844 114.447 3.05499C114.006 2.9712 112.763 2.99306 111.751 3.05459ZM111.751 3.05459C111.127 3.09248 110.677 3.16283 110.558 3.2912C110.447 3.43066 110.353 3.58948 110.286 3.76661C110.259 3.85915 110.246 3.95708 110.232 4.21279" stroke="#FFBD44" stroke-linecap="round"/>
<path d="M75.2164 4.00175C75.2164 4.00175 75.2131 4.0041 75.2114 4.00563C75.1564 4.05461 75.0438 4.34761 75.0012 5.22865C74.9855 5.55257 75.1292 5.69658 75.3471 5.92308C75.6113 6.19773 75.9611 6.36553 76.2188 6.4774C76.4798 6.59071 76.8753 6.66053 77.4564 6.71559C77.7863 6.74685 78.1916 6.72382 78.6067 6.68829C79.9081 6.57691 80.092 6.38509 80.3359 6.23951C80.8383 5.9397 81.1628 5.7646 81.3454 5.59499C81.5224 5.43073 81.5449 5.21647 81.6994 4.82699C81.8197 4.52353 81.8049 4.29589 81.7893 4.10094C81.786 4.05958 81.757 4.02736 81.7249 4.01132C81.6928 3.99528 81.6495 3.9981 81.114 4.00856C80.5785 4.01902 79.5522 4.03703 78.9944 4.04993C78.2698 4.06669 78.1229 4.08447 77.7037 4.09494C77.3331 4.1042 76.6417 4.0985 76.2599 4.09595C75.6944 4.07937 75.2979 4.01163 75.2164 4.00175Z" fill="#F0E7BC"/>
<path d="M75.2164 4.00175C75.2979 4.01163 75.6944 4.07937 76.2599 4.09595C76.6417 4.0985 77.3331 4.1042 77.7037 4.09494C78.1229 4.08447 78.2698 4.06669 78.9944 4.04993C79.5522 4.03703 80.5785 4.01902 81.114 4.00856C81.6495 3.9981 81.6928 3.99528 81.7249 4.01132C81.757 4.02736 81.786 4.05958 81.7893 4.10094C81.8049 4.29589 81.8197 4.52353 81.6994 4.82699C81.5449 5.21647 81.5224 5.43073 81.3454 5.59499C81.1628 5.7646 80.8383 5.9397 80.3359 6.23951C80.092 6.38509 79.9081 6.57691 78.6067 6.68829C78.1916 6.72382 77.7863 6.74685 77.4564 6.71559C76.8753 6.66053 76.4798 6.59071 76.2188 6.4774C75.9611 6.36553 75.6113 6.19773 75.3471 5.92308C75.1292 5.69658 74.9855 5.55257 75.0012 5.22865C75.0438 4.34761 75.1564 4.05461 75.2114 4.00563M75.2164 4.00175C75.2164 4.00175 75.2131 4.0041 75.2114 4.00563M75.2164 4.00175C75.2081 4.00108 75.2074 4.00266 75.2114 4.00563M75.2833 4.05219C75.3189 4.05219 75.2275 4.01762 75.2114 4.00563" stroke="#F0E7BC" stroke-linecap="round"/>
<path d="M27.9603 122.169C27.9613 122.29 27.9622 122.41 27.9629 122.529C28.1967 123.495 28.3848 124.487 29.3308 124.67C31.8235 125.151 32.9967 125.189 34.7239 125.364C36.1174 125.505 41.7057 125.662 45.9536 125.687C49.5368 125.708 52.1399 125.796 56.1422 125.821C59.8321 125.843 66.6926 125.809 70.2566 125.863C74.0815 125.92 75.0486 126.117 76.9201 125.875C79.828 125.501 82.1075 125.266 82.9149 124.844C83.2662 124.661 83.6002 124.405 83.5166 124.134C83.0307 122.562 81.8925 120.748 81.2386 119.768C80.2713 118.318 79.5316 117.316 78.6708 116.246C77.9996 115.412 77.0761 114.557 77.1264 113.476C77.1885 112.143 77.4916 111.175 78.0931 109.984C78.8296 108.525 80.4865 106.719 79.498 106.514C79.1082 106.434 78.3462 106.682 76.9153 107.424C75.8624 107.97 74.6216 108.218 73.6114 109.195C72.758 110.021 72.4393 111.56 71.3508 111.87C71.1751 111.92 70.9927 111.734 70.9203 111.48C70.6229 110.439 70.4111 109.42 70.2893 108.139C70.1609 106.788 70.198 105.682 69.883 103.43C69.7099 102.191 69.5082 101.15 69.1065 100.203C68.6009 99.0114 68.2164 97.4377 67.5105 96.5518C66.5999 95.4088 65.3203 93.8507 64.0048 92.877C62.5648 91.8111 60.7493 90.2372 60.0819 89.0156C59.1984 87.3984 58.6249 86.4119 58.2642 85.3094C57.8018 83.8967 57.3948 82.5693 57.5089 81.1295C57.683 78.934 58.8231 75.1017 58.1215 75.8507C57.9174 76.0684 57.6659 76.7218 57.2723 77.4605C56.377 79.1408 55.4256 80.9637 55.1719 82.4365C54.726 85.0249 54.4768 87.4419 54.9126 89.9123C55.182 91.4394 55.5158 92.6298 55.9729 93.6733C56.4627 94.7915 57.364 96.4616 57.918 97.701C58.3866 98.7496 59.5114 101.797 58.7079 100.971C57.8528 100.09 56.7987 98.6969 56.3039 97.7947C55.6886 96.6729 54.9689 95.1002 54.3679 93.9786C53.8328 92.98 53.4733 91.9786 53.2563 90.9429C53.0431 89.9247 52.7727 88.8792 52.5807 87.701C52.2671 85.7772 51.9494 84.0286 51.8199 82.8437C51.6957 81.7065 51.926 76.1895 51.5366 78.1422C51.4008 78.823 51.2311 80.1081 51.0216 81.1105C50.8178 82.0855 50.4009 83.0897 50.2677 84.7239C50.0991 86.792 50.2979 92.6161 50.203 91.0075C50.1872 90.74 50.1162 90.1895 50.0451 89.6584C49.9003 88.577 49.4985 87.5667 49.2079 85.4336C49.0192 84.0482 49.0791 82.7531 48.7704 80.8949C48.4576 79.0127 48.2971 75.6981 48.4643 73.4709C48.5654 72.1239 48.6403 68.9256 48.4573 66.3894C48.3402 64.7667 48.1647 63.6805 47.792 61.7614C47.5272 60.3979 47.3647 59.2902 46.9584 58.1057C46.4711 56.6853 46.1831 54.0535 45.8128 54.8358C45.6906 55.0938 45.6285 55.6145 45.5092 56.167C45.2292 57.4652 45.2304 68.9381 45.2286 65.9861C45.2284 65.6669 45.1434 64.9801 45.1096 64.2788C45.0572 63.1912 44.7435 61.3782 44.6614 59.7184C44.55 57.4681 44.4266 55.8607 44.2849 53.7405C44.1079 51.0925 43.7022 48.0052 43.5815 46.7135C43.4775 45.6004 43.1597 43.8156 43.0745 42.0965C42.9809 40.2067 42.765 38.384 42.7246 37.2245C42.6659 35.5392 42.0421 33.7162 41.4584 32.0711C41.0581 30.943 40.6029 29.4288 40.4909 28.0412C40.3647 26.477 40.252 24.5238 40.1183 23.0869C39.958 21.3658 39.5207 20.1428 39.5005 16.7961C39.4635 10.6664 39.5187 5.70123 39.235 6.01401C39.0617 6.20496 38.7254 6.65968 38.5434 7.21336C38.1844 8.30595 37.969 9.43011 37.753 10.5026C37.5352 11.5843 37.3898 13.6243 37.3371 15.3396C37.2554 18.0028 37.2666 21.8099 37.4554 23.2745C37.6424 24.7249 37.8812 26.2871 37.913 27.7302C37.9797 30.758 38.5149 34.3841 37.8869 36.5651C37.5754 37.6472 38.2108 39.7648 37.1144 40.3933C36.9883 40.4656 36.7102 40.228 36.6551 40.3594C36.4953 40.74 36.504 41.3835 36.1739 41.6824C36.0643 41.7817 35.8732 41.8476 35.7626 41.8304C35.7187 46.3781 35.8242 48.6632 35.1376 49.1994C34.9366 49.3563 34.5752 49.5082 34.433 49.3308C33.8372 48.5876 33.2129 47.7207 32.8523 46.7209C32.4994 45.7425 32.1881 44.7514 31.9049 43.7122C31.6394 42.7378 31.378 39.7404 31.3071 40.7509C31.2599 41.4237 31.3447 44.7271 31.4487 46.0468C31.5657 47.5327 31.4972 49.3204 31.7508 51.4735C31.9156 52.872 31.2413 54.1882 32.2359 57.3328C32.8846 59.3841 33.4667 61.1169 33.8896 62.3859C34.2356 63.4241 34.8758 65.0203 34.9579 68.8641C34.9952 70.6095 35.5766 71.7187 35.0145 73.8779C34.9343 74.1858 34.7711 73.9938 34.5598 73.6563C34.0668 72.8691 33.5654 71.8579 33.2181 70.6885C32.8853 69.5682 32.5507 68.6119 32.3378 67.5972C32.1239 66.578 32.0238 64.0119 31.902 64.759C31.8926 64.8163 31.8783 65.1826 31.8655 65.5461C31.819 66.8571 31.6007 67.8113 31.4563 68.7812C31.3096 69.7658 31.1405 70.7716 30.9372 71.7487C30.7212 72.7864 30.3791 73.9337 30.5725 77.6835C30.6799 79.7672 30.8867 81.8273 31.11 83.7862C31.2714 85.2023 31.5578 86.7012 31.3701 92.0859C31.2447 95.6832 31.1354 100.069 30.6005 101.491C30.1547 102.678 29.569 103.889 28.793 105.428C28.8223 105.454 28.8362 105.486 28.8191 105.527C28.8008 105.57 28.7823 105.615 28.7637 105.66C28.7812 105.685 28.7973 105.712 28.8106 105.74C29.224 106.62 28.4242 107.763 28.2289 108.968C28.0343 110.169 27.6295 111.295 27.1687 112.388C27.1423 113.009 27.1548 113.612 27.2258 114.135C27.3827 115.291 27.6934 116.449 27.803 117.56C27.8329 117.863 27.8594 118.304 27.8818 118.828C28.0594 119.303 28.2226 119.789 28.332 120.279C28.5931 121.45 29.4358 122.748 28.9024 123.688C28.8725 123.74 28.8137 123.497 28.6761 123.257C28.464 122.887 28.216 122.539 27.9603 122.169Z" fill="#58514B"/>
<path d="M26.2906 114.378C25.5955 115.954 26.3085 118.761 26.7545 119.972C27.0514 120.778 27.4308 121.392 27.8059 121.944C27.8575 122.02 27.909 122.095 27.9603 122.169C27.9498 120.995 27.9224 119.775 27.8818 118.828C27.6419 118.186 27.3757 117.564 27.1807 116.977C26.8379 115.946 26.725 115.034 26.5921 113.702C26.4908 113.928 26.3899 114.153 26.2906 114.378Z" fill="#58514B"/>
<path d="M27.9316 125.373C27.9602 124.683 27.9695 123.642 27.9629 122.529M27.1325 119.959C27.2453 120.43 27.3006 120.669 27.3948 120.932C27.4889 121.194 27.618 121.47 27.7446 121.761C27.7662 121.821 27.7865 121.882 27.8059 121.944M27.9603 122.169C27.9613 122.29 27.9622 122.41 27.9629 122.529M27.9603 122.169C28.216 122.539 28.464 122.887 28.6761 123.257C28.8137 123.497 28.8725 123.74 28.9024 123.688C29.4358 122.748 28.5931 121.45 28.332 120.279C28.2226 119.789 28.0594 119.303 27.8818 118.828M27.9603 122.169C27.9498 120.995 27.9224 119.775 27.8818 118.828M27.9603 122.169C27.909 122.095 27.8575 122.02 27.8059 121.944M27.9629 122.529C28.1967 123.495 28.3848 124.487 29.3308 124.67C31.8235 125.151 32.9967 125.189 34.7239 125.364C36.1174 125.505 41.7057 125.662 45.9536 125.687C49.5368 125.708 52.1399 125.796 56.1422 125.821C59.8321 125.843 66.6926 125.809 70.2566 125.863C74.0815 125.92 75.0486 126.117 76.9201 125.875C79.828 125.501 82.1075 125.266 82.9149 124.844C83.2662 124.661 83.6002 124.405 83.5166 124.134C83.0307 122.562 81.8925 120.748 81.2386 119.768C80.2713 118.318 79.5316 117.316 78.6708 116.246C77.9996 115.412 77.0761 114.557 77.1264 113.476C77.1885 112.143 77.4916 111.175 78.0931 109.984C78.8296 108.525 80.4865 106.719 79.498 106.514C79.1082 106.434 78.3462 106.682 76.9153 107.424C75.8624 107.97 74.6216 108.218 73.6114 109.195C72.758 110.021 72.4393 111.56 71.3508 111.87C71.1751 111.92 70.9927 111.734 70.9203 111.48C70.6229 110.439 70.4111 109.42 70.2893 108.139C70.1609 106.788 70.198 105.682 69.883 103.43C69.7099 102.191 69.5082 101.15 69.1065 100.203C68.6009 99.0114 68.2164 97.4377 67.5105 96.5518C66.5999 95.4088 65.3203 93.8507 64.0048 92.877C62.5648 91.8111 60.7493 90.2372 60.0819 89.0156C59.1984 87.3984 58.6249 86.4119 58.2642 85.3094C57.8018 83.8967 57.3948 82.5693 57.5089 81.1295C57.683 78.934 58.8231 75.1017 58.1215 75.8507C57.9174 76.0684 57.6659 76.7218 57.2723 77.4605C56.377 79.1408 55.4256 80.9637 55.1719 82.4365C54.726 85.0249 54.4768 87.4419 54.9126 89.9123C55.182 91.4394 55.5158 92.6298 55.9729 93.6733C56.4627 94.7915 57.364 96.4616 57.918 97.701C58.3866 98.7496 59.5114 101.797 58.7079 100.971C57.8528 100.09 56.7987 98.6969 56.3039 97.7947C55.6886 96.6729 54.9689 95.1002 54.3679 93.9786C53.8328 92.98 53.4733 91.9786 53.2563 90.9429C53.0431 89.9247 52.7727 88.8792 52.5807 87.701C52.2671 85.7772 51.9494 84.0286 51.8199 82.8437C51.6957 81.7065 51.926 76.1895 51.5366 78.1422C51.4008 78.823 51.2311 80.1081 51.0216 81.1105C50.8178 82.0855 50.4009 83.0897 50.2677 84.7239C50.0991 86.792 50.2979 92.6161 50.203 91.0075C50.1872 90.74 50.1162 90.1895 50.0451 89.6584C49.9003 88.577 49.4985 87.5667 49.2079 85.4336C49.0192 84.0482 49.0791 82.7531 48.7704 80.8949C48.4576 79.0127 48.2971 75.6981 48.4643 73.4709C48.5654 72.1239 48.6403 68.9256 48.4573 66.3894C48.3402 64.7667 48.1647 63.6805 47.792 61.7614C47.5272 60.3979 47.3647 59.2902 46.9584 58.1057C46.4711 56.6853 46.1831 54.0535 45.8128 54.8358C45.6906 55.0938 45.6285 55.6145 45.5092 56.167C45.2292 57.4652 45.2304 68.9381 45.2286 65.9861C45.2284 65.6669 45.1434 64.9801 45.1096 64.2788C45.0572 63.1912 44.7435 61.3782 44.6614 59.7184C44.55 57.4681 44.4266 55.8607 44.2849 53.7405C44.1079 51.0925 43.7022 48.0052 43.5815 46.7135C43.4775 45.6004 43.1597 43.8156 43.0745 42.0965C42.9809 40.2067 42.765 38.384 42.7246 37.2245C42.6659 35.5392 42.0421 33.7162 41.4584 32.0711C41.0581 30.943 40.6029 29.4288 40.4909 28.0412C40.3647 26.477 40.252 24.5238 40.1183 23.0869C39.958 21.3658 39.5207 20.1428 39.5005 16.7961C39.4635 10.6664 39.5187 5.70123 39.235 6.01401C39.0617 6.20496 38.7254 6.65968 38.5434 7.21336C38.1844 8.30595 37.969 9.43011 37.753 10.5026C37.5352 11.5843 37.3898 13.6243 37.3371 15.3396C37.2554 18.0028 37.2666 21.8099 37.4554 23.2745C37.6424 24.7249 37.8812 26.2871 37.913 27.7302C37.9797 30.758 38.5149 34.3841 37.8869 36.5651C37.5754 37.6472 38.2108 39.7648 37.1144 40.3933C36.9883 40.4656 36.7102 40.228 36.6551 40.3594C36.4953 40.74 36.504 41.3835 36.1739 41.6824C36.0643 41.7817 35.8732 41.8476 35.7626 41.8304M27.9629 122.529C27.9149 122.331 27.8648 122.133 27.8059 121.944M35.7626 41.8304C35.7187 46.3781 35.8242 48.6632 35.1376 49.1994C34.9366 49.3563 34.5752 49.5082 34.433 49.3308C33.8372 48.5876 33.2129 47.7207 32.8523 46.7209C32.4994 45.7425 32.1881 44.7514 31.9049 43.7122C31.6394 42.7378 31.378 39.7404 31.3071 40.7509C31.2599 41.4237 31.3447 44.7271 31.4487 46.0468C31.5657 47.5327 31.4972 49.3204 31.7508 51.4735C31.9156 52.872 31.2413 54.1882 32.2359 57.3328C32.8846 59.3841 33.4667 61.1169 33.8896 62.3859C34.2356 63.4241 34.8758 65.0203 34.9579 68.8641C34.9952 70.6095 35.5766 71.7187 35.0145 73.8779C34.9343 74.1858 34.7711 73.9938 34.5598 73.6563C34.0668 72.8691 33.5654 71.8579 33.2181 70.6885C32.8853 69.5682 32.5507 68.6119 32.3378 67.5972C32.1239 66.578 32.0238 64.0119 31.902 64.759C31.8926 64.8163 31.8783 65.1826 31.8655 65.5461C31.819 66.8571 31.6007 67.8113 31.4563 68.7812C31.3096 69.7658 31.1405 70.7716 30.9372 71.7487C30.7212 72.7864 30.3791 73.9337 30.5725 77.6835C30.6799 79.7672 30.8867 81.8273 31.11 83.7862C31.2714 85.2023 31.5578 86.7012 31.3701 92.0859C31.2447 95.6832 31.1354 100.069 30.6005 101.491C30.1547 102.678 29.569 103.889 28.793 105.428M35.7626 41.8304C35.7102 41.8223 35.6759 41.7956 35.6768 41.745C35.6845 41.2986 36.5005 40.6932 36.654 39.7925C36.7511 39.2226 36.6408 38.716 36.3096 38.3721C36.1432 38.1992 35.8324 38.0684 35.8076 39.0946C35.7837 40.0849 35.7706 40.9958 35.7626 41.8304ZM28.793 105.428C28.8223 105.454 28.8362 105.486 28.8191 105.527C28.8008 105.57 28.7823 105.615 28.7637 105.66M28.793 105.428C28.6328 105.746 28.4644 106.078 28.2874 106.426C27.1344 108.697 26.2054 109.763 26.5433 113.207C26.5601 113.379 26.5762 113.543 26.5921 113.702M28.793 105.428C28.7178 105.363 28.5407 105.348 28.5282 105.38C28.5135 105.417 28.6634 105.514 28.7637 105.66M28.7637 105.66C28.7812 105.685 28.7973 105.712 28.8106 105.74C29.224 106.62 28.4242 107.763 28.2289 108.968C28.0343 110.169 27.6295 111.295 27.1687 112.388M28.7637 105.66C28.2873 106.811 27.7259 108.43 27.5 109.605C27.3453 110.41 27.2097 111.419 27.1687 112.388M27.1687 112.388C27.1423 113.009 27.1548 113.612 27.2258 114.135C27.3827 115.291 27.6934 116.449 27.803 117.56C27.8329 117.863 27.8594 118.304 27.8818 118.828M27.1687 112.388C26.9822 112.83 26.7866 113.267 26.5921 113.702M27.8818 118.828C27.6419 118.186 27.3757 117.564 27.1807 116.977C26.8379 115.946 26.725 115.034 26.5921 113.702M27.8059 121.944C27.4308 121.392 27.0514 120.778 26.7545 119.972C26.3085 118.761 25.5955 115.954 26.2906 114.378C26.3899 114.153 26.4908 113.928 26.5921 113.702" stroke="#58514B" stroke-linecap="round"/>
</g>
<path d="M188 128H0V0H188V128ZM184 4H4V124H184V4Z" fill="#E9E9E9"/>
</svg>
