<svg width="712" height="145" viewBox="0 0 712 145" fill="none" xmlns="http://www.w3.org/2000/svg">
<path d="M4 72.7085H17.5923C23.9886 72.7085 38.2194 69.4587 47.1754 65.1736C63.9658 57.1401 91.1503 50.1075 111.139 50.1075C131.128 50.1075 155.631 59.3361 167.107 65.1736C192.692 78.1888 194.951 89.506 211.082 94.8147C227.872 100.34 239.866 101.867 263.852 97.8287C283.041 94.5983 297.477 85.152 305.428 80.2018C313.424 75.2239 334.212 72.3713 338.21 72.3713C355.8 72.3713 341.408 72.3713 355 72.3713" stroke="#7A9278" stroke-width="8" stroke-linecap="round"/>
<path d="M203.94 132.639C201.985 132.13 198.82 131.076 196.678 129.368C194.536 127.659 190.481 122.114 188.454 119.342C186.427 116.569 181.35 111.679 180.322 107.497C179.294 103.316 177.285 96.4609 178.654 92.6148C180.022 88.7687 180.973 85.8501 183.297 83.9221C185.622 81.9941 188.412 80.6478 191.414 81.2562C194.416 81.8646 197.187 84.6005 199.354 87.0638C201.453 92.1 202.711 94.1544 202.808 97.1728C202.904 100.191 204.187 103 203.539 106.055C202.891 109.11 202.636 110.483 201.71 114.156C200.783 117.829 201.345 121.43 202.186 124.411C202.859 126.797 203.636 130.89 203.94 132.639Z" fill="#7A9278" stroke="#7A9278" stroke-linecap="round"/>
<path d="M184.578 10.6292C181.885 11.4602 175.782 13.1504 172.914 13.2631C169.33 13.404 163.175 14.5523 160.42 15.2951C157.665 16.0379 145.555 22.1339 141.705 24.8233C137.854 27.5127 134.369 29.5532 132.173 32.2682C129.977 34.9833 127.705 41.6897 127.895 43.1326C128.084 44.5754 128.837 49.1688 129.851 50.0353C130.866 50.9019 134.184 53.3096 135.104 53.4547C136.024 53.5998 136.678 56.2935 138.058 56.5112C139.437 56.7289 142.656 57.2369 145.777 55.8452C148.897 54.4536 153.297 51.38 155.497 49.8432C157.698 48.3064 161.359 44.1741 163.189 42.1079C165.02 40.0418 168.221 35.8369 169.682 33.2415C171.142 30.646 174.154 24.9982 175.25 23.0516C176.126 21.4943 181.834 14.1211 184.578 10.6292Z" fill="#7A9278" stroke="#7A9278" stroke-linecap="round"/>
<path d="M270.284 56.2746C269.766 57.2347 268.717 59.5728 268.665 61.2446C268.601 63.3343 267.459 66.4366 268.122 68.6535C268.785 70.8704 269.002 77.3615 268.559 78.1844C268.115 79.0074 266.527 86.3839 264.783 88.6308C263.04 90.8777 259.111 96.1944 257.844 96.5735C256.577 96.9526 252.807 100.496 250.4 100.526C247.994 100.556 244.448 100.237 243.657 98.7485C243.025 97.5575 242.709 96.7319 242.899 96.2149C241.906 96.7419 240.482 97.2964 238.181 96.5916C235.901 95.8934 235.111 94.4047 234.415 93.2327C233.719 92.0607 231.632 88.5446 232.141 85.6319C232.649 82.7192 233.758 79.6778 234.901 77.5596C236.01 75.5023 238.07 73.1606 240.32 71.4523C242.569 69.7441 250.267 64.3349 252.484 63.6715C254.701 63.0081 258.723 61.4594 261.478 60.2898C263.683 59.354 268.267 57.2231 270.284 56.2746Z" fill="#7A9278" stroke="#7A9278" stroke-linecap="round"/>
<path d="M107.5 103.754C106.873 103.032 105.352 101.047 104.278 98.881C102.935 96.1738 101.056 95.091 100.25 92.1131C99.4447 89.1352 98.438 86.2796 97.5652 83.9915C96.2226 80.4722 94.6116 76.9528 93.269 75.5993C91.121 73.4335 89.5099 67.4777 86.8248 65.5827C84.1397 63.6877 79.3066 58.544 76.89 57.4611C74.4734 56.3783 73.9364 56.1075 70.4458 56.1075C66.9551 56.1075 63.7331 56.649 61.3165 58.0026C59.3248 59.1181 56.7518 61.2512 55.1407 62.8755C53.8671 64.1596 51.1131 69.102 50.5761 72.0799C50.2365 73.9633 51.08 79.5934 52.1871 81.8258C53.5297 84.533 56.7518 89.1352 58.3628 90.218C59.9739 91.3009 65.3441 95.6324 68.5662 97.2567C71.7883 98.881 78.2325 101.588 80.9176 102.13C83.6027 102.671 86.3653 103.558 89.7784 104.295C93.5375 105.108 96.4322 105.108 98.9077 105.108C101.593 105.108 105.441 104.025 107.5 103.754Z" fill="#7A9278" stroke="#7A9278" stroke-linecap="round"/>
<path d="M354.5 72.7085H368.092C374.489 72.7085 388.719 69.4587 397.675 65.1736C414.466 57.1401 441.65 50.1075 461.639 50.1075C481.628 50.1075 506.131 59.3361 517.607 65.1736C543.192 78.1888 545.451 89.506 561.582 94.8147C578.372 100.34 590.366 101.867 614.352 97.8287C633.541 94.5983 647.977 85.152 655.928 80.2018C663.924 75.2239 684.712 72.3713 688.71 72.3713C706.3 72.3713 691.908 72.3713 705.5 72.3713" stroke="#7A9278" stroke-width="8" stroke-linecap="round"/>
<path d="M554.44 132.639C552.485 132.13 549.32 131.076 547.178 129.368C545.036 127.659 540.981 122.114 538.954 119.342C536.927 116.569 531.85 111.679 530.822 107.497C529.794 103.316 527.785 96.4609 529.154 92.6148C530.522 88.7687 531.473 85.8501 533.797 83.9221C536.122 81.9941 538.912 80.6478 541.914 81.2562C544.916 81.8646 547.687 84.6005 549.854 87.0638C551.953 92.1 553.211 94.1544 553.308 97.1728C553.404 100.191 554.687 103 554.039 106.055C553.391 109.11 553.136 110.483 552.21 114.156C551.283 117.829 551.845 121.43 552.686 124.411C553.359 126.797 554.136 130.89 554.44 132.639Z" fill="#7A9278" stroke="#7A9278" stroke-linecap="round"/>
<path d="M527.503 19.0029C525.25 19.6984 520.142 21.1129 517.742 21.2072C514.742 21.3251 509.592 22.2862 507.286 22.9078C504.981 23.5294 494.845 28.6311 491.623 30.8818C488.401 33.1325 485.484 34.8403 483.646 37.1124C481.809 39.3846 479.907 44.9971 480.066 46.2046C480.224 47.4122 480.854 51.2563 481.703 51.9815C482.552 52.7067 485.33 54.7217 486.099 54.8431C486.869 54.9646 487.416 57.2189 488.571 57.4011C489.726 57.5833 492.42 58.0084 495.031 56.8438C497.642 55.6791 501.325 53.1068 503.166 51.8207C505.007 50.5346 508.071 47.0763 509.603 45.3472C511.135 43.618 513.814 40.099 515.037 37.9269C516.259 35.7548 518.78 31.0282 519.697 29.3991C520.43 28.0959 525.207 21.9253 527.503 19.0029Z" fill="#7A9278" stroke="#7A9278" stroke-linecap="round"/>
<path d="M705.241 111.757C702.938 111.248 697.731 110.255 695.332 110.357C692.332 110.484 687.121 109.947 684.772 109.515C682.424 109.084 671.906 104.826 668.511 102.846C665.115 100.865 662.069 99.4012 660.052 97.2866C658.035 95.1719 655.682 89.7333 655.742 88.5168C655.801 87.3004 656.116 83.4177 656.903 82.6256C657.69 81.8335 660.293 79.5987 661.05 79.4148C661.808 79.231 662.169 76.9396 663.305 76.6638C664.441 76.388 667.091 75.7444 669.789 76.6922C672.486 77.6399 676.367 79.9031 678.307 81.0347C680.247 82.1663 683.583 85.3631 685.251 86.9615C686.919 88.5598 689.876 91.8485 691.271 93.9137C692.667 95.9788 695.565 100.484 696.612 102.033C697.449 103.272 702.713 109.032 705.241 111.757Z" fill="#7A9278" stroke="#7A9278" stroke-linecap="round"/>
<path d="M620.784 56.2746C620.266 57.2347 619.217 59.5728 619.165 61.2446C619.101 63.3343 617.959 66.4366 618.622 68.6535C619.285 70.8704 619.502 77.3615 619.059 78.1844C618.615 79.0074 617.027 86.3839 615.283 88.6308C613.54 90.8777 609.611 96.1944 608.344 96.5735C607.077 96.9526 603.307 100.496 600.9 100.526C598.494 100.556 594.948 100.237 594.157 98.7485C593.525 97.5575 593.209 96.7319 593.399 96.2149C592.406 96.7419 590.982 97.2964 588.681 96.5916C586.401 95.8934 585.611 94.4047 584.915 93.2327C584.219 92.0607 582.132 88.5446 582.641 85.6319C583.149 82.7192 584.258 79.6778 585.401 77.5596C586.51 75.5023 588.57 73.1606 590.82 71.4523C593.069 69.7441 600.767 64.3349 602.984 63.6715C605.201 63.0081 609.223 61.4594 611.978 60.2898C614.183 59.354 618.767 57.2231 620.784 56.2746Z" fill="#7A9278" stroke="#7A9278" stroke-linecap="round"/>
<path d="M483 98.7538C482.373 98.0319 480.852 96.0466 479.778 93.8809C478.435 91.1737 476.556 90.0909 475.75 87.1129C474.945 84.135 473.938 81.2795 473.065 78.9914C471.723 75.4721 470.112 71.9527 468.769 70.5991C466.621 68.4334 465.01 62.4776 462.325 60.5826C459.64 58.6875 454.807 53.5439 452.39 52.461C449.973 51.3781 449.436 51.1074 445.946 51.1074C442.455 51.1074 439.233 51.6489 436.816 53.0024C434.825 54.118 432.252 56.2511 430.641 57.8754C429.367 59.1595 426.613 64.1019 426.076 67.0798C425.736 68.9632 426.58 74.5933 427.687 76.8257C429.03 79.5328 432.252 84.135 433.863 85.2179C435.474 86.3008 440.844 90.6323 444.066 92.2566C447.288 93.8809 453.733 96.5881 456.418 97.1295C459.103 97.671 461.865 98.5579 465.278 99.2953C469.038 100.107 471.932 100.107 474.408 100.107C477.093 100.107 480.941 99.0246 483 98.7538Z" fill="#7A9278" stroke="#7A9278" stroke-linecap="round"/>
<path d="M355.783 24.0018C353.958 25.4961 349.761 28.733 347.574 29.7257C344.84 30.9665 340.433 33.7995 338.532 35.245C336.631 36.6904 329.17 45.2385 327.035 48.5385C324.899 51.8386 322.842 54.5204 321.998 57.3179C321.153 60.1154 321.509 66.0306 322.111 67.0892C322.714 68.1477 324.747 71.47 325.807 71.8214C326.867 72.1727 330.199 72.9911 330.958 72.8132C331.717 72.6353 333.074 74.5167 334.212 74.2498C335.35 73.983 338.006 73.3604 339.984 71.2967C341.963 69.2331 344.404 65.4616 345.624 63.5759C346.844 61.6901 348.377 57.3316 349.143 55.1523C349.91 52.973 351.063 48.7034 351.376 46.2305C351.689 43.7577 352.24 38.4296 352.475 36.5749C352.662 35.0912 354.758 27.5746 355.783 24.0018Z" fill="#7A9278" stroke="#7A9278" stroke-linecap="round"/>
<path d="M343.689 88.0099C349.773 86.3384 351.87 86.9323 356.445 88.7959C358.467 89.6192 363.118 91.2535 366.364 93.8721C369.611 96.4908 375.453 103.042 376.972 104.805C379.553 107.802 382.519 111.473 383.771 115.225C385.023 118.976 385.33 124.158 384 124.913C382.671 125.669 379.719 124.265 377.047 123.508C373.902 122.617 372.087 120.97 371.907 123.75C371.727 126.53 371.932 129.985 370.321 131.793C368.71 133.6 366.056 133.198 364.518 132.412C362.038 131.143 359.942 130.549 357.948 131.681C354.975 133.37 355.109 135.972 354.828 137.025C354.546 138.077 353.984 140.182 351.223 139.965C348.462 139.749 344.449 135.781 342.532 132.406C340.615 129.032 336.883 124.011 335.247 119.585C334.397 117.284 333.79 112.379 334.252 108.546C334.713 104.714 336.681 97.347 337.245 95.2417C337.563 94.051 339.035 90.654 343.689 88.0099Z" fill="#F6C8CA" stroke="#F6C8CA"/>
<path d="M331.666 124.023C331.18 121.973 329.953 117.398 328.938 115.508C327.669 113.144 326.074 108.743 325.508 106.686C324.941 104.629 324.275 94.512 324.548 91.0105C324.82 87.509 324.813 84.4889 325.729 82.044C326.646 79.599 330.105 75.5905 331.107 75.1652C332.109 74.7398 335.354 73.4825 336.298 73.8075C337.241 74.1325 340.051 75.3575 340.494 75.8952C340.936 76.4329 342.92 75.8323 343.584 76.6388C344.248 77.4453 345.796 79.3271 346.083 81.8656C346.37 84.4041 346.059 88.4059 345.903 90.4068C345.748 92.4076 344.474 96.3345 343.837 98.2979C343.2 100.261 341.704 103.919 340.586 105.845C339.468 107.771 336.971 111.855 336.132 113.299C335.461 114.455 332.875 120.93 331.666 124.023Z" fill="#7A9278" stroke="#7A9278" stroke-linecap="round"/>
<path d="M378.479 99.9978C377.073 98.4271 374.02 94.8072 373.048 92.8938C371.834 90.502 369.132 86.6783 367.768 85.0381C366.403 83.3979 358.481 77.0712 355.452 75.2941C352.422 73.517 349.948 71.7856 347.418 71.141C344.887 70.4963 339.621 71.0454 338.699 71.6245C337.778 72.2035 334.892 74.1489 334.62 75.1088C334.347 76.0686 333.747 79.0751 333.936 79.7454C334.124 80.4158 332.498 81.7008 332.78 82.7063C333.063 83.7118 333.723 86.058 335.642 87.7438C337.562 89.4296 341.024 91.4605 342.755 92.476C344.486 93.4914 348.437 94.6895 350.412 95.2885C352.387 95.8875 356.244 96.7504 358.463 96.9329C360.683 97.1154 365.461 97.3993 367.126 97.5362C368.457 97.6457 375.249 99.2229 378.479 99.9978Z" fill="#7A9278" stroke="#7A9278" stroke-linecap="round"/>
</svg>
