<svg width="712" height="139" viewBox="0 0 712 139" fill="none" xmlns="http://www.w3.org/2000/svg">
<path d="M4 70.601H17.5923C23.9886 70.601 38.2194 67.3512 47.1754 63.0661C63.9658 55.0326 91.1503 48 111.139 48C131.128 48 155.631 57.2285 167.107 63.0661C192.692 76.0812 194.951 87.3984 211.082 92.7072C227.872 98.2328 239.866 99.7591 263.852 95.7211C283.041 92.4908 297.477 83.0444 305.428 78.0943C313.424 73.1164 334.212 70.2638 338.21 70.2638C355.8 70.2638 341.408 70.2638 355 70.2638" stroke="#7A9278" stroke-width="8" stroke-linecap="round"/>
<path d="M203.94 130.531C201.985 130.023 198.82 128.969 196.678 127.26C194.536 125.551 190.481 120.007 188.454 117.234C186.427 114.462 181.35 109.572 180.322 105.39C179.294 101.208 177.285 94.3534 178.654 90.5073C180.022 86.6612 180.973 83.7426 183.297 81.8146C185.622 79.8866 188.412 78.5403 191.414 79.1487C194.416 79.7571 197.187 82.4929 199.354 84.9562C201.453 89.9925 202.711 92.0468 202.808 95.0652C202.904 98.0836 204.187 100.893 203.539 103.948C202.891 107.002 202.636 108.375 201.71 112.049C200.783 115.722 201.345 119.322 202.186 122.304C202.859 124.689 203.636 128.783 203.94 130.531Z" fill="#7A9278" stroke="#7A9278" stroke-linecap="round"/>
<path d="M177.003 16.8954C174.75 17.5908 169.642 19.0054 167.242 19.0997C164.242 19.2176 159.092 20.1786 156.786 20.8002C154.481 21.4219 144.345 26.5235 141.123 28.7743C137.901 31.025 134.984 32.7327 133.146 35.0049C131.309 37.277 129.407 42.8896 129.566 44.0971C129.724 45.3046 130.354 49.1487 131.203 49.874C132.052 50.5992 134.83 52.6141 135.599 52.7356C136.369 52.857 136.916 55.1113 138.071 55.2935C139.226 55.4757 141.92 55.9009 144.531 54.7362C147.142 53.5715 150.825 50.9993 152.666 49.7131C154.507 48.427 157.571 44.9687 159.103 43.2396C160.635 41.5105 163.314 37.9915 164.537 35.8193C165.759 33.6472 168.28 28.9207 169.197 27.2916C169.93 25.9883 174.707 19.8177 177.003 16.8954Z" fill="#7A9278" stroke="#7A9278" stroke-linecap="round"/>
<path d="M354.741 109.65C352.438 109.141 347.231 108.148 344.832 108.249C341.832 108.377 336.621 107.839 334.272 107.408C331.924 106.976 321.406 102.718 318.011 100.738C314.615 98.7577 311.569 97.2937 309.552 95.179C307.535 93.0644 305.182 87.6257 305.242 86.4093C305.301 85.1928 305.616 81.3101 306.403 80.5181C307.19 79.726 309.793 77.4912 310.55 77.3073C311.308 77.1234 311.669 74.832 312.805 74.5562C313.941 74.2804 316.591 73.6369 319.289 74.5846C321.986 75.5324 325.867 77.7956 327.807 78.9272C329.747 80.0588 333.083 83.2555 334.751 84.8539C336.419 86.4523 339.376 89.741 340.771 91.8061C342.167 93.8713 345.065 98.3764 346.112 99.9252C346.949 101.164 352.213 106.925 354.741 109.65Z" fill="#7A9278" stroke="#7A9278" stroke-linecap="round"/>
<path d="M270.284 54.167C269.766 55.1271 268.717 57.4653 268.665 59.1371C268.601 61.2268 267.459 64.329 268.122 66.5459C268.785 68.7628 269.002 75.254 268.559 76.0769C268.115 76.8998 266.527 84.2763 264.783 86.5232C263.04 88.7701 259.111 94.0869 257.844 94.4659C256.577 94.845 252.807 98.3887 250.4 98.4187C247.994 98.4487 244.448 98.1297 243.657 96.6409C243.025 95.45 242.709 94.6244 242.899 94.1073C241.906 94.6344 240.482 95.1889 238.181 94.4841C235.901 93.7859 235.111 92.2972 234.415 91.1251C233.719 89.9531 231.632 86.437 232.141 83.5244C232.649 80.6117 233.758 77.5703 234.901 75.4521C236.01 73.3947 238.07 71.0531 240.32 69.3448C242.569 67.6365 250.267 62.2274 252.484 61.564C254.701 60.9006 258.723 59.3519 261.478 58.1822C263.683 57.2465 268.267 55.1155 270.284 54.167Z" fill="#7A9278" stroke="#7A9278" stroke-linecap="round"/>
<path d="M107.5 101.646C106.873 100.924 105.352 98.9392 104.278 96.7735C102.935 94.0663 101.056 92.9834 100.25 90.0055C99.4447 87.0276 98.438 84.172 97.5652 81.884C96.2226 78.3646 94.6116 74.8453 93.269 73.4917C91.121 71.326 89.5099 65.3702 86.8248 63.4751C84.1397 61.5801 79.3066 56.4365 76.89 55.3536C74.4734 54.2707 73.9364 54 70.4458 54C66.9551 54 63.7331 54.5414 61.3165 55.895C59.3248 57.0106 56.7518 59.1436 55.1407 60.768C53.8671 62.0521 51.1131 66.9945 50.5761 69.9724C50.2365 71.8558 51.08 77.4858 52.1871 79.7182C53.5297 82.4254 56.7518 87.0276 58.3628 88.1105C59.9739 89.1934 65.3441 93.5249 68.5662 95.1492C71.7883 96.7735 78.2325 99.4807 80.9176 100.022C83.6027 100.564 86.3653 101.45 89.7784 102.188C93.5375 103 96.4322 103 98.9077 103C101.593 103 105.441 101.917 107.5 101.646Z" fill="#7A9278" stroke="#7A9278" stroke-linecap="round"/>
<path d="M354.5 70.601H368.092C374.489 70.601 388.719 67.3512 397.675 63.0661C414.466 55.0326 441.65 48 461.639 48C481.628 48 506.131 57.2285 517.607 63.0661C543.192 76.0812 545.451 87.3984 561.582 92.7072C578.372 98.2328 590.366 99.7591 614.352 95.7211C633.541 92.4908 647.977 83.0444 655.928 78.0943C663.924 73.1164 684.712 70.2638 688.71 70.2638C706.3 70.2638 691.908 70.2638 705.5 70.2638" stroke="#7A9278" stroke-width="8" stroke-linecap="round"/>
<path d="M554.44 130.531C552.485 130.023 549.32 128.969 547.178 127.26C545.036 125.551 540.981 120.007 538.954 117.234C536.927 114.462 531.85 109.572 530.822 105.39C529.794 101.208 527.785 94.3534 529.154 90.5073C530.522 86.6612 531.473 83.7426 533.797 81.8146C536.122 79.8866 538.912 78.5403 541.914 79.1487C544.916 79.7571 547.687 82.4929 549.854 84.9562C551.953 89.9925 553.211 92.0468 553.308 95.0652C553.404 98.0836 554.687 100.893 554.039 103.948C553.391 107.002 553.136 108.375 552.21 112.049C551.283 115.722 551.845 119.322 552.686 122.304C553.359 124.689 554.136 128.783 554.44 130.531Z" fill="#7A9278" stroke="#7A9278" stroke-linecap="round"/>
<path d="M527.503 16.8954C525.25 17.5908 520.142 19.0054 517.742 19.0997C514.742 19.2176 509.592 20.1786 507.286 20.8002C504.981 21.4219 494.845 26.5235 491.623 28.7743C488.401 31.025 485.484 32.7327 483.646 35.0049C481.809 37.277 479.907 42.8896 480.066 44.0971C480.224 45.3046 480.854 49.1487 481.703 49.874C482.552 50.5992 485.33 52.6141 486.099 52.7356C486.869 52.857 487.416 55.1113 488.571 55.2935C489.726 55.4757 492.42 55.9009 495.031 54.7362C497.642 53.5715 501.325 50.9993 503.166 49.7131C505.007 48.427 508.071 44.9687 509.603 43.2396C511.135 41.5105 513.814 37.9915 515.037 35.8193C516.259 33.6472 518.78 28.9207 519.697 27.2916C520.43 25.9883 525.207 19.8177 527.503 16.8954Z" fill="#7A9278" stroke="#7A9278" stroke-linecap="round"/>
<path d="M705.241 109.65C702.938 109.141 697.731 108.148 695.332 108.249C692.332 108.377 687.121 107.839 684.772 107.408C682.424 106.976 671.906 102.718 668.511 100.738C665.115 98.7577 662.069 97.2937 660.052 95.179C658.035 93.0644 655.682 87.6257 655.742 86.4093C655.801 85.1928 656.116 81.3101 656.903 80.5181C657.69 79.726 660.293 77.4912 661.05 77.3073C661.808 77.1234 662.169 74.832 663.305 74.5562C664.441 74.2804 667.091 73.6369 669.789 74.5846C672.486 75.5324 676.367 77.7956 678.307 78.9272C680.247 80.0588 683.583 83.2555 685.251 84.8539C686.919 86.4523 689.876 89.741 691.271 91.8061C692.667 93.8713 695.565 98.3764 696.612 99.9252C697.449 101.164 702.713 106.925 705.241 109.65Z" fill="#7A9278" stroke="#7A9278" stroke-linecap="round"/>
<path d="M620.784 54.167C620.266 55.1271 619.217 57.4653 619.165 59.1371C619.101 61.2268 617.959 64.329 618.622 66.5459C619.285 68.7628 619.502 75.254 619.059 76.0769C618.615 76.8998 617.027 84.2763 615.283 86.5232C613.54 88.7701 609.611 94.0869 608.344 94.4659C607.077 94.845 603.307 98.3887 600.9 98.4187C598.494 98.4487 594.948 98.1297 594.157 96.6409C593.525 95.45 593.209 94.6244 593.399 94.1073C592.406 94.6344 590.982 95.1889 588.681 94.4841C586.401 93.7859 585.611 92.2972 584.915 91.1251C584.219 89.9531 582.132 86.437 582.641 83.5244C583.149 80.6117 584.258 77.5703 585.401 75.4521C586.51 73.3947 588.57 71.0531 590.82 69.3448C593.069 67.6365 600.767 62.2274 602.984 61.564C605.201 60.9006 609.223 59.3519 611.978 58.1822C614.183 57.2465 618.767 55.1155 620.784 54.167Z" fill="#7A9278" stroke="#7A9278" stroke-linecap="round"/>
<path d="M458 101.646C457.373 100.924 455.852 98.9392 454.778 96.7735C453.435 94.0663 451.556 92.9834 450.75 90.0055C449.945 87.0276 448.938 84.172 448.065 81.884C446.723 78.3646 445.112 74.8453 443.769 73.4917C441.621 71.326 440.01 65.3702 437.325 63.4751C434.64 61.5801 429.807 56.4365 427.39 55.3536C424.973 54.2707 424.436 54 420.946 54C417.455 54 414.233 54.5414 411.816 55.895C409.825 57.0106 407.252 59.1436 405.641 60.768C404.367 62.0521 401.613 66.9945 401.076 69.9724C400.736 71.8558 401.58 77.4858 402.687 79.7182C404.03 82.4254 407.252 87.0276 408.863 88.1105C410.474 89.1934 415.844 93.5249 419.066 95.1492C422.288 96.7735 428.733 99.4807 431.418 100.022C434.103 100.564 436.865 101.45 440.278 102.188C444.038 103 446.932 103 449.408 103C452.093 103 455.941 101.917 458 101.646Z" fill="#7A9278" stroke="#7A9278" stroke-linecap="round"/>
<path d="M4 70.601H17.5923C23.9886 70.601 38.2194 67.3512 47.1754 63.0661C63.9658 55.0326 91.1503 48 111.139 48C131.128 48 155.631 57.2285 167.107 63.0661C192.692 76.0812 194.951 87.3984 211.082 92.7072C227.872 98.2328 239.866 99.7591 263.852 95.7211C283.041 92.4908 297.477 83.0444 305.428 78.0943C313.424 73.1164 334.212 70.2638 338.21 70.2638C355.8 70.2638 341.408 70.2638 355 70.2638" stroke="#7A9278" stroke-width="8" stroke-linecap="round"/>
<path d="M203.94 130.531C201.985 130.023 198.82 128.969 196.678 127.26C194.536 125.551 190.481 120.007 188.454 117.234C186.427 114.462 181.35 109.572 180.322 105.39C179.294 101.208 177.285 94.3534 178.654 90.5073C180.022 86.6612 180.973 83.7426 183.297 81.8146C185.622 79.8866 188.412 78.5403 191.414 79.1487C194.416 79.7571 197.187 82.4929 199.354 84.9562C201.453 89.9925 202.711 92.0468 202.808 95.0652C202.904 98.0836 204.187 100.893 203.539 103.948C202.891 107.002 202.636 108.375 201.71 112.049C200.783 115.722 201.345 119.322 202.186 122.304C202.859 124.689 203.636 128.783 203.94 130.531Z" fill="#7A9278" stroke="#7A9278" stroke-linecap="round"/>
<path d="M177.003 16.8954C174.75 17.5908 169.642 19.0054 167.242 19.0997C164.242 19.2176 159.092 20.1786 156.786 20.8002C154.481 21.4219 144.345 26.5235 141.123 28.7743C137.901 31.025 134.984 32.7327 133.146 35.0049C131.309 37.277 129.407 42.8896 129.566 44.0971C129.724 45.3046 130.354 49.1487 131.203 49.874C132.052 50.5992 134.83 52.6141 135.599 52.7356C136.369 52.857 136.916 55.1113 138.071 55.2935C139.226 55.4757 141.92 55.9009 144.531 54.7362C147.142 53.5715 150.825 50.9993 152.666 49.7131C154.507 48.427 157.571 44.9687 159.103 43.2396C160.635 41.5105 163.314 37.9915 164.537 35.8193C165.759 33.6472 168.28 28.9207 169.197 27.2916C169.93 25.9883 174.707 19.8177 177.003 16.8954Z" fill="#7A9278" stroke="#7A9278" stroke-linecap="round"/>
<path d="M354.741 109.65C352.438 109.141 347.231 108.148 344.832 108.249C341.832 108.377 336.621 107.839 334.272 107.408C331.924 106.976 321.406 102.718 318.011 100.738C314.615 98.7577 311.569 97.2937 309.552 95.179C307.535 93.0644 305.182 87.6257 305.242 86.4093C305.301 85.1928 305.616 81.3101 306.403 80.5181C307.19 79.726 309.793 77.4912 310.55 77.3073C311.308 77.1234 311.669 74.832 312.805 74.5562C313.941 74.2804 316.591 73.6369 319.289 74.5846C321.986 75.5324 325.867 77.7956 327.807 78.9272C329.747 80.0588 333.083 83.2555 334.751 84.8539C336.419 86.4523 339.376 89.741 340.771 91.8061C342.167 93.8713 345.065 98.3764 346.112 99.9252C346.949 101.164 352.213 106.925 354.741 109.65Z" fill="#7A9278" stroke="#7A9278" stroke-linecap="round"/>
<path d="M270.284 54.167C269.766 55.1271 268.717 57.4653 268.665 59.1371C268.601 61.2268 267.459 64.329 268.122 66.5459C268.785 68.7628 269.002 75.254 268.559 76.0769C268.115 76.8998 266.527 84.2763 264.783 86.5232C263.04 88.7701 259.111 94.0869 257.844 94.4659C256.577 94.845 252.807 98.3887 250.4 98.4187C247.994 98.4487 244.448 98.1297 243.657 96.6409C243.025 95.45 242.709 94.6244 242.899 94.1073C241.906 94.6344 240.482 95.1889 238.181 94.4841C235.901 93.7859 235.111 92.2972 234.415 91.1251C233.719 89.9531 231.632 86.437 232.141 83.5244C232.649 80.6117 233.758 77.5703 234.901 75.4521C236.01 73.3947 238.07 71.0531 240.32 69.3448C242.569 67.6365 250.267 62.2274 252.484 61.564C254.701 60.9006 258.723 59.3519 261.478 58.1822C263.683 57.2465 268.267 55.1155 270.284 54.167Z" fill="#7A9278" stroke="#7A9278" stroke-linecap="round"/>
<path d="M107.5 101.646C106.873 100.924 105.352 98.9392 104.278 96.7735C102.935 94.0663 101.056 92.9834 100.25 90.0055C99.4447 87.0276 98.438 84.172 97.5652 81.884C96.2226 78.3646 94.6116 74.8453 93.269 73.4917C91.121 71.326 89.5099 65.3702 86.8248 63.4751C84.1397 61.5801 79.3066 56.4365 76.89 55.3536C74.4734 54.2707 73.9364 54 70.4458 54C66.9551 54 63.7331 54.5414 61.3165 55.895C59.3248 57.0106 56.7518 59.1436 55.1407 60.768C53.8671 62.0521 51.1131 66.9945 50.5761 69.9724C50.2365 71.8558 51.08 77.4858 52.1871 79.7182C53.5297 82.4254 56.7518 87.0276 58.3628 88.1105C59.9739 89.1934 65.3441 93.5249 68.5662 95.1492C71.7883 96.7735 78.2325 99.4807 80.9176 100.022C83.6027 100.564 86.3653 101.45 89.7784 102.188C93.5375 103 96.4322 103 98.9077 103C101.593 103 105.441 101.917 107.5 101.646Z" fill="#7A9278" stroke="#7A9278" stroke-linecap="round"/>
<path d="M354.5 70.601H368.092C374.489 70.601 388.719 67.3512 397.675 63.0661C414.466 55.0326 441.65 48 461.639 48C481.628 48 506.131 57.2285 517.607 63.0661C543.192 76.0812 545.451 87.3984 561.582 92.7072C578.372 98.2328 590.366 99.7591 614.352 95.7211C633.541 92.4908 647.977 83.0444 655.928 78.0943C663.924 73.1164 684.712 70.2638 688.71 70.2638C706.3 70.2638 691.908 70.2638 705.5 70.2638" stroke="#7A9278" stroke-width="8" stroke-linecap="round"/>
<path d="M554.44 130.531C552.485 130.023 549.32 128.969 547.178 127.26C545.036 125.551 540.981 120.007 538.954 117.234C536.927 114.462 531.85 109.572 530.822 105.39C529.794 101.208 527.785 94.3534 529.154 90.5073C530.522 86.6612 531.473 83.7426 533.797 81.8146C536.122 79.8866 538.912 78.5403 541.914 79.1487C544.916 79.7571 547.687 82.4929 549.854 84.9562C551.953 89.9925 553.211 92.0468 553.308 95.0652C553.404 98.0836 554.687 100.893 554.039 103.948C553.391 107.002 553.136 108.375 552.21 112.049C551.283 115.722 551.845 119.322 552.686 122.304C553.359 124.689 554.136 128.783 554.44 130.531Z" fill="#7A9278" stroke="#7A9278" stroke-linecap="round"/>
<path d="M527.503 16.8954C525.25 17.5908 520.142 19.0054 517.742 19.0997C514.742 19.2176 509.592 20.1786 507.286 20.8002C504.981 21.4219 494.845 26.5235 491.623 28.7743C488.401 31.025 485.484 32.7327 483.646 35.0049C481.809 37.277 479.907 42.8896 480.066 44.0971C480.224 45.3046 480.854 49.1487 481.703 49.874C482.552 50.5992 485.33 52.6141 486.099 52.7356C486.869 52.857 487.416 55.1113 488.571 55.2935C489.726 55.4757 492.42 55.9009 495.031 54.7362C497.642 53.5715 501.325 50.9993 503.166 49.7131C505.007 48.427 508.071 44.9687 509.603 43.2396C511.135 41.5105 513.814 37.9915 515.037 35.8193C516.259 33.6472 518.78 28.9207 519.697 27.2916C520.43 25.9883 525.207 19.8177 527.503 16.8954Z" fill="#7A9278" stroke="#7A9278" stroke-linecap="round"/>
<path d="M705.241 109.65C702.938 109.141 697.731 108.148 695.332 108.249C692.332 108.377 687.121 107.839 684.772 107.408C682.424 106.976 671.906 102.718 668.511 100.738C665.115 98.7577 662.069 97.2937 660.052 95.179C658.035 93.0644 655.682 87.6257 655.742 86.4093C655.801 85.1928 656.116 81.3101 656.903 80.5181C657.69 79.726 660.293 77.4912 661.05 77.3073C661.808 77.1234 662.169 74.832 663.305 74.5562C664.441 74.2804 667.091 73.6369 669.789 74.5846C672.486 75.5324 676.367 77.7956 678.307 78.9272C680.247 80.0588 683.583 83.2555 685.251 84.8539C686.919 86.4523 689.876 89.741 691.271 91.8061C692.667 93.8713 695.565 98.3764 696.612 99.9252C697.449 101.164 702.713 106.925 705.241 109.65Z" fill="#7A9278" stroke="#7A9278" stroke-linecap="round"/>
<path d="M620.784 54.167C620.266 55.1271 619.217 57.4653 619.165 59.1371C619.101 61.2268 617.959 64.329 618.622 66.5459C619.285 68.7628 619.502 75.254 619.059 76.0769C618.615 76.8998 617.027 84.2763 615.283 86.5232C613.54 88.7701 609.611 94.0869 608.344 94.4659C607.077 94.845 603.307 98.3887 600.9 98.4187C598.494 98.4487 594.948 98.1297 594.157 96.6409C593.525 95.45 593.209 94.6244 593.399 94.1073C592.406 94.6344 590.982 95.1889 588.681 94.4841C586.401 93.7859 585.611 92.2972 584.915 91.1251C584.219 89.9531 582.132 86.437 582.641 83.5244C583.149 80.6117 584.258 77.5703 585.401 75.4521C586.51 73.3947 588.57 71.0531 590.82 69.3448C593.069 67.6365 600.767 62.2274 602.984 61.564C605.201 60.9006 609.223 59.3519 611.978 58.1822C614.183 57.2465 618.767 55.1155 620.784 54.167Z" fill="#7A9278" stroke="#7A9278" stroke-linecap="round"/>
<path d="M458 101.646C457.373 100.924 455.852 98.9392 454.778 96.7735C453.435 94.0663 451.556 92.9834 450.75 90.0055C449.945 87.0276 448.938 84.172 448.065 81.884C446.723 78.3646 445.112 74.8453 443.769 73.4917C441.621 71.326 440.01 65.3702 437.325 63.4751C434.64 61.5801 429.807 56.4365 427.39 55.3536C424.973 54.2707 424.436 54 420.946 54C417.455 54 414.233 54.5414 411.816 55.895C409.825 57.0106 407.252 59.1436 405.641 60.768C404.367 62.0521 401.613 66.9945 401.076 69.9724C400.736 71.8558 401.58 77.4858 402.687 79.7182C404.03 82.4254 407.252 87.0276 408.863 88.1105C410.474 89.1934 415.844 93.5249 419.066 95.1492C422.288 96.7735 428.733 99.4807 431.418 100.022C434.103 100.564 436.865 101.45 440.278 102.188C444.038 103 446.932 103 449.408 103C452.093 103 455.941 101.917 458 101.646Z" fill="#7A9278" stroke="#7A9278" stroke-linecap="round"/>
<path d="M4 70.601H17.5923C23.9886 70.601 38.2194 67.3512 47.1754 63.0661C63.9658 55.0326 91.1503 48 111.139 48C131.128 48 155.631 57.2285 167.107 63.0661C192.692 76.0812 194.951 87.3984 211.082 92.7072C227.872 98.2328 239.866 99.7591 263.852 95.7211C283.041 92.4908 297.477 83.0444 305.428 78.0943C313.424 73.1164 334.212 70.2638 338.21 70.2638C355.8 70.2638 341.408 70.2638 355 70.2638" stroke="#7A9278" stroke-width="8" stroke-linecap="round"/>
<path d="M203.94 130.531C201.985 130.023 198.82 128.969 196.678 127.26C194.536 125.551 190.481 120.007 188.454 117.234C186.427 114.462 181.35 109.572 180.322 105.39C179.294 101.208 177.285 94.3534 178.654 90.5073C180.022 86.6612 180.973 83.7426 183.297 81.8146C185.622 79.8866 188.412 78.5403 191.414 79.1487C194.416 79.7571 197.187 82.4929 199.354 84.9562C201.453 89.9925 202.711 92.0468 202.808 95.0652C202.904 98.0836 204.187 100.893 203.539 103.948C202.891 107.002 202.636 108.375 201.71 112.049C200.783 115.722 201.345 119.322 202.186 122.304C202.859 124.689 203.636 128.783 203.94 130.531Z" fill="#7A9278" stroke="#7A9278" stroke-linecap="round"/>
<path d="M177.003 16.8954C174.75 17.5908 169.642 19.0054 167.242 19.0997C164.242 19.2176 159.092 20.1786 156.786 20.8002C154.481 21.4219 144.345 26.5235 141.123 28.7743C137.901 31.025 134.984 32.7327 133.146 35.0049C131.309 37.277 129.407 42.8896 129.566 44.0971C129.724 45.3046 130.354 49.1487 131.203 49.874C132.052 50.5992 134.83 52.6141 135.599 52.7356C136.369 52.857 136.916 55.1113 138.071 55.2935C139.226 55.4757 141.92 55.9009 144.531 54.7362C147.142 53.5715 150.825 50.9993 152.666 49.7131C154.507 48.427 157.571 44.9687 159.103 43.2396C160.635 41.5105 163.314 37.9915 164.537 35.8193C165.759 33.6472 168.28 28.9207 169.197 27.2916C169.93 25.9883 174.707 19.8177 177.003 16.8954Z" fill="#7A9278" stroke="#7A9278" stroke-linecap="round"/>
<path d="M354.741 109.65C352.438 109.141 347.231 108.148 344.832 108.249C341.832 108.377 336.621 107.839 334.272 107.408C331.924 106.976 321.406 102.718 318.011 100.738C314.615 98.7577 311.569 97.2937 309.552 95.179C307.535 93.0644 305.182 87.6257 305.242 86.4093C305.301 85.1928 305.616 81.3101 306.403 80.5181C307.19 79.726 309.793 77.4912 310.55 77.3073C311.308 77.1234 311.669 74.832 312.805 74.5562C313.941 74.2804 316.591 73.6369 319.289 74.5846C321.986 75.5324 325.867 77.7956 327.807 78.9272C329.747 80.0588 333.083 83.2555 334.751 84.8539C336.419 86.4523 339.376 89.741 340.771 91.8061C342.167 93.8713 345.065 98.3764 346.112 99.9252C346.949 101.164 352.213 106.925 354.741 109.65Z" fill="#7A9278" stroke="#7A9278" stroke-linecap="round"/>
<path d="M270.284 54.167C269.766 55.1271 268.717 57.4653 268.665 59.1371C268.601 61.2268 267.459 64.329 268.122 66.5459C268.785 68.7628 269.002 75.254 268.559 76.0769C268.115 76.8998 266.527 84.2763 264.783 86.5232C263.04 88.7701 259.111 94.0869 257.844 94.4659C256.577 94.845 252.807 98.3887 250.4 98.4187C247.994 98.4487 244.448 98.1297 243.657 96.6409C243.025 95.45 242.709 94.6244 242.899 94.1073C241.906 94.6344 240.482 95.1889 238.181 94.4841C235.901 93.7859 235.111 92.2972 234.415 91.1251C233.719 89.9531 231.632 86.437 232.141 83.5244C232.649 80.6117 233.758 77.5703 234.901 75.4521C236.01 73.3947 238.07 71.0531 240.32 69.3448C242.569 67.6365 250.267 62.2274 252.484 61.564C254.701 60.9006 258.723 59.3519 261.478 58.1822C263.683 57.2465 268.267 55.1155 270.284 54.167Z" fill="#7A9278" stroke="#7A9278" stroke-linecap="round"/>
<path d="M107.5 101.646C106.873 100.924 105.352 98.9392 104.278 96.7735C102.935 94.0663 101.056 92.9834 100.25 90.0055C99.4447 87.0276 98.438 84.172 97.5652 81.884C96.2226 78.3646 94.6116 74.8453 93.269 73.4917C91.121 71.326 89.5099 65.3702 86.8248 63.4751C84.1397 61.5801 79.3066 56.4365 76.89 55.3536C74.4734 54.2707 73.9364 54 70.4458 54C66.9551 54 63.7331 54.5414 61.3165 55.895C59.3248 57.0106 56.7518 59.1436 55.1407 60.768C53.8671 62.0521 51.1131 66.9945 50.5761 69.9724C50.2365 71.8558 51.08 77.4858 52.1871 79.7182C53.5297 82.4254 56.7518 87.0276 58.3628 88.1105C59.9739 89.1934 65.3441 93.5249 68.5662 95.1492C71.7883 96.7735 78.2325 99.4807 80.9176 100.022C83.6027 100.564 86.3653 101.45 89.7784 102.188C93.5375 103 96.4322 103 98.9077 103C101.593 103 105.441 101.917 107.5 101.646Z" fill="#7A9278" stroke="#7A9278" stroke-linecap="round"/>
<path d="M354.5 70.601H368.092C374.489 70.601 388.719 67.3512 397.675 63.0661C414.466 55.0326 441.65 48 461.639 48C481.628 48 506.131 57.2285 517.607 63.0661C543.192 76.0812 545.451 87.3984 561.582 92.7072C578.372 98.2328 590.366 99.7591 614.352 95.7211C633.541 92.4908 647.977 83.0444 655.928 78.0943C663.924 73.1164 684.712 70.2638 688.71 70.2638C706.3 70.2638 691.908 70.2638 705.5 70.2638" stroke="#7A9278" stroke-width="8" stroke-linecap="round"/>
<path d="M557.029 137.934C554.809 137.356 551.214 136.159 548.781 134.218C546.348 132.278 541.744 125.98 539.441 122.832C537.139 119.683 531.373 114.129 530.205 109.379C529.037 104.63 526.756 96.8447 528.31 92.4766C529.865 88.1084 530.944 84.7935 533.584 82.6038C536.224 80.4141 539.393 78.8851 542.803 79.576C546.212 80.267 549.36 83.3743 551.82 86.1719C554.204 91.8918 555.634 94.2251 555.743 97.6532C555.853 101.081 557.31 104.272 556.573 107.741C555.837 111.211 555.548 112.77 554.496 116.942C553.444 121.114 554.082 125.203 555.037 128.589C555.801 131.299 556.684 135.948 557.029 137.934Z" fill="#7A9278" stroke="#7A9278" stroke-linecap="round"/>
<path d="M527.503 16.8954C525.25 17.5908 520.142 19.0054 517.742 19.0997C514.742 19.2176 509.592 20.1786 507.286 20.8002C504.981 21.4219 494.845 26.5235 491.623 28.7743C488.401 31.025 485.484 32.7327 483.646 35.0049C481.809 37.277 479.907 42.8896 480.066 44.0971C480.224 45.3046 480.854 49.1487 481.703 49.874C482.552 50.5992 485.33 52.6141 486.099 52.7356C486.869 52.857 487.416 55.1113 488.571 55.2935C489.726 55.4757 492.42 55.9009 495.031 54.7362C497.642 53.5715 501.325 50.9993 503.166 49.7131C505.007 48.427 508.071 44.9687 509.603 43.2396C511.135 41.5105 513.814 37.9915 515.037 35.8193C516.259 33.6472 518.78 28.9207 519.697 27.2916C520.43 25.9883 525.207 19.8177 527.503 16.8954Z" fill="#7A9278" stroke="#7A9278" stroke-linecap="round"/>
<path d="M705.241 109.65C702.938 109.141 697.731 108.148 695.332 108.249C692.332 108.377 687.121 107.839 684.772 107.408C682.424 106.976 671.906 102.718 668.511 100.738C665.115 98.7577 662.069 97.2937 660.052 95.179C658.035 93.0644 655.682 87.6257 655.742 86.4093C655.801 85.1928 656.116 81.3101 656.903 80.5181C657.69 79.726 660.293 77.4912 661.05 77.3073C661.808 77.1234 662.169 74.832 663.305 74.5562C664.441 74.2804 667.091 73.6369 669.789 74.5846C672.486 75.5324 676.367 77.7956 678.307 78.9272C680.247 80.0588 683.583 83.2555 685.251 84.8539C686.919 86.4523 689.876 89.741 691.271 91.8061C692.667 93.8713 695.565 98.3764 696.612 99.9252C697.449 101.164 702.713 106.925 705.241 109.65Z" fill="#7A9278" stroke="#7A9278" stroke-linecap="round"/>
<path d="M620.784 54.167C620.266 55.1271 619.217 57.4653 619.165 59.1371C619.101 61.2268 617.959 64.329 618.622 66.5459C619.285 68.7628 619.502 75.254 619.059 76.0769C618.615 76.8998 617.027 84.2763 615.283 86.5232C613.54 88.7701 609.611 94.0869 608.344 94.4659C607.077 94.845 603.307 98.3887 600.9 98.4187C598.494 98.4487 594.948 98.1297 594.157 96.6409C593.525 95.45 593.209 94.6244 593.399 94.1073C592.406 94.6344 590.982 95.1889 588.681 94.4841C586.401 93.7859 585.611 92.2972 584.915 91.1251C584.219 89.9531 582.132 86.437 582.641 83.5244C583.149 80.6117 584.258 77.5703 585.401 75.4521C586.51 73.3947 588.57 71.0531 590.82 69.3448C593.069 67.6365 600.767 62.2274 602.984 61.564C605.201 60.9006 609.223 59.3519 611.978 58.1822C614.183 57.2465 618.767 55.1155 620.784 54.167Z" fill="#7A9278" stroke="#7A9278" stroke-linecap="round"/>
<path d="M458 101.646C457.373 100.924 455.852 98.9392 454.778 96.7735C453.435 94.0663 451.556 92.9834 450.75 90.0055C449.945 87.0276 448.938 84.172 448.065 81.884C446.723 78.3646 445.112 74.8453 443.769 73.4917C441.621 71.326 440.01 65.3702 437.325 63.4751C434.64 61.5801 429.807 56.4365 427.39 55.3536C424.973 54.2707 424.436 54 420.946 54C417.455 54 414.233 54.5414 411.816 55.895C409.825 57.0106 407.252 59.1436 405.641 60.768C404.367 62.0521 401.613 66.9945 401.076 69.9724C400.736 71.8558 401.58 77.4858 402.687 79.7182C404.03 82.4254 407.252 87.0276 408.863 88.1105C410.474 89.1934 415.844 93.5249 419.066 95.1492C422.288 96.7735 428.733 99.4807 431.418 100.022C434.103 100.564 436.865 101.45 440.278 102.188C444.038 103 446.932 103 449.408 103C452.093 103 455.941 101.917 458 101.646Z" fill="#7A9278" stroke="#7A9278" stroke-linecap="round"/>
<path d="M347.299 55.695C341.735 52.7194 340.622 50.8452 338.586 46.3439C337.687 44.3554 335.438 39.9684 334.885 35.8342C334.333 31.7 334.604 22.9259 334.716 20.6016C334.907 16.6511 335.282 11.9469 336.956 8.3635C338.63 4.78008 341.975 0.810289 343.459 1.1775C344.943 1.54472 346.119 4.59456 347.536 6.98328C349.204 9.79448 349.386 12.2381 351.431 10.3453C353.475 8.45245 355.704 5.80582 358.117 5.60323C360.53 5.40065 362.178 7.51928 362.753 9.14862C363.678 11.7761 364.79 13.6502 367.016 14.2009C370.335 15.022 372.029 13.0425 372.957 12.4726C373.886 11.9028 375.742 10.7631 377.596 12.8208C379.45 14.8784 379.63 20.5194 378.698 24.2864C377.766 28.0535 377.016 34.2642 375.157 38.6011C374.19 40.8559 371.253 44.8311 368.28 47.2938C365.308 49.7564 358.809 53.7453 356.951 54.8848C355.901 55.5292 352.495 56.9804 347.299 55.695Z" fill="#F6C8CA" stroke="#F6C8CA"/>
<path d="M330.314 23.0519C330.252 25.1586 329.976 29.8863 329.363 31.9431C328.598 34.514 327.926 39.1471 327.786 41.2762C327.647 43.4052 329.039 53.4478 330.013 56.8221C330.988 60.1964 331.591 63.1556 332.983 65.3649C334.374 67.5742 338.572 70.801 339.639 71.0151C340.706 71.2293 344.139 71.8048 344.997 71.296C345.855 70.7871 348.36 69.0194 348.685 68.4034C349.01 67.7874 351.074 67.9748 351.561 67.0508C352.048 66.1268 353.185 63.9709 352.953 61.4268C352.721 58.8827 351.607 55.0263 351.051 53.0982C350.494 51.17 348.453 47.5816 347.432 45.7873C346.411 43.9931 344.208 40.7126 342.723 39.0524C341.239 37.3921 337.969 33.8974 336.855 32.6522C335.965 31.656 332.123 25.8369 330.314 23.0519Z" fill="#7A9278" stroke="#7A9278" stroke-linecap="round"/>
<path d="M380.81 37.8471C379.751 39.6694 377.492 43.8316 376.927 45.9019C376.221 48.4897 374.348 52.7804 373.343 54.6625C372.338 56.5445 365.857 64.3416 363.249 66.6941C360.642 69.0467 358.568 71.2424 356.22 72.385C353.872 73.5277 348.604 74.054 347.584 73.6731C346.565 73.2922 343.345 71.9701 342.885 71.0851C342.424 70.2 341.229 67.3769 341.278 66.6823C341.327 65.9877 339.474 65.0578 339.548 64.0159C339.622 62.974 339.794 60.543 341.333 58.5041C342.872 56.4652 345.852 53.7766 347.343 52.4323C348.833 51.088 352.46 49.1164 354.274 48.1306C356.087 47.1448 359.69 45.5204 361.827 44.8932C363.964 44.2659 368.586 43.0225 370.188 42.552C371.471 42.1756 377.804 39.2586 380.81 37.8471Z" fill="#7A9278" stroke="#7A9278" stroke-linecap="round"/>
</svg>
